<?xml version="1.0" encoding="UTF-8"?>
<svg version="1.1" xmlns="http://www.w3.org/2000/svg" width="566" height="285">
<path d="M0 0 C186.78 0 373.56 0 566 0 C566 94.05 566 188.1 566 285 C379.22 285 192.44 285 0 285 C0 190.95 0 96.9 0 0 Z " fill="#E6E6E6" transform="translate(0,0)"/>
<path d="M0 0 C186.78 0 373.56 0 566 0 C566 14.85 566 29.7 566 45 C379.22 45 192.44 45 0 45 C0 30.15 0 15.3 0 0 Z " fill="#716CB5" transform="translate(0,0)"/>
<path d="M0 0 C186.78 0 373.56 0 566 0 C566 0.99 566 1.98 566 3 C379.22 3 192.44 3 0 3 C0 2.01 0 1.02 0 0 Z " fill="#22262D" transform="translate(0,0)"/>
<path d="M0 0 C0.33 0.66 0.66 1.32 1 2 C3.02463255 2.65213292 3.02463255 2.65213292 5 3 C5.66 2.01 6.32 1.02 7 0 C7.99 0 8.98 0 10 0 C10 0.66 10 1.32 10 2 C11.98 2 13.96 2 16 2 C16.495 2.99 16.495 2.99 17 4 C18.89533342 4.46523063 18.89533342 4.46523063 21.0625 4.625 C22.361875 4.74875 23.66125 4.8725 25 5 C25.33 4.34 25.66 3.68 26 3 C29.16015625 2.5859375 29.16015625 2.5859375 33.0625 2.375 C34.35285156 2.30023438 35.64320313 2.22546875 36.97265625 2.1484375 C37.97167969 2.09945312 38.97070312 2.05046875 40 2 C41.125 6.75 41.125 6.75 40 9 C40.27942455 10.67654729 40.60828247 12.34608154 41 14 C28.33333333 14 15.66666667 14 3 14 C3 11.69 3 9.38 3 7 C2.01 7 1.02 7 0 7 C0 9.31 0 11.62 0 14 C-0.53625 13.79375 -1.0725 13.5875 -1.625 13.375 C-4.14042413 12.79107629 -4.14042413 12.79107629 -7 14 C-10.2592631 15.08642103 -10.8663102 14.92167347 -14 14 C-16.67303078 13.90195447 -19.32391191 13.95539853 -22 14 C-22 13.34 -22 12.68 -22 12 C-22.5775 12.33 -23.155 12.66 -23.75 13 C-26 14 -26 14 -30 14 C-30 13.01 -30 12.02 -30 11 C-29.34 11 -28.68 11 -28 11 C-27.87625 10.071875 -27.7525 9.14375 -27.625 8.1875 C-27 5 -27 5 -25 2 C-24.071875 2.37125 -23.14375 2.7425 -22.1875 3.125 C-21.135625 3.41375 -20.08375 3.7025 -19 4 C-18.01 3.34 -17.02 2.68 -16 2 C-16 2.66 -16 3.32 -16 4 C-14.68 4 -13.36 4 -12 4 C-11.67 3.34 -11.34 2.68 -11 2 C-10.29875 2.226875 -9.5975 2.45375 -8.875 2.6875 C-5.12299725 3.09532639 -3.20568943 1.86377293 0 0 Z " fill="#9E9E9F" transform="translate(109,236)"/>
<path d="M0 0 C0.66 0.66 1.32 1.32 2 2 C1.67 10.91 1.34 19.82 1 29 C181.51 29 362.02 29 548 29 C548 29.33 548 29.66 548 30 C367.16 30 186.32 30 0 30 C-1.3767748 27.2464504 -1.12969689 25.01159591 -1.1328125 21.93359375 C-1.13410156 20.72638672 -1.13539062 19.51917969 -1.13671875 18.27539062 C-1.13091797 16.37563477 -1.13091797 16.37563477 -1.125 14.4375 C-1.12886719 13.16712891 -1.13273437 11.89675781 -1.13671875 10.58789062 C-1.13542969 9.38197266 -1.13414063 8.17605469 -1.1328125 6.93359375 C-1.13168457 5.82040771 -1.13055664 4.70722168 -1.12939453 3.56030273 C-1 1 -1 1 0 0 Z " fill="#EBEBEB" transform="translate(18,70)"/>
<path d="M0 0 C2.00720923 0.28674418 4.0085944 0.61866701 6 1 C5.67 1.99 5.34 2.98 5 4 C6.58941406 3.76603516 6.58941406 3.76603516 8.2109375 3.52734375 C9.59891187 3.33040144 10.98693532 3.13380477 12.375 2.9375 C13.07367188 2.83373047 13.77234375 2.72996094 14.4921875 2.62304688 C19.7734375 1.88671875 19.7734375 1.88671875 22 3 C21.67 3.99 21.34 4.98 21 6 C19.68 6 18.36 6 17 6 C17 8.31 17 10.62 17 13 C16.443125 12.814375 15.88625 12.62875 15.3125 12.4375 C13.00763346 11.84879212 13.00763346 11.84879212 10.75 12.46875 C7.66687613 13.06435348 4.82496306 13.09697762 1.6875 13.0625 C0.08455078 13.04896484 0.08455078 13.04896484 -1.55078125 13.03515625 C-2.35902344 13.02355469 -3.16726562 13.01195312 -4 13 C-4 10.69 -4 8.38 -4 6 C-4.99 6 -5.98 6 -7 6 C-7 8.31 -7 10.62 -7 13 C-8.43739513 13.02712066 -9.87493863 13.04645067 -11.3125 13.0625 C-12.51326172 13.07990234 -12.51326172 13.07990234 -13.73828125 13.09765625 C-16 13 -16 13 -19 12 C-19.33 12.33 -19.66 12.66 -20 13 C-22.33297433 13.04092937 -24.66705225 13.04241723 -27 13 C-27.33 12.01 -27.66 11.02 -28 10 C-25.03 10.495 -25.03 10.495 -22 11 C-24.0072908 7.9890638 -24.83884224 7.36983503 -28 6 C-27.67 4.35 -27.34 2.7 -27 1 C-24.91695462 0.94581674 -22.83350232 0.90712449 -20.75 0.875 C-19.00976562 0.84019531 -19.00976562 0.84019531 -17.234375 0.8046875 C-14.06197079 0.9962578 -12.7425934 1.6201148 -10 3 C-7.64751935 2.85341245 -7.64751935 2.85341245 -5.3125 2.1875 C-4.13107422 1.89939453 -4.13107422 1.89939453 -2.92578125 1.60546875 C-1.01305728 1.16721477 -1.01305728 1.16721477 0 0 Z " fill="#838282" transform="translate(55,237)"/>
<path d="M0 0 C0.639375 0.495 1.27875 0.99 1.9375 1.5 C6.04023483 3.50950277 9.51443582 3.26385672 14 3 C13.17884773 6.40297337 12.12975833 9.68604223 11 13 C9.23086176 13.22226864 7.45955629 13.42733873 5.6875 13.625 C4.20830078 13.79902344 4.20830078 13.79902344 2.69921875 13.9765625 C0 14 0 14 -3 12 C-3.144375 12.639375 -3.28875 13.27875 -3.4375 13.9375 C-4 16 -4 16 -5 17 C-9.09789669 16.62056512 -11.53958935 16.30694043 -15 14 C-16.65549531 13.61500109 -18.3222433 13.27206865 -20 13 C-20 11.35 -20 9.7 -20 8 C-19.34 7.67 -18.68 7.34 -18 7 C-18.66 6.67 -19.32 6.34 -20 6 C-20 5.34 -20 4.68 -20 4 C-18.700625 4.020625 -17.40125 4.04125 -16.0625 4.0625 C-14.70834367 4.08399454 -13.35243917 4.07148199 -12 4 C-11.67 3.67 -11.34 3.34 -11 3 C-8.70310483 3.0089898 -6.42224061 3.13265461 -4.12890625 3.2578125 C-3.42636719 3.17273438 -2.72382813 3.08765625 -2 3 C-1.34 2.01 -0.68 1.02 0 0 Z " fill="#9D9C9B" transform="translate(405,237)"/>
<path d="M0 0 C0 1.32 0 2.64 0 4 C2.475 4.495 2.475 4.495 5 5 C5 7.64 5 10.28 5 13 C4.34 13 3.68 13 3 13 C3 10.69 3 8.38 3 6 C2.01 6 1.02 6 0 6 C0 8.31 0 10.62 0 13 C-0.53625 12.79375 -1.0725 12.5875 -1.625 12.375 C-4.14042413 11.79107629 -4.14042413 11.79107629 -7 13 C-10.2592631 14.08642103 -10.8663102 13.92167347 -14 13 C-16.67303078 12.90195447 -19.32391191 12.95539853 -22 13 C-22 12.34 -22 11.68 -22 11 C-22.5775 11.33 -23.155 11.66 -23.75 12 C-26 13 -26 13 -30 13 C-30 12.01 -30 11.02 -30 10 C-29.34 10 -28.68 10 -28 10 C-27.87625 9.071875 -27.7525 8.14375 -27.625 7.1875 C-27 4 -27 4 -25 1 C-23.6078125 1.556875 -23.6078125 1.556875 -22.1875 2.125 C-21.135625 2.41375 -20.08375 2.7025 -19 3 C-18.01 2.34 -17.02 1.68 -16 1 C-16 1.66 -16 2.32 -16 3 C-14.68 3 -13.36 3 -12 3 C-11.67 2.34 -11.34 1.68 -11 1 C-10.236875 1.20625 -9.47375 1.4125 -8.6875 1.625 C-4.97528819 2.14298304 -3.77896724 0 0 0 Z " fill="#A09F9E" transform="translate(109,237)"/>
<path d="M0 0 C0.66 0 1.32 0 2 0 C2.33 0.99 2.66 1.98 3 3 C4.670625 2.7215625 4.670625 2.7215625 6.375 2.4375 C10 2 10 2 12 3 C13.37342831 3.0689472 14.75002102 3.08467708 16.125 3.0625 C18.043125 3.0315625 18.043125 3.0315625 20 3 C20.33 3.99 20.66 4.98 21 6 C20.01 6.66 19.02 7.32 18 8 C17.27034634 10.56282742 17.27034634 10.56282742 17 13 C16.21625 12.979375 15.4325 12.95875 14.625 12.9375 C12.01885039 12.81315937 12.01885039 12.81315937 10 14 C8.906875 13.835 7.81375 13.67 6.6875 13.5 C3.27780998 13.03766915 1.27911972 13.27130673 -2 14 C-2.99 13.67 -3.98 13.34 -5 13 C-5 10.69 -5 8.38 -5 6 C-5.66 6 -6.32 6 -7 6 C-7 8.31 -7 10.62 -7 13 C-7.99 13 -8.98 13 -10 13 C-10 10.03 -10 7.06 -10 4 C-7.36 4 -4.72 4 -2 4 C-1.34 2.68 -0.68 1.36 0 0 Z " fill="#747373" transform="translate(327,237)"/>
<path d="M0 0 C1.65 0 3.3 0 5 0 C5 0.66 5 1.32 5 2 C7.97 2 10.94 2 14 2 C14 1.34 14 0.68 14 0 C14.66 0 15.32 0 16 0 C16 0.66 16 1.32 16 2 C17.216875 1.814375 18.43375 1.62875 19.6875 1.4375 C23.05370751 1.00928986 25.68926977 1.14866937 29 2 C29.99 2 30.98 2 32 2 C32.66 1.34 33.32 0.68 34 0 C34 0.66 34 1.32 34 2 C36.97 2 39.94 2 43 2 C43.66 3.65 44.32 5.3 45 7 C42.23735711 7.59732819 39.83967231 8 37 8 C35.700625 8.020625 34.40125 8.04125 33.0625 8.0625 C30.21364705 8.06774651 27.72846201 7.90948734 25 7 C25 6.34 25 5.68 25 5 C24.34 5 23.68 5 23 5 C22.67 5.66 22.34 6.32 22 7 C21.67 6.34 21.34 5.68 21 5 C20.64035156 5.49242187 20.28070313 5.98484375 19.91015625 6.4921875 C17.11228285 8.70073378 14.94314913 8.2581755 11.4375 8.125 C7.05867445 7.79595285 7.05867445 7.79595285 3 9 C2.01 8.67 1.02 8.34 0 8 C0 5.36 0 2.72 0 0 Z " fill="#848484" transform="translate(297,257)"/>
<path d="M0 0 C0.639375 0.144375 1.27875 0.28875 1.9375 0.4375 C5.93844788 1.17236798 9.95504896 1.58581111 14 2 C14 1.34 14 0.68 14 0 C14.66 0 15.32 0 16 0 C16 0.66 16 1.32 16 2 C16.763125 2 17.52625 2 18.3125 2 C24 2 24 2 25.97265625 2.0703125 C27.98121994 2.12287305 29.99176042 2.06375364 32 2 C32.66 1.34 33.32 0.68 34 0 C34 0.66 34 1.32 34 2 C36.97 2 39.94 2 43 2 C43 2.99 43 3.98 43 5 C43.66 5 44.32 5 45 5 C45 5.66 45 6.32 45 7 C39.18700785 7.98944547 32.77135909 9.01057778 26.98828125 7.4609375 C24.73382547 6.93829353 23.14698033 7.11989683 20.875 7.5 C17 8 17 8 15 7 C14.154375 7.144375 13.30875 7.28875 12.4375 7.4375 C8.2549946 8.12190997 4.2262287 8.08452457 0 8 C0 5.36 0 2.72 0 0 Z " fill="#818181" transform="translate(26,257)"/>
<path d="M0 0 C1.125 2.0625 1.125 2.0625 2 4 C2.66 2.68 3.32 1.36 4 0 C5.65 0 7.3 0 9 0 C9 0.66 9 1.32 9 2 C10.134375 2.12375 11.26875 2.2475 12.4375 2.375 C13.613125 2.58125 14.78875 2.7875 16 3 C17.60725635 6.21451269 17.05748185 9.43612536 17 13 C13.37 13 9.74 13 6 13 C5.67 11.02 5.34 9.04 5 7 C4.34 8.98 3.68 10.96 3 13 C2.01 13 1.02 13 0 13 C-0.33 11.68 -0.66 10.36 -1 9 C-1.33 10.32 -1.66 11.64 -2 13 C-2.99 13 -3.98 13 -5 13 C-5.36220266 11.20994059 -5.71452469 9.41787943 -6.0625 7.625 C-6.25972656 6.62726563 -6.45695312 5.62953125 -6.66015625 4.6015625 C-7 2 -7 2 -6 0 C-2.49056604 -1.24528302 -2.49056604 -1.24528302 0 0 Z " fill="#A5A5A5" transform="translate(356,237)"/>
<path d="M0 0 C0.70511719 0.33773438 1.41023438 0.67546875 2.13671875 1.0234375 C5.37014446 2.12624299 7.44257702 2.03101482 10.8125 1.625 C11.78832031 1.51414062 12.76414063 1.40328125 13.76953125 1.2890625 C14.50558594 1.19367188 15.24164063 1.09828125 16 1 C16.66 2.65 17.32 4.3 18 6 C16.35 6.66 14.7 7.32 13 8 C12.505 6.515 12.505 6.515 12 5 C11.60554688 5.50273437 11.21109375 6.00546875 10.8046875 6.5234375 C9 8 9 8 6.6953125 8.0390625 C5.84710938 7.90242188 4.99890625 7.76578125 4.125 7.625 C0.37681955 7.0404214 -2.30281445 7.22604098 -6 8 C-8.20742078 8.06681056 -10.41668656 8.08534462 -12.625 8.0625 C-13.75164062 8.05347656 -14.87828125 8.04445313 -16.0390625 8.03515625 C-17.01617187 8.02355469 -17.99328125 8.01195312 -19 8 C-19.99 8 -20.98 8 -22 8 C-22.66 7.34 -23.32 6.68 -24 6 C-23.67 4.68 -23.34 3.36 -23 2 C-15.74 2 -8.48 2 -1 2 C-0.67 1.34 -0.34 0.68 0 0 Z " fill="#838383" transform="translate(163,257)"/>
<path d="M0 0 C1.27875 0.144375 2.5575 0.28875 3.875 0.4375 C4.90625 0.623125 5.9375 0.80875 7 1 C7.495 1.99 7.495 1.99 8 3 C7.0625 5.125 7.0625 5.125 6 7 C4.906875 6.979375 3.81375 6.95875 2.6875 6.9375 C-0.94384191 6.81455548 -0.94384191 6.81455548 -4 8 C-4.66 7.34 -5.32 6.68 -6 6 C-8.00277585 6.31622777 -10.00189338 6.65549886 -12 7 C-22.4605364 7.39157088 -22.4605364 7.39157088 -26.2421875 6.4296875 C-28.09226457 5.77662923 -28.09226457 5.77662923 -30 7 C-30.33 6.01 -30.66 5.02 -31 4 C-29.6875 1.8125 -29.6875 1.8125 -28 0 C-27.34 0 -26.68 0 -26 0 C-26 0.66 -26 1.32 -26 2 C-25.34 1.67 -24.68 1.34 -24 1 C-20.71694052 0.96902774 -17.44580835 1.0675562 -14.1640625 1.16015625 C-8.51333271 0.87413166 -6.04925802 -1.12782777 0 0 Z " fill="#808080" transform="translate(130,258)"/>
<path d="M0 0 C0.66 0.33 1.32 0.66 2 1 C13.24230645 2.89018817 13.24230645 2.89018817 24 1 C26.3400417 1.28241883 28.67504723 1.61250787 31 2 C30.34 3.98 29.68 5.96 29 8 C27.35 8.33 25.7 8.66 24 9 C24 8.34 24 7.68 24 7 C23.34 7 22.68 7 22 7 C22 7.66 22 8.32 22 9 C20.7625 8.835 19.525 8.67 18.25 8.5 C13.36896095 7.92758021 8.60268084 8.03988085 3.69921875 8.2578125 C0.57666114 7.95956532 -0.70825609 7.07944459 -3 5 C-3.33 5.66 -3.66 6.32 -4 7 C-4.33 5.02 -4.66 3.04 -5 1 C-2.525 1.495 -2.525 1.495 0 2 C0 1.34 0 0.68 0 0 Z " fill="#848484" transform="translate(349,257)"/>
<path d="M0 0 C2.28692345 0.19814499 4.27118444 0.01737317 6.5390625 -0.3125 C10.1640625 -0.8125 10.1640625 -0.8125 12.1640625 0.1875 C12.8515625 2.125 12.8515625 2.125 13.1640625 4.1875 C12.8340625 4.8475 12.5040625 5.5075 12.1640625 6.1875 C11.05998047 6.17009766 11.05998047 6.17009766 9.93359375 6.15234375 C8.46986328 6.13880859 8.46986328 6.13880859 6.9765625 6.125 C6.01363281 6.11339844 5.05070312 6.10179687 4.05859375 6.08984375 C1.30048841 6.18289724 -1.14215357 6.62758092 -3.8359375 7.1875 C-5.1559375 7.1875 -6.4759375 7.1875 -7.8359375 7.1875 C-8.1659375 6.5275 -8.4959375 5.8675 -8.8359375 5.1875 C-12.1359375 5.8475 -15.4359375 6.5075 -18.8359375 7.1875 C-18.8359375 4.8775 -18.8359375 2.5675 -18.8359375 0.1875 C-18.23265625 0.19910156 -17.629375 0.21070313 -17.0078125 0.22265625 C-16.20859375 0.23167969 -15.409375 0.24070312 -14.5859375 0.25 C-13.79703125 0.26160156 -13.008125 0.27320313 -12.1953125 0.28515625 C-9.86205943 0.27165862 -9.86205943 0.27165862 -7.7734375 -0.34765625 C-5.08795804 -0.99195475 -2.69449791 -0.4036701 0 0 Z " fill="#848484" transform="translate(439.8359375,258.8125)"/>
<path d="M0 0 C0.33 0.66 0.66 1.32 1 2 C2.32 2 3.64 2 5 2 C7.66666667 2 10.33333333 2 13 2 C13.33 1.34 13.66 0.68 14 0 C14.66 0 15.32 0 16 0 C16 0.66 16 1.32 16 2 C18.64 2 21.28 2 24 2 C24.33 1.34 24.66 0.68 25 0 C26 1 26 1 26.0625 4.0625 C26.041875 5.031875 26.02125 6.00125 26 7 C21.34868816 7.92448434 16.98653448 8.07488592 12.25 8 C7.45721907 7.71437659 7.45721907 7.71437659 3 9 C2.34 8.34 1.68 7.68 1 7 C-2.58343976 6.83322718 -2.58343976 6.83322718 -6 7 C-6 5.02 -6 3.04 -6 1 C-4.7934375 1.0309375 -4.7934375 1.0309375 -3.5625 1.0625 C-1.06645115 1.29633621 -1.06645115 1.29633621 0 0 Z " fill="#838383" transform="translate(202,257)"/>
<path d="M0 0 C0.66 0.33 1.32 0.66 2 1 C2 2.32 2 3.64 2 5 C2.66 5 3.32 5 4 5 C4.33 3.68 4.66 2.36 5 1 C6.13179687 1.01160156 7.26359375 1.02320313 8.4296875 1.03515625 C9.91145669 1.04453454 11.39322765 1.0536347 12.875 1.0625 C13.62136719 1.07087891 14.36773437 1.07925781 15.13671875 1.08789062 C19.19845578 1.20688084 19.19845578 1.20688084 23 0 C23 0.66 23 1.32 23 2 C26.3 1.67 29.6 1.34 33 1 C33 2.65 33 4.3 33 6 C30.70986647 7.14506676 29.47685185 7.10280717 26.9375 7.0625 C26.14085938 7.05476563 25.34421875 7.04703125 24.5234375 7.0390625 C22.84114583 7.01302083 21.15885417 6.98697917 19.4765625 6.9609375 C18.67992188 6.95320313 17.88328125 6.94546875 17.0625 6.9375 C16.33160156 6.92589844 15.60070312 6.91429687 14.84765625 6.90234375 C12.90365825 6.88176172 12.90365825 6.88176172 11 8 C9.12137125 7.91255632 7.24544819 7.75824458 5.375 7.5625 C4.37210938 7.46066406 3.36921875 7.35882813 2.3359375 7.25390625 C1.56507812 7.17011719 0.79421875 7.08632813 0 7 C-0.38133299 5.0085944 -0.71325582 3.00720923 -1 1 C-0.67 0.67 -0.34 0.34 0 0 Z " fill="#757575" transform="translate(26,268)"/>
<path d="M0 0 C0.33 0.66 0.66 1.32 1 2 C3.02463255 2.65213292 3.02463255 2.65213292 5 3 C5.66 2.01 6.32 1.02 7 0 C7.99 0 8.98 0 10 0 C10 0.66 10 1.32 10 2 C11.98 2 13.96 2 16 2 C17.79760213 5.81990452 18.28743526 8.78428287 18 13 C17 14 17 14 14.27734375 14.09765625 C12.62412109 14.08025391 12.62412109 14.08025391 10.9375 14.0625 C9.28041016 14.04896484 9.28041016 14.04896484 7.58984375 14.03515625 C6.73519531 14.02355469 5.88054687 14.01195312 5 14 C4.67 11.36 4.34 8.72 4 6 C2.68 5.67 1.36 5.34 0 5 C0 3.35 0 1.7 0 0 Z " fill="#9FA2A1" transform="translate(109,236)"/>
<path d="M0 0 C0.99 0 1.98 0 3 0 C3 1.32 3 2.64 3 4 C4.65 4.33 6.3 4.66 8 5 C8 7.64 8 10.28 8 13 C7.34 13 6.68 13 6 13 C6 10.69 6 8.38 6 6 C5.01 6 4.02 6 3 6 C3 8.31 3 10.62 3 13 C2.195625 12.690625 2.195625 12.690625 1.375 12.375 C-1.83267308 11.8685253 -4.01317066 12.84599775 -7 14 C-8.80411967 11.24075815 -9.0127245 10.11027897 -8.625 6.75 C-8.41875 5.8425 -8.2125 4.935 -8 4 C-6.00045254 3.95745644 -3.99958364 3.95919217 -2 4 C-1.67 4.33 -1.34 4.66 -1 5 C-0.67 3.35 -0.34 1.7 0 0 Z " fill="#898A8B" transform="translate(106,237)"/>
<path d="M0 0 C1.21042969 -0.00128906 2.42085937 -0.00257812 3.66796875 -0.00390625 C4.94285156 -0.00003906 6.21773437 0.00382812 7.53125 0.0078125 C9.44357422 0.00201172 9.44357422 0.00201172 11.39453125 -0.00390625 C13.21017578 -0.00197266 13.21017578 -0.00197266 15.0625 0 C16.18205078 0.00112793 17.30160156 0.00225586 18.45507812 0.00341797 C21.03125 0.1328125 21.03125 0.1328125 22.03125 1.1328125 C24.08521726 0.72351264 24.08521726 0.72351264 26.03125 0.1328125 C26.03125 1.7828125 26.03125 3.4328125 26.03125 5.1328125 C19.40625 5.2578125 19.40625 5.2578125 16.03125 4.1328125 C15.70125 4.4628125 15.37125 4.7928125 15.03125 5.1328125 C13.60965967 5.0153257 12.19278415 4.83846648 10.78125 4.6328125 C7.2154233 4.18849025 4.542432 4.30121676 1.03125 5.1328125 C-1.30176986 5.17105873 -3.63586508 5.17855534 -5.96875 5.1328125 C-6.53125 3.1953125 -6.53125 3.1953125 -6.96875 1.1328125 C-5.16595809 -0.66997941 -2.42827299 0.00244645 0 0 Z " fill="#9F9DCD" transform="translate(105.96875,22.8671875)"/>
<path d="M0 0 C0.556875 0.144375 1.11375 0.28875 1.6875 0.4375 C2.8321875 0.7159375 2.8321875 0.7159375 4 1 C5.175625 1.309375 5.175625 1.309375 6.375 1.625 C9.02635231 2.14493773 9.02635231 2.14493773 11.75 1.5 C15.97558519 0.84990997 19.79396182 1.39246115 24 2 C23.34 3.65 22.68 5.3 22 7 C16.62694301 7.96891192 16.62694301 7.96891192 14 8 C12 6.5625 12 6.5625 11 5 C9.68 6.32 8.36 7.64 7 9 C6.67 8.34 6.34 7.68 6 7 C4.02 7.33 2.04 7.66 0 8 C-0.98120464 4.94736336 -0.98120464 3.05263664 0 0 Z " fill="#838383" transform="translate(74,257)"/>
<path d="M0 0 C0.53625 0.165 1.0725 0.33 1.625 0.5 C4.15902044 1.18398039 4.15902044 1.18398039 7.375 0.4375 C11.2656105 -0.03205644 13.42295538 0.51683516 17 2 C16.67 3.65 16.34 5.3 16 7 C7 7 7 7 4.0625 6.4375 C1.13574941 5.81625034 1.13574941 5.81625034 -1.125 6.5625 C-3.66674001 7.15557267 -4.82736912 6.31909732 -7 5 C-6.67 3.68 -6.34 2.36 -6 1 C-4.7934375 1.0309375 -4.7934375 1.0309375 -3.5625 1.0625 C-1.06645115 1.29633621 -1.06645115 1.29633621 0 0 Z " fill="#848484" transform="translate(402,258)"/>
<path d="M0 0 C-0.33 0.99 -0.66 1.98 -1 3 C-2.32 3 -3.64 3 -5 3 C-5 5.31 -5 7.62 -5 10 C-5.556875 9.814375 -6.11375 9.62875 -6.6875 9.4375 C-9.04649928 8.83461649 -9.04649928 8.83461649 -11.5625 9.5625 C-14 10 -14 10 -17 8 C-16.67 5.69 -16.34 3.38 -16 1 C-13.8973294 0.63705686 -11.79278943 0.28493028 -9.6875 -0.0625 C-8.51574219 -0.25972656 -7.34398438 -0.45695313 -6.13671875 -0.66015625 C-3 -1 -3 -1 0 0 Z " fill="#323230" transform="translate(77,240)"/>
<path d="M0 0 C0.66 0 1.32 0 2 0 C3.28317892 3.84953676 3.06643637 6.94738135 3 11 C2.195625 10.814375 1.39125 10.62875 0.5625 10.4375 C-0.283125 10.293125 -1.12875 10.14875 -2 10 C-2.33 10.33 -2.66 10.66 -3 11 C-4.99958364 11.04080783 -7.00045254 11.04254356 -9 11 C-10.125 4.25 -10.125 4.25 -9 2 C-7.329375 2.061875 -7.329375 2.061875 -5.625 2.125 C-1.95633975 2.41121859 -1.95633975 2.41121859 0 0 Z " fill="#9E9C9D" transform="translate(145,239)"/>
<path d="M0 0 C0.33 0.99 0.66 1.98 1 3 C0.01 3.66 -0.98 4.32 -2 5 C-2.72965366 7.56282742 -2.72965366 7.56282742 -3 10 C-3.78375 9.979375 -4.5675 9.95875 -5.375 9.9375 C-7.98114961 9.81315937 -7.98114961 9.81315937 -10 11 C-10.99 10.67 -11.98 10.34 -13 10 C-13 9.34 -13 8.68 -13 8 C-12.01 8 -11.02 8 -10 8 C-10 6.35 -10 4.7 -10 3 C-11.32 3 -12.64 3 -14 3 C-14 4.65 -14 6.3 -14 8 C-14.66 8 -15.32 8 -16 8 C-16 6.02 -16 4.04 -16 2 C-10.42932723 0.40837921 -5.78898419 -0.20674944 0 0 Z " fill="#666565" transform="translate(347,240)"/>
<path d="M0 0 C0.33 0.66 0.66 1.32 1 2 C3.52733235 2.65555119 3.52733235 2.65555119 6 3 C6 5.64 6 8.28 6 11 C5.34 11 4.68 11 4 11 C4 9.68 4 8.36 4 7 C3.01 7 2.02 7 1 7 C1 7.99 1 8.98 1 10 C1.66 10.33 2.32 10.66 3 11 C1.35 10.67 -0.3 10.34 -2 10 C-2.33 11.32 -2.66 12.64 -3 14 C-4.32 14.33 -5.64 14.66 -7 15 C-7 14.34 -7 13.68 -7 13 C-6.34 13 -5.68 13 -5 13 C-5 9.04 -5 5.08 -5 1 C-2 0 -2 0 0 0 Z " fill="#CECFCF" transform="translate(303,122)"/>
<path d="M0 0 C1.32 0 2.64 0 4 0 C4.66 1.98 5.32 3.96 6 6 C7.95216435 4.04783565 8.84826645 2.46800047 10 0 C10.99 0 11.98 0 13 0 C13 3.96 13 7.92 13 12 C12.34 12 11.68 12 11 12 C10.67 10.02 10.34 8.04 10 6 C9.34 7.98 8.68 9.96 8 12 C7.01 12 6.02 12 5 12 C4.67 10.68 4.34 9.36 4 8 C3.67 9.32 3.34 10.64 3 12 C2.01 12 1.02 12 0 12 C0 8.04 0 4.08 0 0 Z " fill="#3F3C3D" transform="translate(351,238)"/>
<path d="M0 0 C1.423125 0.2784375 1.423125 0.2784375 2.875 0.5625 C5.89868793 1.28686632 5.89868793 1.28686632 8 0 C11.08964007 0 13.99826387 0.13708469 17.0625 0.4375 C18.34833984 0.55931641 18.34833984 0.55931641 19.66015625 0.68359375 C22 1 22 1 25 2 C23.58480285 4.0343459 22.45017877 4.90410393 20.01953125 5.421875 C18.01823046 5.66273952 16.0090056 5.83532741 14 6 C14 5.01 14 4.02 14 3 C13.39671875 3.72316406 13.39671875 3.72316406 12.78125 4.4609375 C10.59151962 6.35294138 9.35441887 6.44422014 6.5 6.625 C3.69797885 6.82114148 1.70125455 7.09958182 -1 8 C-0.67 5.36 -0.34 2.72 0 0 Z " fill="#ACA9D7" transform="translate(175,22)"/>
<path d="M0 0 C1.258125 -0.020625 2.51625 -0.04125 3.8125 -0.0625 C4.52019531 -0.07410156 5.22789062 -0.08570312 5.95703125 -0.09765625 C8 0 8 0 11 1 C12.89212737 1.22179785 14.78884472 1.40614015 16.6875 1.5625 C17.68136719 1.64628906 18.67523438 1.73007812 19.69921875 1.81640625 C20.83810547 1.90728516 20.83810547 1.90728516 22 2 C21.01 3.32 20.02 4.64 19 6 C16.525 5.505 16.525 5.505 14 5 C13.67 5.66 13.34 6.32 13 7 C10.03 7 7.06 7 4 7 C4 6.34 4 5.68 4 5 C2.68 5.33 1.36 5.66 0 6 C0 4.02 0 2.04 0 0 Z " fill="#B1ACDC" transform="translate(150,21)"/>
<path d="M0 0 C5.28 0 10.56 0 16 0 C15.67 2.31 15.34 4.62 15 7 C10.05 7 5.1 7 0 7 C0 4.66666667 0 2.33333333 0 0 Z " fill="#C9C8E1" transform="translate(11,16)"/>
<path d="M0 0 C0.66 0 1.32 0 2 0 C2.04241723 2.33294775 2.04092937 4.66702567 2 7 C1 8 1 8 -1.4375 8.125 C-4 8 -4 8 -6 7 C-8.00109278 7.32670903 -10.00116131 7.65977214 -12 8 C-12.33 7.67 -12.66 7.34 -13 7 C-13 5.35 -13 3.7 -13 2 C-8.71 2 -4.42 2 0 2 C0 1.34 0 0.68 0 0 Z " fill="#838383" transform="translate(490,257)"/>
<path d="M0 0 C2.375 -0.1875 2.375 -0.1875 5 0 C7 3 7 3 7 6 C7.71027344 5.84402344 8.42054688 5.68804687 9.15234375 5.52734375 C10.07144531 5.33269531 10.99054688 5.13804687 11.9375 4.9375 C12.85402344 4.74027344 13.77054687 4.54304688 14.71484375 4.33984375 C15.84599609 4.17162109 15.84599609 4.17162109 17 4 C17.33 4.33 17.66 4.66 18 5 C18.66 4.34 19.32 3.68 20 3 C20 4.32 20 5.64 20 7 C16.17227184 7.63795469 12.57077935 8.05679385 8.6875 8 C5.17702205 7.72514998 5.17702205 7.72514998 3 9 C2.01 8.67 1.02 8.34 0 8 C0 5.36 0 2.72 0 0 Z " fill="#7E7E7E" transform="translate(297,257)"/>
<path d="M0 0 C3 1 3 1 4.6875 4.3125 C6 8 6 8 6 12 C5.01 12 4.02 12 3 12 C3 11.34 3 10.68 3 10 C2.4225 10.33 1.845 10.66 1.25 11 C-1 12 -1 12 -5 12 C-5 11.01 -5 10.02 -5 9 C-4.34 9 -3.68 9 -3 9 C-2.87625 8.071875 -2.7525 7.14375 -2.625 6.1875 C-2 3 -2 3 0 0 Z " fill="#474747" transform="translate(84,238)"/>
<path d="M0 0 C0 0.66 0 1.32 0 2 C0.66 2.33 1.32 2.66 2 3 C1.34 4.98 0.68 6.96 0 9 C0.66 9 1.32 9 2 9 C2 9.66 2 10.32 2 11 C-0.97 11 -3.94 11 -7 11 C-7 7.7 -7 4.4 -7 1 C-2.25 0 -2.25 0 0 0 Z " fill="#6F7171" transform="translate(123,239)"/>
<path d="M0 0 C6 0 6 0 8 1 C8.04241723 3.33294775 8.04092937 5.66702567 8 8 C7 9 7 9 4.4375 9.0625 C3.633125 9.041875 2.82875 9.02125 2 9 C2 10.32 2 11.64 2 13 C1.34 13 0.68 13 0 13 C0 8.71 0 4.42 0 0 Z " fill="#6D6E70" transform="translate(383,124)"/>
<path d="M0 0 C1.98 0 3.96 0 6 0 C6.66 0.66 7.32 1.32 8 2 C7.625 5.625 7.625 5.625 7 9 C5.35 9 3.7 9 2 9 C2 10.32 2 11.64 2 13 C1.34 13 0.68 13 0 13 C0 8.71 0 4.42 0 0 Z " fill="#646462" transform="translate(77,124)"/>
<path d="M0 0 C0.66 0.66 1.32 1.32 2 2 C3.32 2 4.64 2 6 2 C6 2.66 6 3.32 6 4 C5.38125 4.12375 4.7625 4.2475 4.125 4.375 C1.80879168 4.87197356 1.80879168 4.87197356 0 7 C-0.845625 6.62875 -1.69125 6.2575 -2.5625 5.875 C-6.72016164 4.81668613 -9.0199954 5.56719834 -13 7 C-13 5.02 -13 3.04 -13 1 C-11.18757948 0.97312721 -9.37504767 0.95366285 -7.5625 0.9375 C-6.55316406 0.92589844 -5.54382813 0.91429687 -4.50390625 0.90234375 C-2 1 -2 1 -1 2 C-0.67 1.34 -0.34 0.68 0 0 Z " fill="#D5D5D5" transform="translate(81,152)"/>
<path d="M0 0 C0.33 0.66 0.66 1.32 1 2 C3.31 1.34 5.62 0.68 8 0 C8.433125 0.495 8.86625 0.99 9.3125 1.5 C10.99740483 3.33218192 10.99740483 3.33218192 14 3 C13.67 3.99 13.34 4.98 13 6 C9.33694766 6.74926071 6.57644848 7.2380014 3 6 C3 5.01 3 4.02 3 3 C2.34 3 1.68 3 1 3 C0.67 4.32 0.34 5.64 0 7 C-1.65 7 -3.3 7 -5 7 C-4.34 6.34 -3.68 5.68 -3 5 C-3.66 4.67 -4.32 4.34 -5 4 C-5 3.01 -5 2.02 -5 1 C-3.35 0.67 -1.7 0.34 0 0 Z " fill="#ADAADE" transform="translate(222,21)"/>
<path d="M0 0 C0.66 0 1.32 0 2 0 C2 3.96 2 7.92 2 12 C0.02 12 -1.96 12 -4 12 C-6 10 -6 10 -6.25 7.5 C-6 5 -6 5 -4 3 C-2.68 3 -1.36 3 0 3 C0 2.01 0 1.02 0 0 Z " fill="#8E8D8A" transform="translate(32,121)"/>
<path d="M0 0 C0.66 0 1.32 0 2 0 C2.33 0.99 2.66 1.98 3 3 C3.66 2.01 4.32 1.02 5 0 C7.625 -0.1875 7.625 -0.1875 10 0 C10.68707555 2.49064888 11 4.37886292 11 7 C8.50935112 7.68707555 6.62113708 8 4 8 C3.01 8.495 3.01 8.495 2 9 C2 8.34 2 7.68 2 7 C1.34 7 0.68 7 0 7 C0 4.69 0 2.38 0 0 Z " fill="#858585" transform="translate(464,257)"/>
<path d="M0 0 C0.66 0 1.32 0 2 0 C2 3.96 2 7.92 2 12 C0.02 12 -1.96 12 -4 12 C-5 11 -5 11 -5.0625 7.4375 C-5.041875 6.303125 -5.02125 5.16875 -5 4 C-3.35 3.67 -1.7 3.34 0 3 C0 2.01 0 1.02 0 0 Z " fill="#605E5D" transform="translate(338,121)"/>
<path d="M0 0 C0.8353125 0.10828125 0.8353125 0.10828125 1.6875 0.21875 C6.8359445 0.84491217 11.81463038 1.09427945 17 1 C17 2.65 17 4.3 17 6 C15.20841511 6.02696365 13.41671527 6.04637917 11.625 6.0625 C10.62726563 6.07410156 9.62953125 6.08570313 8.6015625 6.09765625 C6 6 6 6 4 5 C4 4.34 4 3.68 4 3 C3.01 3 2.02 3 1 3 C0.67 3.99 0.34 4.98 0 6 C0 4.02 0 2.04 0 0 Z " fill="#CFCFCF" transform="translate(151,152)"/>
<path d="M0 0 C0.66 0 1.32 0 2 0 C2 1.65 2 3.3 2 5 C2.66 5 3.32 5 4 5 C4.33 3.68 4.66 2.36 5 1 C6.32 1 7.64 1 9 1 C9 1.66 9 2.32 9 3 C9.66 3 10.32 3 11 3 C11 3.66 11 4.32 11 5 C11.66 5 12.32 5 13 5 C13 4.01 13 3.02 13 2 C12.34 1.67 11.68 1.34 11 1 C12.32 1 13.64 1 15 1 C15.125 3.375 15.125 3.375 15 6 C14.34 6.66 13.68 7.32 13 8 C12.01 8 11.02 8 10 8 C9.67 7.34 9.34 6.68 9 6 C6.03 6 3.06 6 0 6 C0 4.02 0 2.04 0 0 Z " fill="#B1ADDF" transform="translate(82,22)"/>
<path d="M0 0 C2.31 0 4.62 0 7 0 C7.33 0.99 7.66 1.98 8 3 C6.35 2.67 4.7 2.34 3 2 C3 2.99 3 3.98 3 5 C4.32 5.33 5.64 5.66 7 6 C7.38218767 7.65614657 7.71395102 9.32457024 8 11 C7 12 7 12 3.9375 12.0625 C2.968125 12.041875 1.99875 12.02125 1 12 C0.34 10.68 -0.32 9.36 -1 8 C1.38564077 8.57584432 3.66682784 9.22227595 6 10 C4.06745228 7.9754262 2.36841312 6.57894208 0 5 C-0.1875 2.375 -0.1875 2.375 0 0 Z " fill="#3E3E3D" transform="translate(298,238)"/>
<path d="M0 0 C0.66 0 1.32 0 2 0 C2 1.65 2 3.3 2 5 C2.66 5 3.32 5 4 5 C4 3.35 4 1.7 4 0 C6.31 0 8.62 0 11 0 C11 0.99 11 1.98 11 3 C11.33 3.99 11.66 4.98 12 6 C8.26835686 6.87803368 4.83319229 7.17423601 1 7 C0 6 0 6 -0.0625 2.9375 C-0.041875 1.968125 -0.02125 0.99875 0 0 Z " fill="#777777" transform="translate(297,268)"/>
<path d="M0 0 C0.66 0 1.32 0 2 0 C2 0.66 2 1.32 2 2 C4.97 2 7.94 2 11 2 C10.375 4.4375 10.375 4.4375 9 7 C5.37536784 8.10314892 2.58521821 8.24103707 -1 7 C-1.04254356 5.00045254 -1.04080783 2.99958364 -1 1 C-0.67 0.67 -0.34 0.34 0 0 Z " fill="#8A8A8A" transform="translate(383,257)"/>
<path d="M0 0 C0.66 0 1.32 0 2 0 C2 0.66 2 1.32 2 2 C4.64 1.67 7.28 1.34 10 1 C10.33 1.66 10.66 2.32 11 3 C10.01 4.32 9.02 5.64 8 7 C7.34 6.34 6.68 5.68 6 5 C3.22003893 5 0.57507433 5.21297929 -2.1875 5.5 C-3.53908203 5.63921875 -3.53908203 5.63921875 -4.91796875 5.78125 C-5.60503906 5.8534375 -6.29210937 5.925625 -7 6 C-7.66 4.68 -8.32 3.36 -9 2 C-6.03 2 -3.06 2 0 2 C0 1.34 0 0.68 0 0 Z " fill="#858585" transform="translate(311,257)"/>
<path d="M0 0 C0.99 0 1.98 0 3 0 C3 0.66 3 1.32 3 2 C5.64 2 8.28 2 11 2 C10.34 4.31 9.68 6.62 9 9 C8.67 8.34 8.34 7.68 8 7 C7.4225 7.37125 6.845 7.7425 6.25 8.125 C4 9 4 9 1.75 8.125 C1.1725 7.75375 0.595 7.3825 0 7 C0 4.69 0 2.38 0 0 Z " fill="#848486" transform="translate(183,257)"/>
<path d="M0 0 C4.55555556 0.55555556 4.55555556 0.55555556 6 2 C6.125 5 6.125 5 6 8 C5 9 5 9 2.5625 9.1875 C0 9 0 9 -2 7 C-2.25 4.5 -2.25 4.5 -2 2 C-1.34 1.34 -0.68 0.68 0 0 Z " fill="#757471" transform="translate(375,124)"/>
<path d="M0 0 C4.70588235 0.70588235 4.70588235 0.70588235 6 2 C6.125 5 6.125 5 6 8 C5 9 5 9 2.5625 9.1875 C0 9 0 9 -2 7 C-1.43181818 1.43181818 -1.43181818 1.43181818 0 0 Z " fill="#71716E" transform="translate(69,124)"/>
<path d="M0 0 C2.625 0.375 2.625 0.375 5 1 C5.79953138 4.28696233 6.09658936 5.71023192 5 9 C2.625 9.125 2.625 9.125 0 9 C-2 7 -2 7 -2.25 4.5 C-2 2 -2 2 0 0 Z " fill="#4F4D4C" transform="translate(38,124)"/>
<path d="M0 0 C0.99 0.33 1.98 0.66 3 1 C2.34 2.98 1.68 4.96 1 7 C1.99 7 2.98 7 4 7 C4 5.02 4 3.04 4 1 C4.66 1 5.32 1 6 1 C6.02687279 2.81242052 6.04633715 4.62495233 6.0625 6.4375 C6.07410156 7.44683594 6.08570313 8.45617187 6.09765625 9.49609375 C6 12 6 12 5 13 C3.33382885 13.04063832 1.66611905 13.042721 0 13 C-0.19397476 11.02145742 -0.38001321 9.0421352 -0.5625 7.0625 C-0.66691406 5.96035156 -0.77132813 4.85820312 -0.87890625 3.72265625 C-0.91886719 2.82417969 -0.95882813 1.92570313 -1 1 C-0.67 0.67 -0.34 0.34 0 0 Z " fill="#393637" transform="translate(395,241)"/>
<path d="M0 0 C2.64 0 5.28 0 8 0 C8 2.97 8 5.94 8 9 C7.01 9 6.02 9 5 9 C5 6.69 5 4.38 5 2 C4.34 2 3.68 2 3 2 C3 4.31 3 6.62 3 9 C2.01 9 1.02 9 0 9 C0 6.03 0 3.06 0 0 Z " fill="#414141" transform="translate(317,241)"/>
<path d="M0 0 C2.31 0 4.62 0 7 0 C7 2.97 7 5.94 7 9 C4.69 9 2.38 9 0 9 C0 7.35 0 5.7 0 4 C0.66 3.67 1.32 3.34 2 3 C1.34 2.67 0.68 2.34 0 2 C0 1.34 0 0.68 0 0 Z " fill="#423F3F" transform="translate(385,241)"/>
<path d="M0 0 C2.625 0.375 2.625 0.375 5 1 C5.79953138 4.28696233 6.09658936 5.71023192 5 9 C2.69 8.67 0.38 8.34 -2 8 C-2.125 5.125 -2.125 5.125 -2 2 C-1.34 1.34 -0.68 0.68 0 0 Z " fill="#535251" transform="translate(362,124)"/>
<path d="M0 0 C2.31 0 4.62 0 7 0 C8.4783226 2.95664519 8.06032783 5.74229737 8 9 C7.01 9 6.02 9 5 9 C5 6.69 5 4.38 5 2 C4.34 2 3.68 2 3 2 C3 4.31 3 6.62 3 9 C2.01 9 1.02 9 0 9 C0 6.03 0 3.06 0 0 Z " fill="#3C3E3D" transform="translate(375,241)"/>
<path d="M0 0 C3.62528568 -0.20140476 5.86501708 0.14223235 9 2 C8.67 3.65 8.34 5.3 8 7 C5.6739143 7.38063221 3.33944736 7.71269945 1 8 C0 7 0 7 -0.0625 3.4375 C-0.041875 2.303125 -0.02125 1.16875 0 0 Z " fill="#BDBCBD" transform="translate(297,175)"/>
<path d="M0 0 C-0.33 0.99 -0.66 1.98 -1 3 C-2.32 3 -3.64 3 -5 3 C-5 5.31 -5 7.62 -5 10 C-5.99 10 -6.98 10 -8 10 C-8.66 7.03 -9.32 4.06 -10 1 C-3.375 -1.125 -3.375 -1.125 0 0 Z " fill="#9C9D9C" transform="translate(77,240)"/>
<path d="M0 0 C4.875 0.875 4.875 0.875 6 2 C6.04092937 4.33297433 6.04241723 6.66705225 6 9 C3.69 9 1.38 9 -1 9 C-1.33 7.68 -1.66 6.36 -2 5 C-0.35 4.67 1.3 4.34 3 4 C3 3.34 3 2.68 3 2 C1.68 2.33 0.36 2.66 -1 3 C-0.67 2.01 -0.34 1.02 0 0 Z " fill="#414143" transform="translate(321,124)"/>
<path d="M0 0 C1.98 0 3.96 0 6 0 C6.33 0.99 6.66 1.98 7 3 C4.03 2.505 4.03 2.505 1 2 C1.88289387 4.25929199 1.88289387 4.25929199 4.5625 5.3125 C5.366875 5.869375 6.17125 6.42625 7 7 C7.3125 9.6875 7.3125 9.6875 7 12 C4.69 12 2.38 12 0 12 C-0.33 11.01 -0.66 10.02 -1 9 C1.97 9.495 1.97 9.495 5 10 C2.9927092 6.9890638 2.16115776 6.36983503 -1 5 C-0.67 3.35 -0.34 1.7 0 0 Z " fill="#323232" transform="translate(28,238)"/>
<path d="M0 0 C2.37575856 0.46195305 4.72681217 0.92549423 7.0625 1.5625 C9.31924716 2.14684058 9.31924716 2.14684058 13 2 C13 3.65 13 5.3 13 7 C8.12335991 7.34833144 5.22949995 6.41685712 1 4 C0.67 4.66 0.34 5.32 0 6 C0 4.02 0 2.04 0 0 Z " fill="#CECDCE" transform="translate(297,141)"/>
<path d="M0 0 C2.5625 0.1875 2.5625 0.1875 4.5625 2.1875 C4.5625 3.1775 4.5625 4.1675 4.5625 5.1875 C2.9125 5.5175 1.2625 5.8475 -0.4375 6.1875 C0.8825 6.1875 2.2025 6.1875 3.5625 6.1875 C3.2325 7.1775 2.9025 8.1675 2.5625 9.1875 C-0.4075 8.6925 -0.4075 8.6925 -3.4375 8.1875 C-3.47991723 5.85455225 -3.47842937 3.52047433 -3.4375 1.1875 C-2.4375 0.1875 -2.4375 0.1875 0 0 Z " fill="#424143" transform="translate(40.4375,240.8125)"/>
<path d="M0 0 C1.66611905 -0.042721 3.33382885 -0.04063832 5 0 C6 1 6 1 6.09765625 2.84765625 C6.06510417 4.8984375 6.03255208 6.94921875 6 9 C3.69 9 1.38 9 -1 9 C-1 7.35 -1 5.7 -1 4 C-0.34 3.67 0.32 3.34 1 3 C0.67 2.01 0.34 1.02 0 0 Z " fill="#2C2C2B" transform="translate(367,241)"/>
<path d="M0 0 C1.97909398 -0.02686553 3.95828971 -0.04633375 5.9375 -0.0625 C7.03964844 -0.07410156 8.14179687 -0.08570312 9.27734375 -0.09765625 C12 0 12 0 13 1 C15.05396726 0.59070014 15.05396726 0.59070014 17 0 C17 1.65 17 3.3 17 5 C13.13427143 5.07434093 9.72072734 5.06306495 6 4 C5.01 4 4.02 4 3 4 C1.3125 2 1.3125 2 0 0 Z " fill="#ADAAD8" transform="translate(115,23)"/>
<path d="M0 0 C0.7425 0.598125 1.485 1.19625 2.25 1.8125 C2.25 2.8025 2.25 3.7925 2.25 4.8125 C0.91666667 5.14583333 -0.41666667 5.47916667 -1.75 5.8125 C-2.45125 6.01875 -3.1525 6.225 -3.875 6.4375 C-5.75 6.8125 -5.75 6.8125 -7.75 5.8125 C-7.27066116 1.25878099 -7.27066116 1.25878099 -5 -0.6875 C-2.75 -1.1875 -2.75 -1.1875 0 0 Z M-10.75 5.8125 C-7.75 6.8125 -7.75 6.8125 -7.75 6.8125 Z " fill="#838383" transform="translate(125.75,258.1875)"/>
<path d="M0 0 C2.375 -0.125 2.375 -0.125 5 0 C7 2 7 2 7 5 C5.35 5.33 3.7 5.66 2 6 C3.32 6 4.64 6 6 6 C5.67 6.99 5.34 7.98 5 9 C3.35 9 1.7 9 0 9 C-1.125 2.25 -1.125 2.25 0 0 Z " fill="#3C3C3C" transform="translate(127,241)"/>
<path d="M0 0 C0.99 0.495 0.99 0.495 2 1 C1.67 1.66 1.34 2.32 1 3 C1.66 3 2.32 3 3 3 C3 2.01 3 1.02 3 0 C7.29 0 11.58 0 16 0 C15.67 1.32 15.34 2.64 15 4 C10.05 4 5.1 4 0 4 C0 2.68 0 1.36 0 0 Z " fill="#C9C9C9" transform="translate(454,192)"/>
<path d="M0 0 C0.90492188 0.10828125 0.90492188 0.10828125 1.828125 0.21875 C3.02695312 0.35796875 3.02695312 0.35796875 4.25 0.5 C5.03890625 0.5928125 5.8278125 0.685625 6.640625 0.78125 C9.26890397 1.06154619 9.26890397 1.06154619 13 1 C13 2.32 13 3.64 13 5 C11.68 5 10.36 5 9 5 C9 4.34 9 3.68 9 3 C8.34 3 7.68 3 7 3 C7 3.66 7 4.32 7 5 C4.36 5 1.72 5 -1 5 C-0.67 3.35 -0.34 1.7 0 0 Z " fill="#D3D3D3" transform="translate(384,153)"/>
<path d="M0 0 C2.625 0.375 2.625 0.375 5 1 C5.33 2.32 5.66 3.64 6 5 C4.35 5.33 2.7 5.66 1 6 C2.32 6 3.64 6 5 6 C4.67 6.99 4.34 7.98 4 9 C2.35 9 0.7 9 -1 9 C-1.625 5.625 -1.625 5.625 -2 2 C-1.34 1.34 -0.68 0.68 0 0 Z " fill="#414141" transform="translate(310,241)"/>
<path d="M0 0 C2.625 0.375 2.625 0.375 5 1 C5.33 2.32 5.66 3.64 6 5 C4.35 5 2.7 5 1 5 C1 5.66 1 6.32 1 7 C2.32 7 3.64 7 5 7 C5 7.66 5 8.32 5 9 C2.625 9.125 2.625 9.125 0 9 C-2 7 -2 7 -2.25 4.5 C-2 2 -2 2 0 0 Z " fill="#565555" transform="translate(344,124)"/>
<path d="M0 0 C1.3921875 0.2784375 1.3921875 0.2784375 2.8125 0.5625 C6.01343771 1.24123881 6.01343771 1.24123881 9 0 C9 1.65 9 3.3 9 5 C6.36 4.34 3.72 3.68 1 3 C1 5.64 1 8.28 1 11 C-0.32 11.33 -1.64 11.66 -3 12 C-3 9.69 -3 7.38 -3 5 C-2.34 5 -1.68 5 -1 5 C-1 4.34 -1 3.68 -1 3 C-2.32 2.67 -3.64 2.34 -5 2 C-3.35 2 -1.7 2 0 2 C0 1.34 0 0.68 0 0 Z " fill="#A0A0A0" transform="translate(97,238)"/>
<path d="M0 0 C1.2065625 0.0309375 1.2065625 0.0309375 2.4375 0.0625 C2.7675 1.7125 3.0975 3.3625 3.4375 5.0625 C1.7875 5.0625 0.1375 5.0625 -1.5625 5.0625 C-1.5625 5.7225 -1.5625 6.3825 -1.5625 7.0625 C-0.2425 7.0625 1.0775 7.0625 2.4375 7.0625 C2.4375 7.7225 2.4375 8.3825 2.4375 9.0625 C-2.3125 8.3125 -2.3125 8.3125 -4.5625 6.0625 C-3.83457637 0.09352625 -3.83457637 0.09352625 0 0 Z " fill="#3C3B3B" transform="translate(407.5625,240.9375)"/>
<path d="M0 0 C2.33294775 -0.04241723 4.66702567 -0.04092937 7 0 C8 1 8 1 8.09765625 2.84765625 C8.04882812 5.92382812 8.04882812 5.92382812 8 9 C7.01 9 6.02 9 5 9 C5 6.69 5 4.38 5 2 C4.01 2 3.02 2 2 2 C2 4.31 2 6.62 2 9 C1.34 9 0.68 9 0 9 C0 6.03 0 3.06 0 0 Z " fill="#3A3B3D" transform="translate(46,241)"/>
<path d="M0 0 C0.33 0.66 0.66 1.32 1 2 C2.32 1.34 3.64 0.68 5 0 C5 1.65 5 3.3 5 5 C-4.41002278 5.18451025 -4.41002278 5.18451025 -9 4 C-8 1 -8 1 -6.1875 -0.25 C-3.63120395 -1.12644436 -2.47718997 -1.02504413 0 0 Z " fill="#D2D2D2" transform="translate(59,153)"/>
<path d="M0 0 C0.66 0 1.32 0 2 0 C2.33 1.65 2.66 3.3 3 5 C3.33 4.34 3.66 3.68 4 3 C5.98 3 7.96 3 10 3 C10 4.65 10 6.3 10 8 C6.7 8 3.4 8 0 8 C-0.79953138 4.71303767 -1.09658936 3.28976808 0 0 Z " fill="#A0A19F" transform="translate(37,185)"/>
<path d="M0 0 C2.00720923 0.28674418 4.0085944 0.61866701 6 1 C6 2.32 6 3.64 6 5 C4.35 5 2.7 5 1 5 C1 5.66 1 6.32 1 7 C2.65 7 4.3 7 6 7 C5.67 7.66 5.34 8.32 5 9 C3.33388095 9.042721 1.66617115 9.04063832 0 9 C-1 8 -1 8 -1.125 4.5 C-1 1 -1 1 0 0 Z " fill="#414141" transform="translate(88,124)"/>
<path d="M0 0 C2.64 0.33 5.28 0.66 8 1 C7.360625 1.309375 6.72125 1.61875 6.0625 1.9375 C4.06389179 2.8345163 4.06389179 2.8345163 3 4 C2.95919217 5.99958364 2.95745644 8.00045254 3 10 C1.68 10.33 0.36 10.66 -1 11 C-1 9.35 -1 7.7 -1 6 C-2.32 5.34 -3.64 4.68 -5 4 C-5 3.01 -5 2.02 -5 1 C-2.525 1.495 -2.525 1.495 0 2 C0 1.34 0 0.68 0 0 Z " fill="#9B9A9A" transform="translate(306,239)"/>
<path d="M0 0 C0.33 0 0.66 0 1 0 C1 2.31 1 4.62 1 7 C-1.97 7 -4.94 7 -8 7 C-8 6.34 -8 5.68 -8 5 C-9.65 5.33 -11.3 5.66 -13 6 C-12.67 4.68 -12.34 3.36 -12 2 C-10.35 2.33 -8.7 2.66 -7 3 C-7 3.99 -7 4.98 -7 6 C-6.34 6 -5.68 6 -5 6 C-4.67 5.01 -4.34 4.02 -4 3 C-1.9375 2.3125 -1.9375 2.3125 0 2 C0 1.34 0 0.68 0 0 Z " fill="#CCCCCC" transform="translate(321,200)"/>
<path d="M0 0 C0.33 1.32 0.66 2.64 1 4 C-0.65 4 -2.3 4 -4 4 C-4 4.66 -4 5.32 -4 6 C-2.35 6 -0.7 6 1 6 C0.67 6.66 0.34 7.32 0 8 C-1.66611905 8.042721 -3.33382885 8.04063832 -5 8 C-6 7 -6 7 -6.0625 3.4375 C-6.041875 2.303125 -6.02125 1.16875 -6 0 C-3.50907189 -1.24546405 -2.58919267 -0.7767578 0 0 Z " fill="#403F40" transform="translate(399,125)"/>
<path d="M0 0 C0.33 1.32 0.66 2.64 1 4 C-0.65 4 -2.3 4 -4 4 C-4 4.66 -4 5.32 -4 6 C-2.35 6 -0.7 6 1 6 C0.67 6.66 0.34 7.32 0 8 C-1.66611905 8.042721 -3.33382885 8.04063832 -5 8 C-6 7 -6 7 -6.0625 3.4375 C-6.041875 2.303125 -6.02125 1.16875 -6 0 C-3.50907189 -1.24546405 -2.58919267 -0.7767578 0 0 Z " fill="#515051" transform="translate(60,125)"/>
<path d="M0 0 C0.99 0 1.98 0 3 0 C3 3.96 3 7.92 3 12 C2.34 12 1.68 12 1 12 C0.67 10.02 0.34 8.04 0 6 C-0.66 7.98 -1.32 9.96 -2 12 C-2.66 12 -3.32 12 -4 12 C-3.33989524 9.15449988 -2.48275034 6.47674001 -1.4375 3.75 C-1.16808594 3.04359375 -0.89867187 2.3371875 -0.62109375 1.609375 C-0.41613281 1.07828125 -0.21117187 0.5471875 0 0 Z " fill="#31302F" transform="translate(361,238)"/>
<path d="M0 0 C1.6396875 0.2475 1.6396875 0.2475 3.3125 0.5 C6.87525873 1.06718184 6.87525873 1.06718184 10 1 C9.34 2.32 8.68 3.64 8 5 C8 4.34 8 3.68 8 3 C7.34 3 6.68 3 6 3 C5.67 3.66 5.34 4.32 5 5 C5.66 5.33 6.32 5.66 7 6 C6.01 6 5.02 6 4 6 C3.67 5.34 3.34 4.68 3 4 C2.67 4.66 2.34 5.32 2 6 C0.35 5.67 -1.3 5.34 -3 5 C-3 4.01 -3 3.02 -3 2 C-3.66 2 -4.32 2 -5 2 C-5.33 2.99 -5.66 3.98 -6 5 C-6 3.68 -6 2.36 -6 1 C-3.525 1.495 -3.525 1.495 -1 2 C-0.67 1.34 -0.34 0.68 0 0 Z " fill="#CBCBCB" transform="translate(134,142)"/>
<path d="M0 0 C2.015625 0.12109375 2.015625 0.12109375 4 1 C5.046875 2.84765625 5.046875 2.84765625 5.75 5.0625 C5.99234375 5.79597656 6.2346875 6.52945313 6.484375 7.28515625 C6.65453125 7.85105469 6.8246875 8.41695312 7 9 C4.36 8.34 1.72 7.68 -1 7 C-1.625 4.625 -1.625 4.625 -2 2 C-1.34 1.34 -0.68 0.68 0 0 Z " fill="#C2C2C2" transform="translate(37,80)"/>
<path d="M0 0 C4.95 0 9.9 0 15 0 C15 0.99 15 1.98 15 3 C10.05 3 5.1 3 0 3 C0 2.01 0 1.02 0 0 Z " fill="#CFCEE8" transform="translate(11,26)"/>
<path d="M0 0 C1.98 0 3.96 0 6 0 C6.33 0.99 6.66 1.98 7 3 C5.35 2.67 3.7 2.34 2 2 C2 3.65 2 5.3 2 7 C3.32 6.67 4.64 6.34 6 6 C6 6.99 6 7.98 6 9 C4.35 9.33 2.7 9.66 1 10 C-0.80411967 7.24075815 -1.0127245 6.11027897 -0.625 2.75 C-0.41875 1.8425 -0.2125 0.935 0 0 Z " fill="#424141" transform="translate(98,241)"/>
<path d="M0 0 C0.33 0.99 0.66 1.98 1 3 C1.804375 2.979375 2.60875 2.95875 3.4375 2.9375 C6 3 6 3 7 4 C7.14115161 6.67058851 7.04247107 9.32432238 7 12 C6.34 12 5.68 12 5 12 C5 9.69 5 7.38 5 5 C4.01 5 3.02 5 2 5 C2 7.31 2 9.62 2 12 C1.34 12 0.68 12 0 12 C0 8.04 0 4.08 0 0 Z " fill="#333433" transform="translate(107,238)"/>
<path d="M0 0 C0.33 0.66 0.66 1.32 1 2 C2.65 1.34 4.3 0.68 6 0 C6 1.98 6 3.96 6 6 C2.7 6 -0.6 6 -4 6 C-3.67 4.35 -3.34 2.7 -3 1 C-2.01 0.67 -1.02 0.34 0 0 Z " fill="#D0D0D0" transform="translate(301,152)"/>
<path d="M0 0 C1.67542976 0.28604898 3.34385343 0.61781233 5 1 C4.34 2.32 3.68 3.64 3 5 C3 4.34 3 3.68 3 3 C2.34 3 1.68 3 1 3 C0.67 3.66 0.34 4.32 0 5 C-0.66 5 -1.32 5 -2 5 C-2 4.34 -2 3.68 -2 3 C-2.66 3 -3.32 3 -4 3 C-4.66 3.66 -5.32 4.32 -6 5 C-6.66 5 -7.32 5 -8 5 C-8 4.01 -8 3.02 -8 2 C-8.66 2 -9.32 2 -10 2 C-10 2.99 -10 3.98 -10 5 C-10.99 5 -11.98 5 -13 5 C-12.67 3.68 -12.34 2.36 -12 1 C-11.21753906 1.01160156 -10.43507813 1.02320313 -9.62890625 1.03515625 C-8.61699219 1.04417969 -7.60507812 1.05320313 -6.5625 1.0625 C-5.04849609 1.07990234 -5.04849609 1.07990234 -3.50390625 1.09765625 C-1.05978933 1.28612676 -1.05978933 1.28612676 0 0 Z " fill="#CBCBCB" transform="translate(442,142)"/>
<path d="M0 0 C1.98 0 3.96 0 6 0 C5.67 0.99 5.34 1.98 5 3 C4.01 2.67 3.02 2.34 2 2 C2 3.65 2 5.3 2 7 C3.32 6.67 4.64 6.34 6 6 C6 6.99 6 7.98 6 9 C4.02 9 2.04 9 0 9 C-1.125 2.25 -1.125 2.25 0 0 Z " fill="#343332" transform="translate(136,241)"/>
<path d="M0 0 C1.32 0.33 2.64 0.66 4 1 C3.01 1 2.02 1 1 1 C1 1.66 1 2.32 1 3 C3.64 2.67 6.28 2.34 9 2 C9.33 2.66 9.66 3.32 10 4 C9.67 4.99 9.34 5.98 9 7 C6.03 7 3.06 7 0 7 C0 4.69 0 2.38 0 0 Z " fill="#CCCAC9" transform="translate(26,141)"/>
<path d="M0 0 C0.66 0 1.32 0 2 0 C2 0.66 2 1.32 2 2 C2.763125 2 3.52625 2 4.3125 2 C10 2 10 2 13 4 C12.01 4 11.02 4 10 4 C9.67 4.99 9.34 5.98 9 7 C6.9375 7.6875 6.9375 7.6875 5 8 C4.731875 7.401875 4.46375 6.80375 4.1875 6.1875 C3.01373338 4.02529834 1.76393777 2.68375878 0 1 C0 0.67 0 0.34 0 0 Z " fill="#898989" transform="translate(40,257)"/>
<path d="M0 0 C0.33 0.66 0.66 1.32 1 2 C0.34 2 -0.32 2 -1 2 C-1 2.66 -1 3.32 -1 4 C-0.34 4.33 0.32 4.66 1 5 C0.2575 4.79375 -0.485 4.5875 -1.25 4.375 C-4.36917451 3.94965802 -5.35456158 4.44922575 -8 6 C-8.66 6 -9.32 6 -10 6 C-10 4.35 -10 2.7 -10 1 C-6.52674819 -0.1577506 -3.63932552 -0.06866652 0 0 Z " fill="#C8C8C8" transform="translate(84,202)"/>
<path d="M0 0 C0.66 0 1.32 0 2 0 C2.33 0.66 2.66 1.32 3 2 C4.32 1.34 5.64 0.68 7 0 C6.34 2.97 5.68 5.94 5 9 C3.68 8.67 2.36 8.34 1 8 C0.67 5.36 0.34 2.72 0 0 Z " fill="#52514F" transform="translate(311,124)"/>
<path d="M0 0 C0 2.64 0 5.28 0 8 C-0.66 8 -1.32 8 -2 8 C-2 6.68 -2 5.36 -2 4 C-2.99 4 -3.98 4 -5 4 C-5 4.99 -5 5.98 -5 7 C-4.34 7.33 -3.68 7.66 -3 8 C-4.32 7.67 -5.64 7.34 -7 7 C-6.67 5.68 -6.34 4.36 -6 3 C-4.68 3 -3.36 3 -2 3 C-2 2.34 -2 1.68 -2 1 C-3.65 1.33 -5.3 1.66 -7 2 C-7 1.34 -7 0.68 -7 0 C-4.3333581 -1.33332095 -2.83319697 -0.67102033 0 0 Z " fill="#3D3E3F" transform="translate(309,125)"/>
<path d="M0 0 C2.31 0.33 4.62 0.66 7 1 C7 2.32 7 3.64 7 5 C4.35261084 6.4606285 3.10551666 7 0 7 C0 4.69 0 2.38 0 0 Z " fill="#808080" transform="translate(421,259)"/>
<path d="M0 0 C0.66 0 1.32 0 2 0 C2.33 0.66 2.66 1.32 3 2 C3.99 1.34 4.98 0.68 6 0 C7.32 0 8.64 0 10 0 C10 1.65 10 3.3 10 5 C6.37 5 2.74 5 -1 5 C-1 2 -1 2 0 0 Z " fill="#D2D2D2" transform="translate(312,153)"/>
<path d="M0 0 C0.33 0 0.66 0 1 0 C1 2.31 1 4.62 1 7 C-1.31 7 -3.62 7 -6 7 C-6 5.02 -6 3.04 -6 1 C-4.7934375 1.0309375 -4.7934375 1.0309375 -3.5625 1.0625 C-1.06645115 1.29633621 -1.06645115 1.29633621 0 0 Z " fill="#7F7F7F" transform="translate(202,257)"/>
<path d="M0 0 C1.134375 0.020625 2.26875 0.04125 3.4375 0.0625 C2.4475 0.5575 2.4475 0.5575 1.4375 1.0625 C1.4375 2.0525 1.4375 3.0425 1.4375 4.0625 C2.0975 4.3925 2.7575 4.7225 3.4375 5.0625 C0.4375 7.0625 0.4375 7.0625 -1.75 6.6875 C-2.348125 6.48125 -2.94625 6.275 -3.5625 6.0625 C-3.94468767 4.40635343 -4.27645102 2.73792976 -4.5625 1.0625 C-3.5625 0.0625 -3.5625 0.0625 0 0 Z " fill="#929191" transform="translate(62.5625,187.9375)"/>
<path d="M0 0 C2.64 0 5.28 0 8 0 C7.01 0.33 6.02 0.66 5 1 C5.66 1.33 6.32 1.66 7 2 C7.625 4.5625 7.625 4.5625 8 7 C6.68 7 5.36 7 4 7 C4 6.34 4 5.68 4 5 C2.68 5.33 1.36 5.66 0 6 C0 4.02 0 2.04 0 0 Z " fill="#9891C8" transform="translate(150,21)"/>
<path d="M0 0 C0.66 0.33 1.32 0.66 2 1 C2.639375 0.835 3.27875 0.67 3.9375 0.5 C6 0 6 0 9 1 C8.67 1.99 8.34 2.98 8 4 C2.25 5.125 2.25 5.125 0 4 C-0.99 4.495 -0.99 4.495 -2 5 C-2.99 4.67 -3.98 4.34 -5 4 C-4.34 4 -3.68 4 -3 4 C-3 3.01 -3 2.02 -3 1 C-2.01 0.67 -1.02 0.34 0 0 Z " fill="#C7C7C7" transform="translate(189,202)"/>
<path d="M0 0 C0.33 1.32 0.66 2.64 1 4 C-0.8542837 4 -2.70876759 3.98271299 -4.5625 3.9375 C-7.00907507 3.82781247 -7.00907507 3.82781247 -9 5 C-9 3.35 -9 1.7 -9 0 C-5.52176885 -1.15941038 -3.54104422 -0.70820884 0 0 Z " fill="#D2D2D2" transform="translate(60,203)"/>
<path d="M0 0 C2.97 0 5.94 0 9 0 C9 1.98 9 3.96 9 6 C7.68 6 6.36 6 5 6 C5 5.34 5 4.68 5 4 C4.34 4 3.68 4 3 4 C3 3.01 3 2.02 3 1 C2.34 1 1.68 1 1 1 C0.67 1.99 0.34 2.98 0 4 C0 2.68 0 1.36 0 0 Z " fill="#D2D2D2" transform="translate(419,143)"/>
<path d="M0 0 C0.99 0 1.98 0 3 0 C3.33 1.32 3.66 2.64 4 4 C4.33 2.68 4.66 1.36 5 0 C5.66 0 6.32 0 7 0 C6.67 2.64 6.34 5.28 6 8 C4.68 8 3.36 8 2 8 C1.34 5.36 0.68 2.72 0 0 Z " fill="#4B4A4A" transform="translate(351,124)"/>
<path d="M0 0 C0.66 0 1.32 0 2 0 C2 0.66 2 1.32 2 2 C2.99 2 3.98 2 5 2 C5.33 1.34 5.66 0.68 6 0 C6.66 0 7.32 0 8 0 C8 2.31 8 4.62 8 7 C7.01 7.495 7.01 7.495 6 8 C6 7.34 6 6.68 6 6 C5.34 6 4.68 6 4 6 C4 5.01 4 4.02 4 3 C3.34 3 2.68 3 2 3 C2 3.99 2 4.98 2 6 C1.34 6 0.68 6 0 6 C0 4.02 0 2.04 0 0 Z " fill="#A9A5D8" transform="translate(44,22)"/>
<path d="M0 0 C2.31 0.33 4.62 0.66 7 1 C7 1.99 7 2.98 7 4 C7.66 4 8.32 4 9 4 C9 4.66 9 5.32 9 6 C6.03 6 3.06 6 0 6 C0 4.02 0 2.04 0 0 Z " fill="#7B7B7B" transform="translate(26,259)"/>
<path d="M0 0 C0.66 0.33 1.32 0.66 2 1 C2 2.32 2 3.64 2 5 C4.46326712 6.6446674 4.46326712 6.6446674 7 8 C7 8.66 7 9.32 7 10 C6.21625 9.979375 5.4325 9.95875 4.625 9.9375 C2.01885039 9.81315937 2.01885039 9.81315937 0 11 C-1.28571429 3.57142857 -1.28571429 3.57142857 0 0 Z " fill="#989695" transform="translate(26,238)"/>
<path d="M0 0 C1.32 0 2.64 0 4 0 C4 0.66 4 1.32 4 2 C3.01 2 2.02 2 1 2 C1 3.65 1 5.3 1 7 C2.32 7 3.64 7 5 7 C5 5.68 5 4.36 5 3 C5.99 3.33 6.98 3.66 8 4 C7.67 5.32 7.34 6.64 7 8 C4.36 8 1.72 8 -1 8 C-1.04241723 5.66705225 -1.04092937 3.33297433 -1 1 C-0.67 0.67 -0.34 0.34 0 0 Z " fill="#8E8D8B" transform="translate(27,185)"/>
<path d="M0 0 C0.66 0 1.32 0 2 0 C2 3.63 2 7.26 2 11 C1.34 11 0.68 11 0 11 C0 9.02 0 7.04 0 5 C-0.99 5 -1.98 5 -3 5 C-3 6.65 -3 8.3 -3 10 C-3.33 10 -3.66 10 -4 10 C-4.33 8.02 -4.66 6.04 -5 4 C-3.35 3.67 -1.7 3.34 0 3 C0 2.01 0 1.02 0 0 Z " fill="#313C3E" transform="translate(32,121)"/>
<path d="M0 0 C1.69141656 0.08963062 3.37959602 0.24577676 5.0625 0.4375 C6.44115234 0.59025391 6.44115234 0.59025391 7.84765625 0.74609375 C8.55792969 0.82988281 9.26820312 0.91367188 10 1 C9.01 1.495 9.01 1.495 8 2 C8 3.32 8 4.64 8 6 C7.34 6 6.68 6 6 6 C6 4.68 6 3.36 6 2 C5.34 2 4.68 2 4 2 C3.67 2.99 3.34 3.98 3 5 C2.67 4.67 2.34 4.34 2 4 C1.01 4.33 0.02 4.66 -1 5 C-1 1 -1 1 0 0 Z " fill="#CCCCCC" transform="translate(40,153)"/>
<path d="M0 0 C2.97 0.495 2.97 0.495 6 1 C6 2.65 6 4.3 6 6 C3.625 6.125 3.625 6.125 1 6 C0.34 5.34 -0.32 4.68 -1 4 C-0.625 1.875 -0.625 1.875 0 0 Z " fill="#7F7F7F" transform="translate(396,259)"/>
<path d="M0 0 C1.98 0 3.96 0 6 0 C6.33 1.65 6.66 3.3 7 5 C2.25 6.125 2.25 6.125 0 5 C0 3.35 0 1.7 0 0 Z " fill="#828282" transform="translate(455,259)"/>
<path d="M0 0 C0 1.98 0 3.96 0 6 C-2.97 5.505 -2.97 5.505 -6 5 C-6 4.34 -6 3.68 -6 3 C-6.66 3 -7.32 3 -8 3 C-8.33 3.99 -8.66 4.98 -9 6 C-8.67 4.35 -8.34 2.7 -8 1 C-6.68 1 -5.36 1 -4 1 C-1 0 -1 0 0 0 Z " fill="#D1D1D1" transform="translate(186,152)"/>
<path d="M0 0 C0.66 0.33 1.32 0.66 2 1 C2 3.31 2 5.62 2 8 C0.35 7.01 -1.3 6.02 -3 5 C-3.33 5.66 -3.66 6.32 -4 7 C-4.33 5.02 -4.66 3.04 -5 1 C-2.525 1.495 -2.525 1.495 0 2 C0 1.34 0 0.68 0 0 Z " fill="#7D7D7D" transform="translate(349,257)"/>
<path d="M0 0 C2.31 0 4.62 0 7 0 C8.35439668 2.70879335 8.06501451 5.00933268 8 8 C7.01 8.495 7.01 8.495 6 9 C5.7525 8.21625 5.505 7.4325 5.25 6.625 C3.84610901 3.67682892 2.99324263 3.0975223 0 2 C0 1.34 0 0.68 0 0 Z " fill="#999B9A" transform="translate(29,240)"/>
<path d="M0 0 C0.33 0.66 0.66 1.32 1 2 C1.99 2 2.98 2 4 2 C5.6875 3 5.6875 3 7 5 C7.25738627 7.71864246 7.13484986 10.25805276 7 13 C6.01 13.495 6.01 13.495 5 14 C4.67 11.36 4.34 8.72 4 6 C2.68 5.67 1.36 5.34 0 5 C0 3.35 0 1.7 0 0 Z " fill="#AAACAC" transform="translate(109,236)"/>
<path d="M0 0 C0 4.29 0 8.58 0 13 C-0.66 13 -1.32 13 -2 13 C-2.103125 11.741875 -2.20625 10.48375 -2.3125 9.1875 C-2.64858808 6.39500343 -2.80025876 5.25566879 -4.5625 3 C-5.036875 2.67 -5.51125 2.34 -6 2 C-1.125 0 -1.125 0 0 0 Z " fill="#A8ACAB" transform="translate(56,237)"/>
<path d="M0 0 C2.31 0 4.62 0 7 0 C7.33 1.65 7.66 3.3 8 5 C7.67 4.01 7.34 3.02 7 2 C6.34 2 5.68 2 5 2 C4.67 2.99 4.34 3.98 4 5 C2.35 5 0.7 5 -1 5 C-0.67 3.35 -0.34 1.7 0 0 Z " fill="#D5D3D4" transform="translate(423,153)"/>
<path d="M0 0 C0.66 0 1.32 0 2 0 C2 1.32 2 2.64 2 4 C2.66 3.67 3.32 3.34 4 3 C4.33 2.01 4.66 1.02 5 0 C5.66 0 6.32 0 7 0 C6.34 2.97 5.68 5.94 5 9 C4.01 9 3.02 9 2 9 C1.34 6.03 0.68 3.06 0 0 Z " fill="#3E3E3E" transform="translate(45,124)"/>
<path d="M0 0 C1.32 0 2.64 0 4 0 C4 3.63 4 7.26 4 11 C3.67 11 3.34 11 3 11 C3 7.7 3 4.4 3 1 C2.34 1 1.68 1 1 1 C1 2.98 1 4.96 1 7 C0.01 7 -0.98 7 -2 7 C-2.125 4.625 -2.125 4.625 -2 2 C-1.34 1.34 -0.68 0.68 0 0 Z " fill="#757274" transform="translate(398,241)"/>
<path d="M0 0 C1.23556641 0.01740234 1.23556641 0.01740234 2.49609375 0.03515625 C3.32238281 0.04417969 4.14867187 0.05320313 5 0.0625 C5.63808594 0.07410156 6.27617187 0.08570313 6.93359375 0.09765625 C6.93359375 0.42765625 6.93359375 0.75765625 6.93359375 1.09765625 C4.62359375 1.09765625 2.31359375 1.09765625 -0.06640625 1.09765625 C-0.06640625 4.06765625 -0.06640625 7.03765625 -0.06640625 10.09765625 C-1.38640625 10.42765625 -2.70640625 10.75765625 -4.06640625 11.09765625 C-3.40640625 10.76765625 -2.74640625 10.43765625 -2.06640625 10.09765625 C-2.15019531 9.45957031 -2.23398437 8.82148438 -2.3203125 8.1640625 C-2.42214844 7.33777344 -2.52398437 6.51148438 -2.62890625 5.66015625 C-2.73332031 4.83644531 -2.83773438 4.01273438 -2.9453125 3.1640625 C-2.98527344 2.48214844 -3.02523438 1.80023438 -3.06640625 1.09765625 C-2.06640625 0.09765625 -2.06640625 0.09765625 0 0 Z " fill="#969896" transform="translate(375.06640625,239.90234375)"/>
<path d="M0 0 C0.66 0.66 1.32 1.32 2 2 C3.32 2 4.64 2 6 2 C6 2.66 6 3.32 6 4 C5.38125 4.12375 4.7625 4.2475 4.125 4.375 C1.80879168 4.87197356 1.80879168 4.87197356 0 7 C-2.625 6.625 -2.625 6.625 -5 6 C-4.67 5.01 -4.34 4.02 -4 3 C-2.68 3 -1.36 3 0 3 C0 2.01 0 1.02 0 0 Z " fill="#D8D8D8" transform="translate(81,152)"/>
<path d="M0 0 C0.66 0 1.32 0 2 0 C2 0.66 2 1.32 2 2 C4.64 1.67 7.28 1.34 10 1 C10.33 1.66 10.66 2.32 11 3 C10.01 4.32 9.02 5.64 8 7 C7.34 6.34 6.68 5.68 6 5 C5.01 5 4.02 5 3 5 C1.3125 3.625 1.3125 3.625 0 2 C0 1.34 0 0.68 0 0 Z " fill="#8B8B8B" transform="translate(311,257)"/>
<path d="M0 0 C0 2.31 0 4.62 0 7 C-1.98 7.33 -3.96 7.66 -6 8 C-6.33 6.68 -6.66 5.36 -7 4 C-6.01 4.33 -5.02 4.66 -4 5 C-4.33 3.68 -4.66 2.36 -5 1 C-2 0 -2 0 0 0 Z " fill="#7F7F7F" transform="translate(132,258)"/>
<path d="M0 0 C0.66 0 1.32 0 2 0 C2 0.66 2 1.32 2 2 C2.66 2.33 3.32 2.66 4 3 C3.34 4.98 2.68 6.96 2 9 C2.66 9 3.32 9 4 9 C4 9.66 4 10.32 4 11 C2.68 11 1.36 11 0 11 C-0.19491452 9.54263913 -0.38069358 8.08405407 -0.5625 6.625 C-0.66691406 5.81289062 -0.77132812 5.00078125 -0.87890625 4.1640625 C-1 2 -1 2 0 0 Z " fill="#2D2D2B" transform="translate(121,239)"/>
<path d="M0 0 C2.5 1.1875 2.5 1.1875 5 3 C5.3125 5.6875 5.3125 5.6875 5 8 C3.35 7.67 1.7 7.34 0 7 C0 4.69 0 2.38 0 0 Z " fill="#D4D3D3" transform="translate(286,140)"/>
<path d="M0 0 C0.66 0 1.32 0 2 0 C2 1.65 2 3.3 2 5 C2.66 5 3.32 5 4 5 C4.33 4.01 4.66 3.02 5 2 C5.99 2 6.98 2 8 2 C8.33 3.32 8.66 4.64 9 6 C6.03 6 3.06 6 0 6 C0 4.02 0 2.04 0 0 Z " fill="#9C98CF" transform="translate(82,22)"/>
<path d="M0 0 C3.3 0 6.6 0 10 0 C7.48169253 3.12270126 6.2738451 3.94523098 2.25 4.75 C0.64125 4.87375 0.64125 4.87375 -1 5 C-0.67 3.35 -0.34 1.7 0 0 Z " fill="#B6B2E2" transform="translate(54,23)"/>
<path d="M0 0 C3.96 0 7.92 0 12 0 C11.67 1.32 11.34 2.64 11 4 C10.34 4 9.68 4 9 4 C8.67 3.34 8.34 2.68 8 2 C6.68 2.33 5.36 2.66 4 3 C4.66 3.33 5.32 3.66 6 4 C4.125 3.6875 4.125 3.6875 2 3 C1.34 2.01 0.68 1.02 0 0 Z " fill="#8A8A8A" transform="translate(106,259)"/>
<path d="M0 0 C0.66 0 1.32 0 2 0 C3.28317892 3.84953676 3.06643637 6.94738135 3 11 C2.01 11 1.02 11 0 11 C-1 4.375 -1 4.375 -1 1 C-0.67 0.67 -0.34 0.34 0 0 Z " fill="#33302E" transform="translate(145,239)"/>
<path d="M0 0 C-0.99 0.33 -1.98 0.66 -3 1 C-3.33 1.99 -3.66 2.98 -4 4 C-4 3.34 -4 2.68 -4 2 C-4.33 2.33 -4.66 2.66 -5 3 C-5 3.66 -5 4.32 -5 5 C-7.64 5 -10.28 5 -13 5 C-10.12396983 -0.75206034 -5.71434821 -0.28571741 0 0 Z " fill="#CFCFCF" transform="translate(358,143)"/>
<path d="M0 0 C0.66 0 1.32 0 2 0 C2 3.96 2 7.92 2 12 C0.68 12.33 -0.64 12.66 -2 13 C-2 12.34 -2 11.68 -2 11 C-1.34 11 -0.68 11 0 11 C0 7.37 0 3.74 0 0 Z " fill="#474542" transform="translate(298,124)"/>
<path d="M0 0 C0.99 0.33 1.98 0.66 3 1 C2.34 1 1.68 1 1 1 C1 1.66 1 2.32 1 3 C2.32 3 3.64 3 5 3 C5 3.66 5 4.32 5 5 C5.99 5 6.98 5 8 5 C8.33 4.34 8.66 3.68 9 3 C8.67 4.32 8.34 5.64 8 7 C5.36 7 2.72 7 0 7 C0 4.69 0 2.38 0 0 Z " fill="#CECECE" transform="translate(74,141)"/>
<path d="M0 0 C0.33 0.99 0.66 1.98 1 3 C1.66 3 2.32 3 3 3 C3 2.01 3 1.02 3 0 C3.99 0 4.98 0 6 0 C6.33 1.32 6.66 2.64 7 4 C6.01 4 5.02 4 4 4 C4 4.66 4 5.32 4 6 C2.68 6 1.36 6 0 6 C0 4.02 0 2.04 0 0 Z " fill="#787878" transform="translate(367,260)"/>
<path d="M0 0 C0 0.99 0 1.98 0 3 C-2.31 3.66 -4.62 4.32 -7 5 C-7 3.35 -7 1.7 -7 0 C-4.3333581 -1.33332095 -2.83319697 -0.67102033 0 0 Z " fill="#CFCFCF" transform="translate(103,203)"/>
<path d="M0 0 C2.31 0 4.62 0 7 0 C7 1.65 7 3.3 7 5 C6.67 3.68 6.34 2.36 6 1 C5.34 1 4.68 1 4 1 C4 2.32 4 3.64 4 5 C2.68 5 1.36 5 0 5 C0 3.35 0 1.7 0 0 Z " fill="#7E8080" transform="translate(50,188)"/>
<path d="M0 0 C1.65 0 3.3 0 5 0 C4.01 0.33 3.02 0.66 2 1 C2 1.66 2 2.32 2 3 C2.99 3.33 3.98 3.66 5 4 C4.01 4 3.02 4 2 4 C2 4.66 2 5.32 2 6 C2.99 6 3.98 6 5 6 C5 6.66 5 7.32 5 8 C3.35 7.67 1.7 7.34 0 7 C0 4.69 0 2.38 0 0 Z " fill="#848282" transform="translate(297,175)"/>
<path d="M0 0 C1.134375 0.020625 2.26875 0.04125 3.4375 0.0625 C3.7675 1.7125 4.0975 3.3625 4.4375 5.0625 C4.1075 4.0725 3.7775 3.0825 3.4375 2.0625 C2.7775 2.0625 2.1175 2.0625 1.4375 2.0625 C1.4375 2.7225 1.4375 3.3825 1.4375 4.0625 C0.7775 4.0625 0.1175 4.0625 -0.5625 4.0625 C-0.8925 4.7225 -1.2225 5.3825 -1.5625 6.0625 C-2.5525 5.7325 -3.5425 5.4025 -4.5625 5.0625 C-4.2325 4.4025 -3.9025 3.7425 -3.5625 3.0625 C-2.9025 3.3925 -2.2425 3.7225 -1.5625 4.0625 C-1.5625 3.4025 -1.5625 2.7425 -1.5625 2.0625 C-2.5525 1.7325 -3.5425 1.4025 -4.5625 1.0625 C-3.5625 0.0625 -3.5625 0.0625 0 0 Z " fill="#C8C8C8" transform="translate(211.5625,152.9375)"/>
<path d="M0 0 C2.64 0 5.28 0 8 0 C7.25 1.9375 7.25 1.9375 6 4 C3.875 4.75 3.875 4.75 2 5 C1.34 3.35 0.68 1.7 0 0 Z " fill="#D8D8D8" transform="translate(188,143)"/>
<path d="M0 0 C1.65 0 3.3 0 5 0 C5 0.99 5 1.98 5 3 C4.01 3 3.02 3 2 3 C2 4.98 2 6.96 2 9 C1.34 9 0.68 9 0 9 C0 6.03 0 3.06 0 0 Z " fill="#4A4C4B" transform="translate(402,124)"/>
<path d="M0 0 C2.475 0.99 2.475 0.99 5 2 C5 2.99 5 3.98 5 5 C3.02 5.99 1.04 6.98 -1 8 C-0.67 5.36 -0.34 2.72 0 0 Z " fill="#9A95CB" transform="translate(175,22)"/>
<path d="M0 0 C0.66 0 1.32 0 2 0 C3.76462683 3.08809695 4 4.23312136 4 8 C2.35 8 0.7 8 -1 8 C-0.67 5.36 -0.34 2.72 0 0 Z " fill="#9B9899" transform="translate(351,174)"/>
<path d="M0 0 C2.64 0 5.28 0 8 0 C7.67 1.32 7.34 2.64 7 4 C7 3.34 7 2.68 7 2 C6.34 2 5.68 2 5 2 C5 2.99 5 3.98 5 5 C4.01 5 3.02 5 2 5 C2 4.01 2 3.02 2 2 C1.01 2.33 0.02 2.66 -1 3 C-0.67 2.01 -0.34 1.02 0 0 Z " fill="#CECECC" transform="translate(401,153)"/>
<path d="M0 0 C0.33 0.66 0.66 1.32 1 2 C1.99 2 2.98 2 4 2 C3.67 3.32 3.34 4.64 3 6 C3 5.01 3 4.02 3 3 C2.34 3 1.68 3 1 3 C0.67 3.99 0.34 4.98 0 6 C-1.65 6 -3.3 6 -5 6 C-5 5.01 -5 4.02 -5 3 C-3.35 2.67 -1.7 2.34 0 2 C0 1.34 0 0.68 0 0 Z " fill="#CECECD" transform="translate(154,141)"/>
<path d="M0 0 C1.98 0 3.96 0 6 0 C6 1.32 6 2.64 6 4 C5.34 4 4.68 4 4 4 C4 4.66 4 5.32 4 6 C2.68 5.67 1.36 5.34 0 5 C0 4.34 0 3.68 0 3 C0.99 3 1.98 3 3 3 C3 2.34 3 1.68 3 1 C2.01 1.33 1.02 1.66 0 2 C0 1.34 0 0.68 0 0 Z " fill="#D2D2D2" transform="translate(121,143)"/>
<path d="M0 0 C0.33 0 0.66 0 1 0 C1.33 2.31 1.66 4.62 2 7 C3.32 7.33 4.64 7.66 6 8 C4.68 8 3.36 8 2 8 C2 8.66 2 9.32 2 10 C-0.475 9.01 -0.475 9.01 -3 8 C-2.34 7.67 -1.68 7.34 -1 7 C-0.59270772 4.67843403 -0.25561323 2.3431213 0 0 Z " fill="#8F8E8E" transform="translate(393,243)"/>
<path d="M0 0 C2.64 0.33 5.28 0.66 8 1 C8 1.99 8 2.98 8 4 C5.36 4 2.72 4 0 4 C0 2.68 0 1.36 0 0 Z " fill="#C0C0C0" transform="translate(348,192)"/>
<path d="M0 0 C2.62113708 0 4.50935112 0.31292445 7 1 C6.67 2.32 6.34 3.64 6 5 C6 4.01 6 3.02 6 2 C5.34 2 4.68 2 4 2 C3.67 2.99 3.34 3.98 3 5 C3 4.34 3 3.68 3 3 C2.01 3 1.02 3 0 3 C-0.33 3.66 -0.66 4.32 -1 5 C-1 1 -1 1 0 0 Z " fill="#C7C6C7" transform="translate(449,153)"/>
<path d="M0 0 C1.875 0.375 1.875 0.375 4 1 C6.68149993 0.61432869 6.68149993 0.61432869 9 0 C9 0.66 9 1.32 9 2 C7.68 2 6.36 2 5 2 C4.67 2.66 4.34 3.32 4 4 C1.67843403 4.40729228 -0.6568787 4.74438677 -3 5 C-3 3 -3 3 -1.75 1.3125 C-1.1725 0.879375 -0.595 0.44625 0 0 Z " fill="#CACAC9" transform="translate(340,153)"/>
<path d="M0 0 C0.93423645 3.01031744 1.04449911 3.86650268 0 7 C-2.31 6.67 -4.62 6.34 -7 6 C-6.67 5.01 -6.34 4.02 -6 3 C-4.02 3 -2.04 3 0 3 C0 2.01 0 1.02 0 0 Z " fill="#727475" transform="translate(367,126)"/>
<path d="M0 0 C0 1.32 0 2.64 0 4 C-1.65 4 -3.3 4 -5 4 C-5.33 2.68 -5.66 1.36 -6 0 C-3.50907189 -1.24546405 -2.58919267 -0.7767578 0 0 Z " fill="#74706E" transform="translate(325,129)"/>
<path d="M0 0 C2.64 0 5.28 0 8 0 C7.67 1.32 7.34 2.64 7 4 C7 3.01 7 2.02 7 1 C6.34 1 5.68 1 5 1 C5 2.32 5 3.64 5 5 C3.35 5 1.7 5 0 5 C0.66 4.67 1.32 4.34 2 4 C2 3.01 2 2.02 2 1 C1.34 0.67 0.68 0.34 0 0 Z " fill="#B3B0E3" transform="translate(238,23)"/>
<path d="M0 0 C0.598125 0.495 1.19625 0.99 1.8125 1.5 C3.97029994 3.28276418 3.97029994 3.28276418 7 3 C6.67 3.99 6.34 4.98 6 6 C4.02 6.33 2.04 6.66 0 7 C0 4.69 0 2.38 0 0 Z " fill="#B3B1E0" transform="translate(229,21)"/>
<path d="M0 0 C2.97 0 5.94 0 9 0 C8.67 1.32 8.34 2.64 8 4 C7.34 4 6.68 4 6 4 C6 3.34 6 2.68 6 2 C4.35 1.67 2.7 1.34 1 1 C1.33 1.99 1.66 2.98 2 4 C1.01 4.495 1.01 4.495 0 5 C0 3.35 0 1.7 0 0 Z " fill="#898989" transform="translate(60,259)"/>
<path d="M0 0 C1.32 0 2.64 0 4 0 C4 1.65 4 3.3 4 5 C3.01 5 2.02 5 1 5 C1 5.66 1 6.32 1 7 C0.34 7 -0.32 7 -1 7 C-0.67 4.69 -0.34 2.38 0 0 Z " fill="#858583" transform="translate(333,243)"/>
<path d="M0 0 C1.65 0 3.3 0 5 0 C5 0.66 5 1.32 5 2 C4.01 2 3.02 2 2 2 C2 4.31 2 6.62 2 9 C1.34 9 0.68 9 0 9 C0 6.03 0 3.06 0 0 Z " fill="#282A29" transform="translate(70,241)"/>
<path d="M0 0 C1.65 0 3.3 0 5 0 C5 0.66 5 1.32 5 2 C4.01 2 3.02 2 2 2 C2 4.31 2 6.62 2 9 C1.34 9 0.68 9 0 9 C0 6.03 0 3.06 0 0 Z " fill="#303232" transform="translate(341,241)"/>
<path d="M0 0 C1.98 0 3.96 0 6 0 C6.33 0.99 6.66 1.98 7 3 C4.03 2.505 4.03 2.505 1 2 C1.33 2.99 1.66 3.98 2 5 C1.01 5 0.02 5 -1 5 C-0.67 3.35 -0.34 1.7 0 0 Z " fill="#3C3C3A" transform="translate(28,238)"/>
<path d="M0 0 C0.99 0 1.98 0 3 0 C3 1.98 3 3.96 3 6 C1.35 5.67 -0.3 5.34 -2 5 C-2 4.01 -2 3.02 -2 2 C-1.34 2 -0.68 2 0 2 C0 1.34 0 0.68 0 0 Z " fill="#D7D6D3" transform="translate(37,201)"/>
<path d="M0 0 C1.65 0 3.3 0 5 0 C5 0.99 5 1.98 5 3 C5.99 3 6.98 3 8 3 C8 2.01 8 1.02 8 0 C8.66 0.33 9.32 0.66 10 1 C9.67 1.99 9.34 2.98 9 4 C6.03 4 3.06 4 0 4 C0 2.68 0 1.36 0 0 Z " fill="#CAC7C8" transform="translate(443,192)"/>
<path d="M0 0 C1.98 0 3.96 0 6 0 C6 1.65 6 3.3 6 5 C4.02 5 2.04 5 0 5 C0.66 4.67 1.32 4.34 2 4 C2 3.01 2 2.02 2 1 C1.34 0.67 0.68 0.34 0 0 Z " fill="#777572" transform="translate(41,188)"/>
<path d="M0 0 C0.33 0.99 0.66 1.98 1 3 C1.66 3 2.32 3 3 3 C3.33 3.99 3.66 4.98 4 6 C1.69 6.33 -0.62 6.66 -3 7 C-3 5.35 -3 3.7 -3 2 C-1 3 -1 3 0 4 C0 2.68 0 1.36 0 0 Z " fill="#CFCFCF" transform="translate(40,141)"/>
<path d="M0 0 C1.65 0 3.3 0 5 0 C5 0.66 5 1.32 5 2 C4.01 2 3.02 2 2 2 C2 4.31 2 6.62 2 9 C1.34 9 0.68 9 0 9 C0 6.03 0 3.06 0 0 Z " fill="#2F2F30" transform="translate(96,124)"/>
<path d="M0 0 C0.33 0.99 0.66 1.98 1 3 C1.66 3 2.32 3 3 3 C3 2.01 3 1.02 3 0 C4.32 0 5.64 0 7 0 C7 1.32 7 2.64 7 4 C5.02 4.33 3.04 4.66 1 5 C0.67 3.35 0.34 1.7 0 0 Z " fill="#7D7D7D" transform="translate(385,260)"/>
<path d="M0 0 C2.31 0.66 4.62 1.32 7 2 C6.360625 2.226875 5.72125 2.45375 5.0625 2.6875 C2.72806339 3.85250896 2.72806339 3.85250896 2.25 6.625 C2.1675 7.40875 2.085 8.1925 2 9 C1.67 9 1.34 9 1 9 C0.67 6.03 0.34 3.06 0 0 Z " fill="#979394" transform="translate(382,241)"/>
<path d="M0 0 C0.99 0 1.98 0 3 0 C3 0.99 3 1.98 3 3 C3.66 3 4.32 3 5 3 C4.67 2.01 4.34 1.02 4 0 C4.66 0 5.32 0 6 0 C6 1.32 6 2.64 6 4 C4.824375 4.2165625 4.824375 4.2165625 3.625 4.4375 C1.03578982 4.87798925 1.03578982 4.87798925 -1 6 C-1.042721 4.33388095 -1.04063832 2.66617115 -1 1 C-0.67 0.67 -0.34 0.34 0 0 Z " fill="#CDCDCD" transform="translate(323,192)"/>
<path d="M0 0 C2.475 0.495 2.475 0.495 5 1 C5.33 2.65 5.66 4.3 6 6 C4.02 6 2.04 6 0 6 C0.66 5.34 1.32 4.68 2 4 C1.34 3.67 0.68 3.34 0 3 C0 2.01 0 1.02 0 0 Z " fill="#A4A0D2" transform="translate(217,22)"/>
<path d="M0 0 C0.66 0 1.32 0 2 0 C2 1.65 2 3.3 2 5 C2.66 5 3.32 5 4 5 C4.33 3.68 4.66 2.36 5 1 C5 2.65 5 4.3 5 6 C3.0625 6.5625 3.0625 6.5625 1 7 C0 6 0 6 -0.0625 2.9375 C-0.041875 1.968125 -0.02125 0.99875 0 0 Z " fill="#717171" transform="translate(297,268)"/>
<path d="M0 0 C1.32 0 2.64 0 4 0 C4 1.65 4 3.3 4 5 C2.02 5 0.04 5 -2 5 C-2 4.34 -2 3.68 -2 3 C-1.34 3 -0.68 3 0 3 C0 2.01 0 1.02 0 0 Z " fill="#797979" transform="translate(147,260)"/>
<path d="M0 0 C0 1.32 0 2.64 0 4 C-1.65 4 -3.3 4 -5 4 C-5.33 2.68 -5.66 1.36 -6 0 C-3 -1 -3 -1 0 0 Z " fill="#7B7B7B" transform="translate(327,260)"/>
<path d="M0 0 C1.32 0 2.64 0 4 0 C4 0.66 4 1.32 4 2 C3.34 2 2.68 2 2 2 C2 4.31 2 6.62 2 9 C1.34 9 0.68 9 0 9 C0 6.03 0 3.06 0 0 Z " fill="#2E2C2B" transform="translate(413,241)"/>
<path d="M0 0 C1.32 0 2.64 0 4 0 C4 0.66 4 1.32 4 2 C3.34 2 2.68 2 2 2 C2 4.31 2 6.62 2 9 C1.34 9 0.68 9 0 9 C0 6.03 0 3.06 0 0 Z " fill="#2C2B2A" transform="translate(92,241)"/>
<path d="M0 0 C1.3921875 0.2784375 1.3921875 0.2784375 2.8125 0.5625 C6.01343771 1.24123881 6.01343771 1.24123881 9 0 C9 1.65 9 3.3 9 5 C6.36 4.34 3.72 3.68 1 3 C0.67 3.66 0.34 4.32 0 5 C0 3.35 0 1.7 0 0 Z " fill="#B3B4B3" transform="translate(97,238)"/>
<path d="M0 0 C-0.33 1.32 -0.66 2.64 -1 4 C-2.32 3.67 -3.64 3.34 -5 3 C-5 2.34 -5 1.68 -5 1 C-5.66 0.67 -6.32 0.34 -7 0 C-3.86650268 -1.04449911 -3.01031744 -0.93423645 0 0 Z " fill="#D6D6D6" transform="translate(68,203)"/>
<path d="M0 0 C0 1.98 0 3.96 0 6 C-0.99 6 -1.98 6 -3 6 C-3 5.01 -3 4.02 -3 3 C-3.99 2.67 -4.98 2.34 -6 2 C-3 0 -3 0 0 0 Z " fill="#BEBEBE" transform="translate(223,152)"/>
<path d="M0 0 C0 1.98 0 3.96 0 6 C-3 6 -3 6 -6 5 C-5 2 -5 2 -3 0.8125 C-1 0 -1 0 0 0 Z " fill="#CCCCCC" transform="translate(56,152)"/>
<path d="M0 0 C1.32 0 2.64 0 4 0 C3.67 1.65 3.34 3.3 3 5 C1.02 4.34 -0.96 3.68 -3 3 C-2.01 2.67 -1.02 2.34 0 2 C0 1.34 0 0.68 0 0 Z " fill="#D3D3D3" transform="translate(336,143)"/>
<path d="M0 0 C2.64 0 5.28 0 8 0 C7.01 0.495 7.01 0.495 6 1 C6 1.99 6 2.98 6 4 C4.35 4.33 2.7 4.66 1 5 C0.67 4.34 0.34 3.68 0 3 C0.99 3 1.98 3 3 3 C3 2.34 3 1.68 3 1 C2.01 1.33 1.02 1.66 0 2 C0 1.34 0 0.68 0 0 Z " fill="#D5D5D5" transform="translate(205,143)"/>
<path d="M0 0 C-0.66 2.31 -1.32 4.62 -2 7 C-2.33 6.34 -2.66 5.68 -3 5 C-3.66 5 -4.32 5 -5 5 C-5 3.68 -5 2.36 -5 1 C-3 0 -3 0 0 0 Z " fill="#7F7F7D" transform="translate(194,259)"/>
<path d="M0 0 C0.99 0.99 1.98 1.98 3 3 C1.6875 4.5 1.6875 4.5 0 6 C-0.99 6 -1.98 6 -3 6 C-3.33 4.68 -3.66 3.36 -4 2 C-2.68 1.34 -1.36 0.68 0 0 Z " fill="#8F8F8F" transform="translate(123,257)"/>
<path d="M0 0 C0.99 0.33 1.98 0.66 3 1 C3 2.98 3 4.96 3 7 C2.01 7.495 2.01 7.495 1 8 C1 7.34 1 6.68 1 6 C0.34 6 -0.32 6 -1 6 C-1.042721 4.33388095 -1.04063832 2.66617115 -1 1 C-0.67 0.67 -0.34 0.34 0 0 Z " fill="#919494" transform="translate(124,242)"/>
<path d="M0 0 C0 1.32 0 2.64 0 4 C-1.65 4.66 -3.3 5.32 -5 6 C-5 4.35 -5 2.7 -5 1 C-3 0 -3 0 0 0 Z " fill="#585856" transform="translate(371,244)"/>
<path d="M0 0 C0.226875 0.639375 0.45375 1.27875 0.6875 1.9375 C1.85250896 4.27193661 1.85250896 4.27193661 4.625 4.75 C5.40875 4.8325 6.1925 4.915 7 5 C6.67 5.99 6.34 6.98 6 8 C3.03 7.505 3.03 7.505 0 7 C0 4.69 0 2.38 0 0 Z " fill="#3A3738" transform="translate(37,242)"/>
<path d="M0 0 C1.98 0 3.96 0 6 0 C5.67 1.32 5.34 2.64 5 4 C3.33333333 4 1.66666667 4 0 4 C0 2.68 0 1.36 0 0 Z " fill="#C9CAC4" transform="translate(406,192)"/>
<path d="M0 0 C0.33 0.99 0.66 1.98 1 3 C1.66 3 2.32 3 3 3 C3.33 2.01 3.66 1.02 4 0 C4 2.31 4 4.62 4 7 C2.68 7 1.36 7 0 7 C0 4.69 0 2.38 0 0 Z " fill="#7D7D7D" transform="translate(330,178)"/>
<path d="M0 0 C0.33 0 0.66 0 1 0 C1 2.31 1 4.62 1 7 C0.67 6.01 0.34 5.02 0 4 C-0.66 4 -1.32 4 -2 4 C-2 4.99 -2 5.98 -2 7 C-2.66 7 -3.32 7 -4 7 C-4 5.35 -4 3.7 -4 2 C-2.68 2 -1.36 2 0 2 C0 1.34 0 0.68 0 0 Z " fill="#7E797B" transform="translate(321,175)"/>
<path d="M0 0 C1.98 0.495 1.98 0.495 4 1 C4 2.32 4 3.64 4 5 C2.35 4.67 0.7 4.34 -1 4 C-0.67 2.68 -0.34 1.36 0 0 Z " fill="#D5D5D5" transform="translate(172,153)"/>
<path d="M0 0 C0.66 0 1.32 0 2 0 C2 1.65 2 3.3 2 5 C0.02 5 -1.96 5 -4 5 C-4 4.01 -4 3.02 -4 2 C-2.68 2 -1.36 2 0 2 C0 1.34 0 0.68 0 0 Z " fill="#D8D8D8" transform="translate(166,153)"/>
<path d="M0 0 C0.928125 0.2784375 0.928125 0.2784375 1.875 0.5625 C4.04160178 1.23686176 4.04160178 1.23686176 6 0 C5.67 1.32 5.34 2.64 5 4 C2.69 4.33 0.38 4.66 -2 5 C-1.34 4.67 -0.68 4.34 0 4 C0 2.68 0 1.36 0 0 Z " fill="#CDCDCD" transform="translate(474,143)"/>
<path d="M0 0 C-0.33 0.66 -0.66 1.32 -1 2 C-1.66 1.67 -2.32 1.34 -3 1 C-3 1.99 -3 2.98 -3 4 C-4.65 4.33 -6.3 4.66 -8 5 C-7.34 4.67 -6.68 4.34 -6 4 C-6 3.01 -6 2.02 -6 1 C-6.66 0.67 -7.32 0.34 -8 0 C-4.94736336 -0.98120464 -3.05263664 -0.98120464 0 0 Z " fill="#B7B3E2" transform="translate(186,23)"/>
<path d="M0 0 C2.64 0 5.28 0 8 0 C7.67 1.32 7.34 2.64 7 4 C5.68 4.33 4.36 4.66 3 5 C2.67 4.01 2.34 3.02 2 2 C1.34 1.34 0.68 0.68 0 0 Z " fill="#898989" transform="translate(154,259)"/>
<path d="M0 0 C0.4125 0.66 0.825 1.32 1.25 2 C1.8275 2.66 2.405 3.32 3 4 C4.32 4 5.64 4 7 4 C6.67 4.99 6.34 5.98 6 7 C4.35 7 2.7 7 1 7 C0.67 4.69 0.34 2.38 0 0 Z " fill="#3B3A39" transform="translate(308,243)"/>
<path d="M0 0 C1.98 0.99 3.96 1.98 6 3 C6 3.66 6 4.32 6 5 C3.36 4.67 0.72 4.34 -2 4 C-1.34 2.68 -0.68 1.36 0 0 Z " fill="#A3A3A0" transform="translate(298,243)"/>
<path d="M0 0 C0.99 0.33 1.98 0.66 3 1 C3.33 2.65 3.66 4.3 4 6 C3.34 6 2.68 6 2 6 C2 5.34 2 4.68 2 4 C1.01 4.33 0.02 4.66 -1 5 C-0.67 3.35 -0.34 1.7 0 0 Z " fill="#2F2F30" transform="translate(84,238)"/>
<path d="M0 0 C1.98 0.99 1.98 0.99 4 2 C4 3.32 4 4.64 4 6 C2.68 6 1.36 6 0 6 C0 4.02 0 2.04 0 0 Z " fill="#C9C8C4" transform="translate(147,201)"/>
<path d="M0 0 C0.66 0 1.32 0 2 0 C2 0.66 2 1.32 2 2 C2.66 2 3.32 2 4 2 C4 1.34 4 0.68 4 0 C4.66 0 5.32 0 6 0 C5.67 1.65 5.34 3.3 5 5 C3.35 4.67 1.7 4.34 0 4 C0 2.68 0 1.36 0 0 Z " fill="#CBCBCB" transform="translate(363,192)"/>
<path d="M0 0 C1.32 0 2.64 0 4 0 C4 1.65 4 3.3 4 5 C2.68 5 1.36 5 0 5 C0 3.35 0 1.7 0 0 Z " fill="#DFDDDD" transform="translate(28,187)"/>
<path d="M0 0 C1.32 0 2.64 0 4 0 C3.67 1.65 3.34 3.3 3 5 C1.68 4.34 0.36 3.68 -1 3 C-0.67 2.01 -0.34 1.02 0 0 Z " fill="#D5D5D5" transform="translate(171,143)"/>
<path d="M0 0 C-0.66 1.32 -1.32 2.64 -2 4 C-2 3.34 -2 2.68 -2 2 C-2.66 2 -3.32 2 -4 2 C-4.33 2.66 -4.66 3.32 -5 4 C-4.34 4.33 -3.68 4.66 -3 5 C-3.99 5 -4.98 5 -6 5 C-6.66 3.68 -7.32 2.36 -8 1 C-5.29120665 -0.35439668 -2.99066732 -0.06501451 0 0 Z " fill="#D1D1D1" transform="translate(144,143)"/>
<path d="M0 0 C0.66 0 1.32 0 2 0 C2 0.66 2 1.32 2 2 C2.99 2.33 3.98 2.66 5 3 C5 3.99 5 4.98 5 6 C3.35 6 1.7 6 0 6 C0 4.02 0 2.04 0 0 Z " fill="#C8C8C8" transform="translate(461,141)"/>
<path d="M0 0 C0.93423645 3.01031744 1.04449911 3.86650268 0 7 C-2.475 6.01 -2.475 6.01 -5 5 C-5 4.34 -5 3.68 -5 3 C-3.35 3 -1.7 3 0 3 C0 2.01 0 1.02 0 0 Z " fill="#939598" transform="translate(43,126)"/>
<path d="M0 0 C2.00720923 0.28674418 4.0085944 0.61866701 6 1 C5.67 1.66 5.34 2.32 5 3 C2.4375 3.625 2.4375 3.625 0 4 C-0.33 3.01 -0.66 2.02 -1 1 C-0.67 0.67 -0.34 0.34 0 0 Z " fill="#6C6E6F" transform="translate(88,124)"/>
<path d="M0 0 C0.33 0 0.66 0 1 0 C1 1.65 1 3.3 1 5 C2.32 4.67 3.64 4.34 5 4 C5 4.99 5 5.98 5 7 C3.02 7 1.04 7 -1 7 C-0.67 4.69 -0.34 2.38 0 0 Z " fill="#474746" transform="translate(137,243)"/>
<path d="M0 0 C1.98 0.495 1.98 0.495 4 1 C4.33 2.32 4.66 3.64 5 5 C2.03 4.505 2.03 4.505 -1 4 C-0.67 2.68 -0.34 1.36 0 0 Z " fill="#5D5B5A" transform="translate(82,241)"/>
<path d="M0 0 C0.99 0.33 1.98 0.66 3 1 C2.67 3.64 2.34 6.28 2 9 C1.34 9 0.68 9 0 9 C0 6.03 0 3.06 0 0 Z " fill="#27201F" transform="translate(46,241)"/>
<path d="M0 0 C0 0.66 0 1.32 0 2 C-0.99 2 -1.98 2 -3 2 C-3.33 3.32 -3.66 4.64 -4 6 C-4.66 6 -5.32 6 -6 6 C-6 4.35 -6 2.7 -6 1 C-3 0 -3 0 0 0 Z " fill="#D0D0CE" transform="translate(80,202)"/>
<path d="M0 0 C0.33 0.99 0.66 1.98 1 3 C1.66 3 2.32 3 3 3 C3 2.34 3 1.68 3 1 C3.99 0.67 4.98 0.34 6 0 C6 0.99 6 1.98 6 3 C4.02253397 3.73080266 2.01927511 4.39421747 0 5 C-0.66 4.67 -1.32 4.34 -2 4 C-2 3.34 -2 2.68 -2 2 C-1.34 2 -0.68 2 0 2 C0 1.34 0 0.68 0 0 Z " fill="#CACACA" transform="translate(129,154)"/>
<path d="M0 0 C1.98 0 3.96 0 6 0 C6.33 0.66 6.66 1.32 7 2 C6.01 2 5.02 2 4 2 C4 2.66 4 3.32 4 4 C2.68 4.33 1.36 4.66 0 5 C0 3.35 0 1.7 0 0 Z " fill="#CECECE" transform="translate(73,153)"/>
<path d="M0 0 C0.99 0 1.98 0 3 0 C3 1.32 3 2.64 3 4 C1.35 4.33 -0.3 4.66 -2 5 C-2.33 3.68 -2.66 2.36 -3 1 C-2.67 1.66 -2.34 2.32 -2 3 C-1.34 3 -0.68 3 0 3 C0 2.01 0 1.02 0 0 Z " fill="#D2D2D2" transform="translate(369,143)"/>
<path d="M0 0 C1.32 0 2.64 0 4 0 C3.67 1.65 3.34 3.3 3 5 C2.01 5 1.02 5 0 5 C0 3.35 0 1.7 0 0 Z " fill="#D8D8D8" transform="translate(481,143)"/>
<path d="M0 0 C1.32 0.33 2.64 0.66 4 1 C4 1.66 4 2.32 4 3 C4.66 3 5.32 3 6 3 C6.33 2.34 6.66 1.68 7 1 C7 1.99 7 2.98 7 4 C5.02 4 3.04 4 1 4 C0.67 2.68 0.34 1.36 0 0 Z " fill="#9896C9" transform="translate(99,24)"/>
<path d="M0 0 C1.65 0.33 3.3 0.66 5 1 C5 1.99 5 2.98 5 4 C3.02 4.33 1.04 4.66 -1 5 C-0.67 3.35 -0.34 1.7 0 0 Z " fill="#9592C4" transform="translate(235,23)"/>
<path d="M0 0 C0.33 0.66 0.66 1.32 1 2 C1.99 2.33 2.98 2.66 4 3 C3.67 4.32 3.34 5.64 3 7 C1.68 6.67 0.36 6.34 -1 6 C-0.67 4.02 -0.34 2.04 0 0 Z " fill="#797979" transform="translate(40,258)"/>
<path d="M0 0 C0.33 0 0.66 0 1 0 C1 2.64 1 5.28 1 8 C0.01 8 -0.98 8 -2 8 C-1.125 2.25 -1.125 2.25 0 0 Z " fill="#918F8E" transform="translate(361,242)"/>
<path d="M0 0 C0.99 0 1.98 0 3 0 C3 2.31 3 4.62 3 7 C2.01 6.67 1.02 6.34 0 6 C0 4.02 0 2.04 0 0 Z " fill="#A4A6A6" transform="translate(109,243)"/>
<path d="M0 0 C1.32 0 2.64 0 4 0 C3.67 1.65 3.34 3.3 3 5 C2.01 4.67 1.02 4.34 0 4 C0 2.68 0 1.36 0 0 Z " fill="#959693" transform="translate(62,243)"/>
<path d="M0 0 C0.99 0.33 1.98 0.66 3 1 C2.67 1.33 2.34 1.66 2 2 C1.95919217 3.99958364 1.95745644 6.00045254 2 8 C1.01 7.67 0.02 7.34 -1 7 C-1.04254356 5.00045254 -1.04080783 2.99958364 -1 1 C-0.67 0.67 -0.34 0.34 0 0 Z " fill="#27292A" transform="translate(395,241)"/>
<path d="M0 0 C0.99 0 1.98 0 3 0 C3 1.98 3 3.96 3 6 C2.01 6 1.02 6 0 6 C0 4.02 0 2.04 0 0 Z " fill="#CCC7C8" transform="translate(308,190)"/>
<path d="M0 0 C1.32 0.33 2.64 0.66 4 1 C4 2.32 4 3.64 4 5 C2.68 5 1.36 5 0 5 C0 3.35 0 1.7 0 0 Z " fill="#DEDEDE" transform="translate(223,153)"/>
<path d="M0 0 C-0.33 0.99 -0.66 1.98 -1 3 C-1 2.34 -1 1.68 -1 1 C-1.66 1 -2.32 1 -3 1 C-3 1.99 -3 2.98 -3 4 C-3.99 4 -4.98 4 -6 4 C-6 2.68 -6 1.36 -6 0 C-2.25 -1.125 -2.25 -1.125 0 0 Z " fill="#CBCCCB" transform="translate(358,154)"/>
<path d="M0 0 C0.99 0.33 1.98 0.66 3 1 C2.67 1.99 2.34 2.98 2 4 C2 3.34 2 2.68 2 2 C1.34 2 0.68 2 0 2 C0 2.99 0 3.98 0 5 C-0.99 5 -1.98 5 -3 5 C-2.625 3.0625 -2.625 3.0625 -2 1 C-1.34 0.67 -0.68 0.34 0 0 Z " fill="#D5D5D5" transform="translate(140,153)"/>
<path d="M0 0 C1.32 0 2.64 0 4 0 C3.67 1.65 3.34 3.3 3 5 C2.01 4.67 1.02 4.34 0 4 C0 2.68 0 1.36 0 0 Z " fill="#D6D6D6" transform="translate(159,143)"/>
<path d="M0 0 C0.99 0 1.98 0 3 0 C3 1.65 3 3.3 3 5 C1.68 4.67 0.36 4.34 -1 4 C-0.67 2.68 -0.34 1.36 0 0 Z " fill="#D4D4D4" transform="translate(112,143)"/>
<path d="M0 0 C1.32 0 2.64 0 4 0 C3.67 1.65 3.34 3.3 3 5 C2.01 4.67 1.02 4.34 0 4 C0 2.68 0 1.36 0 0 Z " fill="#CFCFCF" transform="translate(104,143)"/>
<path d="M0 0 C1.98 0 3.96 0 6 0 C6.33 0.99 6.66 1.98 7 3 C6.01 3.495 6.01 3.495 5 4 C5 3.01 5 2.02 5 1 C4.34 1 3.68 1 3 1 C3 1.99 3 2.98 3 4 C2.01 4 1.02 4 0 4 C0 2.68 0 1.36 0 0 Z " fill="#D6D6D6" transform="translate(429,143)"/>
<path d="M0 0 C1.32 0.33 2.64 0.66 4 1 C4 2.65 4 4.3 4 6 C2.66666667 6 1.33333333 6 0 6 C0 4.02 0 2.04 0 0 Z " fill="#CACACA" transform="translate(84,141)"/>
<path d="M0 0 C0.33 1.32 0.66 2.64 1 4 C-0.32 4.33 -1.64 4.66 -3 5 C-3 6.65 -3 8.3 -3 10 C-3.33 10 -3.66 10 -4 10 C-4.33 8.02 -4.66 6.04 -5 4 C-3.35 3.67 -1.7 3.34 0 3 C0 2.01 0 1.02 0 0 Z " fill="#545452" transform="translate(32,121)"/>
<path d="M0 0 C1.32 0.33 2.64 0.66 4 1 C3.01 2.485 3.01 2.485 2 4 C1.60612212 6.32387947 1.26513915 8.65793749 1 11 C0.67 11 0.34 11 0 11 C0 7.37 0 3.74 0 0 Z " fill="#F2F8F6" transform="translate(372,122)"/>
<path d="M0 0 C0.33 0 0.66 0 1 0 C1 1.98 1 3.96 1 6 C-0.65 6.33 -2.3 6.66 -4 7 C-4 6.34 -4 5.68 -4 5 C-3.34 5 -2.68 5 -2 5 C-2 4.01 -2 3.02 -2 2 C-1.34 2 -0.68 2 0 2 C0 1.34 0 0.68 0 0 Z " fill="#7D7D7D" transform="translate(163,258)"/>
<path d="M0 0 C0.99 0.495 0.99 0.495 2 1 C2.625 4.0625 2.625 4.0625 3 7 C2.34 7 1.68 7 1 7 C0.67 4.69 0.34 2.38 0 0 Z " fill="#A1A4A7" transform="translate(147,243)"/>
<path d="M0 0 C0.99 0 1.98 0 3 0 C3 1.65 3 3.3 3 5 C2.34 5 1.68 5 1 5 C0.67 5.66 0.34 6.32 0 7 C0 4.69 0 2.38 0 0 Z " fill="#929293" transform="translate(48,243)"/>
<path d="M0 0 C1.32 0 2.64 0 4 0 C4 1.65 4 3.3 4 5 C2.68 4.67 1.36 4.34 0 4 C0 2.68 0 1.36 0 0 Z " fill="#CECECC" transform="translate(413,192)"/>
<path d="M0 0 C1.98 0.495 1.98 0.495 4 1 C3.01 1.495 3.01 1.495 2 2 C2 2.99 2 3.98 2 5 C1.01 5 0.02 5 -1 5 C-0.67 3.35 -0.34 1.7 0 0 Z " fill="#DADADA" transform="translate(384,153)"/>
<path d="M0 0 C1.32 0 2.64 0 4 0 C3.67 1.65 3.34 3.3 3 5 C2.01 4.67 1.02 4.34 0 4 C0 2.68 0 1.36 0 0 Z " fill="#D7D7D7" transform="translate(407,143)"/>
<path d="M0 0 C0 1.32 0 2.64 0 4 C-1.65 3.67 -3.3 3.34 -5 3 C-5 2.34 -5 1.68 -5 1 C-3 0 -3 0 0 0 Z " fill="#6F6D6D" transform="translate(398,124)"/>
<path d="M0 0 C2.64 0 5.28 0 8 0 C6.74458443 2.51083114 5.49936512 2.87125446 3 4 C2.01 2.68 1.02 1.36 0 0 Z " fill="#B6B4E3" transform="translate(100,23)"/>
<path d="M0 0 C2.64 0 5.28 0 8 0 C7.01 0.495 7.01 0.495 6 1 C6 1.99 6 2.98 6 4 C5.01 4 4.02 4 3 4 C1.3125 2 1.3125 2 0 0 Z " fill="#B3B2DF" transform="translate(115,23)"/>
</svg>
