<?xml version="1.0" standalone="no"?>
<!DOCTYPE svg PUBLIC "-//W3C//DTD SVG 20010904//EN"
 "http://www.w3.org/TR/2001/REC-SVG-20010904/DTD/svg10.dtd">
<svg version="1.0" xmlns="http://www.w3.org/2000/svg"
 width="566.000000pt" height="285.000000pt" viewBox="0 0 566.000000 285.000000"
 preserveAspectRatio="xMidYMid meet">

<g transform="translate(0.000000,285.000000) scale(0.100000,-0.100000)"
fill="#000000" stroke="none">
<path d="M0 2625 l0 -225 2830 0 2830 0 0 225 0 225 -2830 0 -2830 0 0 -225z
m265 55 c0 -12 -16 -16 -74 -18 -73 -3 -100 6 -86 28 4 7 34 10 83 8 61 -2 77
-6 77 -18z m-6 -43 c17 -22 3 -27 -75 -27 -71 0 -101 13 -73 31 23 14 135 11
148 -4z m211 -27 c4 0 10 7 14 15 7 19 36 8 36 -14 0 -12 2 -13 9 -3 5 9 25
12 62 10 47 -3 54 -6 57 -25 2 -13 -1 -23 -7 -23 -6 0 -12 8 -12 18 -1 16 -2
16 -6 0 -2 -10 -9 -18 -14 -18 -5 0 -10 8 -10 18 -1 15 -2 15 -6 -1 -4 -15
-12 -18 -39 -15 -23 3 -34 0 -34 -9 0 -19 -10 -16 -33 10 -13 15 -21 18 -24
10 -8 -23 -23 -13 -23 15 0 32 13 52 18 28 2 -9 7 -16 12 -16z m379 -30 c5 0
11 9 14 19 4 16 14 19 56 19 l52 1 -3 -32 c-2 -24 -8 -33 -25 -35 -13 -2 -23
1 -23 7 0 6 -21 11 -50 11 -48 0 -50 1 -50 28 0 40 14 50 18 13 2 -17 7 -31
11 -31z m731 52 c0 -9 -1 -9 83 -12 46 -2 57 -6 53 -17 -3 -8 -6 -19 -6 -24 0
-5 -16 -9 -35 -9 -26 0 -35 4 -36 18 -1 15 -2 15 -6 0 -3 -12 -16 -16 -49 -16
-24 0 -44 4 -44 9 0 14 -28 11 -33 -3 -3 -7 -6 4 -6 25 -1 37 -1 37 39 37 22
0 40 -4 40 -8z m185 -11 c-2 -5 7 -6 20 -3 14 2 28 9 31 14 3 5 12 4 20 -3 11
-9 18 -8 30 2 13 10 17 10 24 -1 6 -9 25 -13 60 -11 45 2 52 0 46 -14 -3 -9
-6 -21 -6 -27 0 -5 -17 -9 -37 -8 -21 1 -42 1 -48 0 -5 -1 -38 -1 -72 0 -34 1
-64 -3 -68 -9 -13 -22 -25 -10 -25 27 0 21 3 42 6 45 9 9 26 -2 19 -12z m472
6 c7 -4 22 -3 33 3 16 8 24 8 35 -3 10 -11 31 -13 84 -9 l71 5 0 -29 c-1 -28
-1 -28 -15 -10 -12 16 -15 17 -15 4 0 -13 -17 -15 -107 -15 -60 -1 -112 -2
-118 -3 -19 -4 -35 0 -35 10 0 5 8 7 18 3 14 -5 14 -3 -2 9 -40 31 7 62 51 35z
m-909 -24 c2 -7 -5 -13 -15 -14 -16 0 -16 -1 2 -9 14 -6 4 -9 -37 -9 -48 -1
-58 2 -59 17 -1 16 -2 16 -6 0 -3 -14 -15 -18 -49 -18 -35 0 -44 4 -45 18 -1
16 -2 16 -6 0 -2 -10 -13 -18 -24 -18 -11 0 -19 7 -20 18 -1 16 -2 16 -6 0 -7
-26 -73 -25 -73 0 0 10 3 22 7 25 3 4 78 6 166 5 118 -2 161 -6 165 -15z
m-1063 -28 c0 -6 -36 -11 -82 -13 -76 -3 -95 3 -76 22 11 11 158 2 158 -9z"/>
<path d="M548 2583 c7 -3 16 -2 19 1 4 3 -2 6 -13 5 -11 0 -14 -3 -6 -6z"/>
<path d="M1518 2613 c7 -3 16 -2 19 1 4 3 -2 6 -13 5 -11 0 -14 -3 -6 -6z"/>
<path d="M1785 2590 c3 -5 8 -10 11 -10 2 0 4 5 4 10 0 6 -5 10 -11 10 -5 0
-7 -4 -4 -10z"/>
<path d="M320 1625 c0 -8 -9 -15 -20 -15 -28 0 -45 -36 -31 -66 8 -18 19 -24
41 -24 l30 0 0 60 c0 33 -4 60 -10 60 -5 0 -10 -7 -10 -15z m-2 -62 c-4 -31
-23 -42 -30 -16 -7 25 1 43 18 43 11 0 14 -8 12 -27z"/>
<path d="M630 1580 c0 -33 4 -60 10 -60 6 0 10 27 10 60 0 33 -4 60 -10 60 -6
0 -10 -27 -10 -60z"/>
<path d="M3380 1622 c0 -13 -7 -18 -22 -18 -20 1 -23 -4 -23 -39 0 -37 2 -40
29 -43 16 -2 32 1 36 8 6 9 6 53 1 98 -2 19 -21 14 -21 -6z m-2 -57 c-2 -14
-7 -26 -13 -26 -5 0 -11 12 -13 26 -2 18 1 25 13 25 12 0 15 -7 13 -25z"/>
<path d="M3690 1580 c0 -33 4 -60 10 -60 6 0 10 27 10 60 0 33 -4 60 -10 60
-6 0 -10 -27 -10 -60z"/>
<path d="M372 1598 c-15 -15 -15 -51 0 -66 15 -15 45 -16 53 -2 3 5 -2 9 -12
7 -10 -1 -19 3 -21 8 -1 6 9 11 23 13 28 4 29 6 15 33 -12 21 -40 25 -58 7z
m38 -18 c0 -5 -7 -10 -16 -10 -8 0 -12 5 -9 10 3 6 10 10 16 10 5 0 9 -4 9
-10z"/>
<path d="M450 1604 c0 -24 25 -84 35 -84 10 0 35 60 35 84 0 16 -19 4 -22 -14
-4 -27 -22 -27 -26 0 -3 18 -22 30 -22 14z"/>
<path d="M552 1601 c-8 -5 -12 -22 -10 -42 2 -29 7 -34 31 -37 15 -2 27 1 27
6 0 5 -7 9 -16 8 -9 0 -19 5 -21 12 -3 7 5 12 21 12 28 0 34 18 14 38 -14 14
-28 15 -46 3z m38 -21 c0 -5 -7 -10 -15 -10 -8 0 -15 5 -15 10 0 6 7 10 15 10
8 0 15 -4 15 -10z"/>
<path d="M679 1589 c-13 -26 2 -69 25 -69 31 0 46 13 46 39 0 50 -49 70 -71
30z m51 -23 c0 -31 -14 -40 -30 -21 -15 18 -6 45 15 45 9 0 15 -9 15 -24z"/>
<path d="M770 1549 c0 -33 4 -59 10 -59 6 0 10 7 10 15 0 8 8 15 19 15 30 0
46 27 35 58 -7 21 -16 27 -42 29 l-32 1 0 -59z m57 25 c3 -8 -1 -23 -10 -32
-15 -14 -17 -14 -23 1 -8 21 1 47 16 47 6 0 13 -7 17 -16z"/>
<path d="M869 1589 c-16 -31 3 -69 35 -69 14 0 28 4 31 10 4 6 -3 9 -16 7 -12
-1 -24 4 -26 11 -3 7 5 12 21 12 28 0 34 18 14 38 -19 19 -46 14 -59 -9z m51
-9 c0 -5 -7 -10 -15 -10 -8 0 -15 5 -15 10 0 6 7 10 15 10 8 0 15 -4 15 -10z"/>
<path d="M960 1564 c0 -24 5 -44 10 -44 6 0 10 14 10 30 0 18 6 33 15 36 23 9
18 22 -10 22 -23 0 -25 -4 -25 -44z"/>
<path d="M2980 1555 c0 -32 -4 -55 -11 -55 -5 0 -8 -4 -4 -10 3 -5 12 -7 20
-3 17 6 22 123 5 123 -5 0 -10 -25 -10 -55z"/>
<path d="M3029 1594 c-11 -13 -9 -14 14 -9 16 5 27 3 27 -3 0 -6 -10 -12 -22
-14 -15 -2 -23 -10 -23 -23 0 -15 8 -21 33 -23 31 -3 32 -2 32 36 0 27 -5 42
-16 46 -23 9 -30 8 -45 -10z m39 -46 c-6 -18 -28 -21 -28 -4 0 9 7 16 16 16 9
0 14 -5 12 -12z"/>
<path d="M3110 1604 c0 -24 25 -84 35 -84 10 0 35 60 35 84 0 18 -19 2 -25
-21 l-8 -28 -10 28 c-10 24 -27 38 -27 21z"/>
<path d="M3207 1603 c-14 -13 -6 -24 13 -18 27 9 25 -8 -2 -20 -37 -16 -29
-40 15 -42 35 -1 37 0 37 31 0 18 -5 37 -12 44 -13 13 -41 16 -51 5z m41 -55
c-6 -18 -28 -21 -28 -4 0 9 7 16 16 16 9 0 14 -5 12 -12z"/>
<path d="M3436 1594 c-19 -18 -21 -45 -4 -62 14 -14 58 -16 58 -3 0 5 -7 8
-16 7 -9 0 -19 5 -21 12 -3 7 5 12 21 12 28 0 34 18 14 38 -16 16 -33 15 -52
-4z m44 -14 c0 -5 -7 -10 -15 -10 -8 0 -15 5 -15 10 0 6 7 10 15 10 8 0 15 -4
15 -10z"/>
<path d="M3516 1588 c15 -50 24 -68 33 -68 13 0 34 55 28 77 -3 14 -7 10 -17
-17 l-14 -35 -8 33 c-5 17 -13 32 -19 32 -6 0 -8 -9 -3 -22z"/>
<path d="M3612 1598 c-15 -15 -16 -50 0 -66 15 -15 45 -16 53 -2 4 6 -3 9 -16
7 -12 -1 -24 4 -26 11 -3 8 6 12 26 12 27 0 30 2 22 23 -9 25 -40 34 -59 15z
m38 -18 c0 -5 -7 -10 -15 -10 -8 0 -15 5 -15 10 0 6 7 10 15 10 8 0 15 -4 15
-10z"/>
<path d="M3751 1596 c-7 -8 -11 -27 -9 -43 2 -22 9 -29 31 -31 21 -3 29 2 36
20 18 49 -28 91 -58 54z m39 -30 c0 -31 -14 -40 -30 -21 -15 18 -6 45 15 45 9
0 15 -9 15 -24z"/>
<path d="M3830 1549 c0 -32 5 -61 10 -64 6 -3 10 3 10 13 0 14 9 21 30 26 25
5 30 10 30 35 0 34 -15 49 -52 49 -27 0 -28 -2 -28 -59z m58 14 c-3 -30 -25
-42 -34 -19 -9 22 2 46 21 46 12 0 15 -8 13 -27z"/>
<path d="M3942 1598 c-7 -7 -12 -25 -12 -40 0 -21 6 -29 26 -34 14 -4 30 -2
37 5 9 9 6 11 -12 9 -13 -2 -26 3 -28 10 -3 7 5 12 21 12 15 0 26 6 26 13 0
16 -20 37 -35 37 -6 0 -16 -5 -23 -12z m38 -18 c0 -5 -7 -10 -15 -10 -8 0 -15
5 -15 10 0 6 7 10 15 10 8 0 15 -4 15 -10z"/>
<path d="M4020 1564 c0 -24 5 -44 10 -44 6 0 10 14 10 30 0 18 6 33 15 36 23
9 18 22 -10 22 -23 0 -25 -4 -25 -44z"/>
<path d="M2981 1063 c0 -21 3 -31 6 -23 3 8 11 18 17 22 8 5 7 8 -1 8 -19 0
-16 18 5 23 13 4 11 5 -5 6 -20 1 -23 -4 -22 -36z"/>
<path d="M3080 1065 c0 -19 2 -35 4 -35 2 0 6 16 8 35 2 19 0 35 -4 35 -4 0
-8 -16 -8 -35z"/>
<path d="M3421 1078 c0 -16 2 -18 6 -8 3 8 11 18 17 22 7 5 4 8 -6 8 -12 0
-18 -7 -17 -22z"/>
<path d="M3042 1055 c0 -16 2 -22 5 -12 2 9 2 23 0 30 -3 6 -5 -1 -5 -18z"/>
<path d="M3170 1055 c0 -14 2 -25 4 -25 2 0 6 11 8 25 3 14 1 25 -3 25 -5 0
-9 -11 -9 -25z"/>
<path d="M3212 1055 c0 -16 2 -22 5 -12 2 9 2 23 0 30 -3 6 -5 -1 -5 -18z"/>
<path d="M3242 1055 c0 -16 2 -22 5 -12 2 9 2 23 0 30 -3 6 -5 -1 -5 -18z"/>
<path d="M3328 1045 c-2 -19 0 -35 4 -35 4 0 8 16 8 35 0 19 -2 35 -4 35 -2 0
-6 -16 -8 -35z"/>
<path d="M3567 1073 c-4 -3 -7 -16 -6 -27 0 -19 1 -19 10 3 10 24 8 36 -4 24z"/>
<path d="M3137 1064 c-8 -8 3 -34 14 -34 11 0 12 27 0 34 -4 3 -11 3 -14 0z"/>
<path d="M3272 1050 c0 -14 2 -19 5 -12 2 6 2 18 0 25 -3 6 -5 1 -5 -13z"/>
<path d="M3302 1050 c0 -14 2 -19 5 -12 2 6 2 18 0 25 -3 6 -5 1 -5 -13z"/>
<path d="M3514 1056 c-10 -8 -16 -18 -11 -22 4 -4 7 -2 7 4 0 7 7 12 15 12 8
0 15 5 15 10 0 13 -3 13 -26 -4z"/>
<path d="M3110 1040 c0 -5 5 -10 11 -10 5 0 7 5 4 10 -3 6 -8 10 -11 10 -2 0
-4 -4 -4 -10z"/>
<path d="M367 980 c-3 -11 -2 -20 3 -20 4 0 10 9 13 20 3 11 2 20 -3 20 -4 0
-10 -9 -13 -20z"/>
<path d="M715 980 c3 -5 8 -10 11 -10 2 0 4 5 4 10 0 6 -5 10 -11 10 -5 0 -7
-4 -4 -10z"/>
<path d="M418 963 c20 -8 15 -36 -5 -28 -14 5 -15 3 -6 -6 6 -6 18 -9 27 -6
19 8 9 47 -13 46 -10 0 -11 -2 -3 -6z"/>
<path d="M460 945 c0 -14 2 -25 4 -25 2 0 6 11 8 25 3 14 1 25 -3 25 -5 0 -9
-11 -9 -25z"/>
<path d="M502 945 c0 -16 2 -22 5 -12 2 9 2 23 0 30 -3 6 -5 -1 -5 -18z"/>
<path d="M531 943 c2 -24 2 -25 6 -5 2 12 8 22 13 22 5 0 11 -10 13 -22 4 -20
4 -19 6 5 1 21 -4 27 -19 27 -15 0 -20 -6 -19 -27z"/>
<path d="M603 963 c9 -2 17 -11 17 -19 0 -17 -12 -18 -29 -1 -10 10 -11 9 -6
-5 4 -10 14 -18 22 -18 8 0 11 -5 7 -12 -4 -7 -3 -8 4 -4 7 4 12 20 12 37 0
24 -4 29 -22 28 -17 -1 -19 -2 -5 -6z"/>
<path d="M808 963 c6 -2 12 -12 12 -20 0 -10 -6 -13 -16 -9 -8 3 -12 2 -9 -4
12 -20 35 -10 35 15 0 17 -5 25 -17 24 -11 0 -13 -3 -5 -6z"/>
<path d="M851 943 c1 -22 2 -23 6 -8 3 11 10 23 17 27 7 5 5 8 -6 8 -13 0 -18
-7 -17 -27z"/>
<path d="M278 923 c6 -2 18 -2 25 0 6 3 1 5 -13 5 -14 0 -19 -2 -12 -5z"/>
<path d="M560 470 c0 -5 5 -10 10 -10 6 0 10 5 10 10 0 6 -4 10 -10 10 -5 0
-10 -4 -10 -10z"/>
<path d="M1066 473 c-3 -3 -6 -33 -6 -65 0 -45 3 -58 15 -58 10 0 15 11 15 35
0 24 5 35 15 35 10 0 15 -11 15 -35 0 -19 5 -35 11 -35 6 0 9 17 7 43 -2 35
-7 43 -25 45 -13 2 -23 10 -23 17 0 16 -14 27 -24 18z"/>
<path d="M1160 470 c0 -5 5 -10 10 -10 6 0 10 5 10 10 0 6 -4 10 -10 10 -5 0
-10 -4 -10 -10z"/>
<path d="M3270 470 c0 -5 5 -10 10 -10 6 0 10 5 10 10 0 6 -4 10 -10 10 -5 0
-10 -4 -10 -10z"/>
<path d="M274 455 c-9 -23 3 -44 32 -56 19 -7 24 -13 17 -20 -7 -7 -17 -7 -31
2 -25 16 -40 5 -22 -16 17 -21 67 -19 79 3 12 23 -2 48 -34 56 -30 8 -33 26
-5 26 11 0 20 -5 20 -12 0 -9 3 -9 11 -1 6 6 8 16 5 22 -11 17 -66 13 -72 -4z"/>
<path d="M831 452 c-6 -11 -16 -38 -24 -60 -16 -45 -7 -54 25 -25 17 15 19 15
36 0 38 -34 42 -13 12 57 -21 50 -34 57 -49 28z m29 -42 c0 -5 -4 -10 -10 -10
-5 0 -10 5 -10 10 0 6 5 10 10 10 6 0 10 -4 10 -10z"/>
<path d="M2987 463 c-16 -16 -5 -44 24 -59 23 -11 28 -19 20 -27 -8 -8 -14 -8
-23 1 -7 7 -18 12 -25 12 -11 0 -11 -5 -3 -20 21 -39 102 -16 86 25 -3 8 -17
20 -31 25 -37 14 -32 33 7 24 29 -6 31 -5 19 10 -13 16 -62 22 -74 9z"/>
<path d="M3510 410 c0 -47 3 -60 15 -60 10 0 15 10 15 33 l1 32 14 -32 c18
-43 29 -41 48 5 l15 37 1 -37 c2 -63 21 -42 21 22 0 72 -19 81 -48 23 l-19
-37 -12 37 c-9 26 -18 37 -32 37 -17 0 -19 -7 -19 -60z"/>
<path d="M1208 448 c-3 -7 -3 -32 0 -55 3 -32 8 -43 21 -43 13 0 16 9 15 44
-2 46 -9 66 -24 66 -4 0 -10 -6 -12 -12z"/>
<path d="M1441 446 c-8 -10 -9 -16 -1 -21 5 -3 10 -22 10 -41 0 -27 4 -34 20
-34 11 0 20 5 20 10 0 6 -5 10 -11 10 -7 0 -10 12 -7 33 8 52 -6 73 -31 43z"/>
<path d="M377 433 c-14 -13 -7 -71 9 -77 29 -11 54 -6 54 10 0 10 -6 14 -15
11 -8 -4 -17 -2 -20 3 -4 6 5 10 19 10 27 0 30 7 20 34 -6 16 -54 22 -67 9z"/>
<path d="M460 396 c0 -34 4 -46 15 -46 10 0 15 11 15 35 0 19 5 35 10 35 6 0
10 -16 10 -35 0 -25 4 -35 16 -35 12 0 14 9 12 43 -3 41 -4 42 -40 45 l-38 3
0 -45z"/>
<path d="M560 395 c0 -43 11 -58 25 -34 9 14 -4 79 -15 79 -6 0 -10 -20 -10
-45z"/>
<path d="M607 434 c-12 -13 -8 -61 7 -74 8 -6 25 -10 38 -8 20 3 23 9 23 43 0
37 -2 40 -30 43 -17 2 -34 0 -38 -4z m50 -30 c9 -23 -11 -38 -26 -20 -13 16
-7 36 10 36 5 0 12 -7 16 -16z"/>
<path d="M700 395 c0 -25 5 -45 10 -45 6 0 10 14 10 30 0 18 6 33 15 36 24 9
17 24 -10 24 -23 0 -25 -4 -25 -45z"/>
<path d="M910 395 c0 -33 4 -45 15 -45 10 0 15 11 15 35 0 24 5 35 15 35 8 0
15 5 15 10 0 6 -13 10 -30 10 -29 0 -30 -2 -30 -45z"/>
<path d="M974 417 c-3 -14 -1 -35 6 -46 13 -25 55 -28 64 -5 5 13 1 15 -19 10
-22 -6 -25 -3 -25 19 0 22 3 25 26 19 20 -5 25 -3 22 7 -2 8 -19 15 -36 17
-26 3 -32 -1 -38 -21z"/>
<path d="M1160 394 c0 -28 4 -44 11 -42 6 2 10 7 10 11 -1 4 -1 23 -1 42 0 19
-4 35 -10 35 -5 0 -10 -21 -10 -46z"/>
<path d="M1264 413 c-4 -14 -2 -33 3 -42 11 -17 64 -23 61 -6 -1 6 -8 9 -14 7
-7 -1 -15 2 -19 8 -4 6 4 10 19 10 14 0 26 4 26 9 0 26 -15 41 -41 41 -23 0
-30 -6 -35 -27z"/>
<path d="M1354 413 c-13 -49 37 -83 67 -47 13 16 11 17 -13 12 -24 -5 -28 -2
-28 19 0 20 4 22 25 17 20 -5 24 -3 19 10 -4 10 -18 16 -35 16 -23 0 -30 -6
-35 -27z"/>
<path d="M3084 413 c-4 -14 -2 -33 3 -42 11 -17 63 -22 63 -6 0 6 -7 10 -14
10 -8 0 -18 4 -22 8 -4 4 5 7 19 7 15 0 27 4 27 9 0 26 -15 41 -41 41 -23 0
-30 -6 -35 -27z"/>
<path d="M3170 396 c0 -34 4 -46 15 -46 10 0 15 11 15 35 0 19 5 35 10 35 6 0
10 -16 10 -35 0 -25 4 -35 16 -35 12 0 14 9 12 43 -3 41 -4 42 -40 45 l-38 3
0 -45z"/>
<path d="M3270 396 c0 -35 4 -46 16 -46 12 0 14 9 12 42 -4 59 -28 63 -28 4z"/>
<path d="M3317 433 c-11 -11 -8 -58 5 -71 36 -36 93 11 69 57 -11 20 -59 30
-74 14z m53 -32 c0 -11 -5 -23 -11 -27 -14 -8 -29 14 -22 33 8 20 33 16 33 -6z"/>
<path d="M3410 395 c0 -25 5 -45 10 -45 6 0 10 14 10 30 0 18 6 33 15 36 24 9
17 24 -10 24 -23 0 -25 -4 -25 -45z"/>
<path d="M3665 430 c-4 -6 6 -10 22 -11 l28 -1 -28 -10 c-21 -7 -27 -16 -25
-32 2 -16 11 -22 41 -24 36 -3 37 -2 37 30 0 19 -5 39 -12 46 -15 15 -54 16
-63 2z m45 -44 c0 -3 -4 -8 -10 -11 -5 -3 -10 -1 -10 4 0 6 5 11 10 11 6 0 10
-2 10 -4z"/>
<path d="M3750 396 c0 -34 4 -46 15 -46 10 0 15 11 15 35 0 19 5 35 10 35 6 0
10 -16 10 -35 0 -25 4 -35 16 -35 12 0 14 9 12 43 -3 41 -4 42 -40 45 l-38 3
0 -45z"/>
<path d="M3850 431 c0 -6 10 -11 23 -11 22 0 21 -1 -3 -13 -14 -7 -25 -21 -25
-32 0 -16 8 -21 38 -23 l38 -3 -3 43 c-3 40 -5 43 -35 46 -19 2 -33 -1 -33 -7z
m40 -51 c0 -5 -4 -10 -10 -10 -5 0 -10 5 -10 10 0 6 5 10 10 10 6 0 10 -4 10
-10z"/>
<path d="M3940 424 c-19 -22 -1 -66 30 -75 l25 -7 -27 -1 c-16 -1 -28 -6 -28
-12 0 -6 16 -9 38 -7 l37 3 3 58 3 57 -34 0 c-19 0 -40 -7 -47 -16z m48 -26
c-2 -13 -7 -23 -13 -23 -5 0 -11 10 -13 23 -2 15 2 22 13 22 11 0 15 -7 13
-22z"/>
<path d="M4042 428 c-16 -16 -15 -53 2 -68 19 -15 58 -10 64 9 3 9 -1 11 -16
7 -11 -4 -23 -2 -27 4 -4 6 4 10 20 10 22 0 26 4 23 23 -3 25 -45 36 -66 15z
m45 -14 c-3 -3 -12 -4 -19 -1 -8 3 -5 6 6 6 11 1 17 -2 13 -5z"/>
<path d="M4130 395 c0 -25 5 -45 10 -45 6 0 10 16 10 35 0 24 5 35 15 35 8 0
15 5 15 10 0 6 -11 10 -25 10 -23 0 -25 -4 -25 -45z"/>
<path d="M260 243 l0 -32 53 1 c28 1 44 3 35 5 -10 3 -18 10 -18 16 0 7 -12
13 -26 14 -15 0 -30 7 -35 15 -6 9 -9 3 -9 -19z m35 -13 c3 -5 -1 -10 -10 -10
-9 0 -13 5 -10 10 3 6 8 10 10 10 2 0 7 -4 10 -10z"/>
<path d="M592 240 c0 -19 2 -27 5 -17 2 9 2 25 0 35 -3 9 -5 1 -5 -18z"/>
<path d="M740 257 c0 -8 7 -18 16 -21 8 -3 12 -11 8 -17 -4 -8 -3 -9 5 -5 6 4
18 3 26 -4 9 -8 15 -8 20 0 4 6 1 9 -7 8 -8 -2 -12 4 -10 15 2 9 -2 17 -8 17
-5 0 -10 -6 -10 -12 -1 -7 -10 -2 -20 11 -14 16 -20 19 -20 8z"/>
<path d="M1012 245 c-7 -14 -12 -27 -12 -28 0 -1 29 -3 65 -5 65 -3 79 4 50
28 -9 8 -15 8 -15 2 0 -6 6 -13 13 -15 8 -4 8 -6 -2 -6 -8 -1 -24 7 -35 17
-20 16 -20 16 -7 0 12 -16 11 -18 -3 -18 -9 0 -21 11 -26 25 -12 31 -14 31
-28 0z"/>
<path d="M1632 240 c0 -19 2 -27 5 -17 2 9 2 25 0 35 -3 9 -5 1 -5 -18z"/>
<path d="M1839 268 c-7 -15 -6 -58 2 -58 5 0 9 14 9 30 0 25 -6 39 -11 28z"/>
<path d="M1973 246 c0 -16 2 -24 6 -20 10 14 35 10 43 -6 4 -9 7 -1 7 20 1 32
0 33 -16 18 -15 -16 -17 -16 -28 -1 -11 15 -12 13 -12 -11z"/>
<path d="M2160 242 c0 -29 1 -29 55 -30 48 0 55 2 55 19 0 10 -7 19 -15 19 -8
0 -15 -7 -15 -15 0 -8 -4 -15 -10 -15 -5 0 -10 4 -10 9 0 5 -7 11 -14 14 -11
4 -13 1 -9 -10 4 -11 2 -14 -8 -11 -8 3 -13 12 -11 21 1 8 -2 18 -8 22 -6 4
-10 -6 -10 -23z"/>
<path d="M2970 243 c0 -18 5 -33 10 -33 6 0 10 7 10 16 0 8 5 12 10 9 6 -4 8
-10 5 -15 -3 -5 32 -8 77 -7 71 2 83 5 84 20 1 12 1 13 -3 2 -6 -20 -11 -19
-34 8 -16 19 -18 19 -19 5 0 -20 -15 -24 -25 -8 -8 14 -35 13 -35 -1 0 -6 7
-9 15 -6 8 4 17 2 20 -3 4 -6 -5 -10 -19 -10 -14 0 -26 6 -26 13 0 6 -12 13
-26 14 -15 0 -30 7 -35 15 -6 9 -9 2 -9 -19z"/>
<path d="M3450 244 c0 -16 4 -24 8 -19 8 12 44 16 37 5 -3 -5 -1 -11 5 -15 6
-4 10 6 10 24 0 31 -14 42 -23 19 -3 -10 -7 -10 -20 1 -15 12 -17 10 -17 -15z"/>
<path d="M3826 261 c-4 -7 -5 -15 -2 -18 9 -9 19 4 14 18 -4 11 -6 11 -12 0z"/>
<path d="M4706 261 c-3 -5 1 -15 10 -22 14 -12 14 -14 -3 -20 -16 -7 -15 -8 5
-8 25 -1 31 26 7 35 -8 4 -12 10 -9 15 3 5 3 9 0 9 -3 0 -7 -4 -10 -9z"/>
<path d="M400 243 c0 -12 -3 -13 -14 -3 -12 9 -15 8 -13 -7 1 -15 9 -19 32
-19 25 1 31 4 27 18 -5 22 -32 32 -32 11z"/>
<path d="M1650 235 c0 -14 4 -25 9 -25 4 0 6 11 3 25 -2 14 -6 25 -8 25 -2 0
-4 -11 -4 -25z"/>
<path d="M1780 235 c0 -14 2 -25 4 -25 2 0 6 11 8 25 3 14 1 25 -3 25 -5 0 -9
-11 -9 -25z"/>
<path d="M3302 235 c0 -16 2 -22 5 -12 2 9 2 23 0 30 -3 6 -5 -1 -5 -18z"/>
<path d="M4122 235 c0 -16 2 -22 5 -12 2 9 2 23 0 30 -3 6 -5 -1 -5 -18z"/>
<path d="M4460 235 c0 -14 3 -25 8 -25 4 0 7 11 7 25 0 14 -3 25 -7 25 -5 0
-8 -11 -8 -25z"/>
<path d="M4640 251 c0 -23 14 -41 31 -41 10 0 19 4 19 10 0 5 -7 7 -15 4 -10
-4 -15 0 -15 15 0 12 -4 21 -10 21 -5 0 -10 -4 -10 -9z"/>
<path d="M340 240 c0 -5 5 -10 10 -10 6 0 10 5 10 10 0 6 -4 10 -10 10 -5 0
-10 -4 -10 -10z"/>
<path d="M452 230 c0 -14 2 -19 5 -12 2 6 2 18 0 25 -3 6 -5 1 -5 -13z"/>
<path d="M482 230 c0 -14 2 -19 5 -12 2 6 2 18 0 25 -3 6 -5 1 -5 -13z"/>
<path d="M501 238 c-1 -23 18 -33 25 -14 5 13 9 12 23 -6 13 -15 20 -18 25 -9
5 7 2 10 -5 9 -7 -2 -13 2 -14 9 0 20 -14 26 -29 14 -11 -9 -15 -9 -19 1 -4 9
-6 7 -6 -4z"/>
<path d="M610 240 c0 -5 5 -10 11 -10 5 0 7 5 4 10 -3 6 -8 10 -11 10 -2 0 -4
-4 -4 -10z"/>
<path d="M633 230 l-23 -18 37 0 c20 0 31 3 26 7 -6 3 -12 11 -14 18 -3 8 -11
6 -26 -7z"/>
<path d="M810 244 c0 -3 7 -12 15 -20 13 -14 15 -13 15 5 0 12 -6 21 -15 21
-8 0 -15 -3 -15 -6z"/>
<path d="M861 234 c0 -11 3 -14 6 -6 3 7 2 16 -1 19 -3 4 -6 -2 -5 -13z"/>
<path d="M882 230 c0 -14 2 -19 5 -12 2 6 2 18 0 25 -3 6 -5 1 -5 -13z"/>
<path d="M901 233 c-1 -17 5 -23 19 -23 11 0 20 4 20 10 0 5 -6 7 -14 4 -8 -3
-16 2 -19 13 -4 14 -5 14 -6 -4z"/>
<path d="M952 230 c0 -14 2 -19 5 -12 2 6 2 18 0 25 -3 6 -5 1 -5 -13z"/>
<path d="M1141 233 c-1 -16 5 -23 18 -23 11 0 22 6 24 13 4 10 6 10 6 0 1 -7
9 -13 19 -12 10 0 12 3 5 6 -7 2 -13 10 -13 17 0 7 -7 13 -15 13 -8 0 -15 -6
-15 -14 0 -19 -18 -16 -23 5 -4 13 -5 11 -6 -5z"/>
<path d="M1251 233 c-1 -17 5 -23 19 -23 14 0 20 6 19 23 -1 16 -2 18 -6 5 -2
-10 -8 -18 -13 -18 -5 0 -11 8 -13 18 -4 13 -5 11 -6 -5z"/>
<path d="M1401 233 c-1 -20 4 -21 54 -21 46 1 55 4 55 20 0 22 -18 24 -26 3
-7 -18 -30 -20 -37 -2 -4 10 -6 10 -6 0 -1 -19 -29 -15 -34 5 -4 13 -5 12 -6
-5z"/>
<path d="M1520 233 c0 -19 5 -23 29 -23 16 0 32 6 34 13 4 10 6 10 6 0 2 -24
31 -14 30 10 0 20 -1 20 -8 3 -5 -14 -10 -16 -15 -8 -4 7 -12 9 -18 6 -6 -4
-15 0 -20 7 -8 11 -9 10 -4 -3 3 -10 3 -18 -1 -18 -3 0 -12 8 -19 18 -12 16
-13 15 -14 -5z"/>
<path d="M1681 233 c-1 -17 5 -23 19 -23 14 0 20 6 19 23 -1 16 -2 18 -6 5 -2
-10 -8 -18 -13 -18 -5 0 -11 8 -13 18 -4 13 -5 11 -6 -5z"/>
<path d="M1732 230 c0 -14 2 -19 5 -12 2 6 2 18 0 25 -3 6 -5 1 -5 -13z"/>
<path d="M1762 230 c0 -14 2 -19 5 -12 2 6 2 18 0 25 -3 6 -5 1 -5 -13z"/>
<path d="M1890 235 c0 -18 -16 -20 -23 -2 -3 7 -6 5 -6 -6 -1 -13 6 -17 29
-15 21 2 30 7 30 20 0 10 -7 18 -15 18 -8 0 -15 -7 -15 -15z"/>
<path d="M2041 232 c-1 -17 4 -23 16 -20 10 2 18 11 19 21 1 12 1 13 -3 2 -6
-20 -20 -19 -26 3 -3 12 -5 11 -6 -6z"/>
<path d="M2110 243 c0 -5 5 -15 10 -23 8 -12 10 -11 10 8 0 12 -4 22 -10 22
-5 0 -10 -3 -10 -7z"/>
<path d="M3214 237 c3 -10 6 -21 6 -23 0 -2 5 -4 10 -4 6 0 10 7 10 16 0 13 4
11 18 -7 15 -17 21 -19 27 -9 5 9 4 11 -3 6 -8 -5 -12 0 -12 13 0 22 -24 29
-36 10 -4 -8 -9 -7 -16 2 -7 11 -8 9 -4 -4z"/>
<path d="M3330 238 c14 -16 13 -31 -2 -22 -7 4 -8 3 -4 -5 4 -6 13 -8 19 -4 7
4 21 7 32 6 11 -2 14 0 8 3 -7 3 -13 13 -13 21 0 12 -3 13 -13 4 -9 -7 -18 -7
-25 -1 -9 7 -9 7 -2 -2z"/>
<path d="M3551 236 c-1 -12 -6 -16 -16 -12 -8 3 -15 1 -15 -4 0 -6 14 -9 30
-8 23 2 30 7 30 23 0 15 -2 17 -9 6 -7 -11 -9 -11 -14 0 -4 9 -6 8 -6 -5z"/>
<path d="M3601 234 c0 -11 3 -14 6 -6 3 7 2 16 -1 19 -3 4 -6 -2 -5 -13z"/>
<path d="M3621 231 c-1 -20 3 -23 25 -18 16 3 28 0 31 -9 7 -19 33 -18 33 1 0
8 6 12 14 9 11 -4 13 0 9 16 -4 15 -8 18 -13 10 -6 -9 -9 -9 -13 1 -4 10 -6 9
-6 -3 -1 -21 -21 -25 -21 -5 0 8 -7 14 -15 14 -8 0 -15 -6 -15 -14 0 -19 -18
-16 -23 5 -3 12 -5 10 -6 -7z"/>
<path d="M3757 244 c-8 -8 3 -34 14 -34 5 0 9 9 9 20 0 19 -11 26 -23 14z"/>
<path d="M3851 233 c-1 -18 4 -23 22 -22 15 1 17 3 5 6 -9 2 -19 12 -21 21 -3
12 -5 10 -6 -5z"/>
<path d="M3900 230 c0 -11 2 -20 4 -20 2 0 6 9 9 20 3 11 1 20 -4 20 -5 0 -9
-9 -9 -20z"/>
<path d="M3961 232 c-1 -19 4 -22 29 -20 21 2 30 7 30 20 0 10 -7 18 -15 18
-8 0 -15 -7 -15 -15 0 -21 -18 -19 -23 3 -4 13 -5 11 -6 -6z"/>
<path d="M4041 234 c0 -11 3 -14 6 -6 3 7 2 16 -1 19 -3 4 -6 -2 -5 -13z"/>
<path d="M4063 231 c1 -12 7 -21 14 -21 17 0 16 15 -1 30 -12 9 -15 8 -13 -9z"/>
<path d="M4170 239 c0 -5 5 -7 10 -4 6 3 10 8 10 11 0 2 -4 4 -10 4 -5 0 -10
-5 -10 -11z"/>
<path d="M4210 226 c0 -23 2 -24 32 -15 18 5 33 9 34 9 0 0 1 7 1 15 0 8 -6
15 -14 15 -7 0 -13 -7 -13 -16 0 -9 -6 -14 -12 -11 -7 2 -12 10 -10 16 1 6 -2
11 -8 11 -5 0 -10 -11 -10 -24z"/>
<path d="M4292 235 c4 -23 39 -27 45 -5 4 13 3 13 -6 0 -10 -13 -13 -12 -27 5
l-16 20 4 -20z"/>
<path d="M4351 238 c0 -9 -4 -25 -7 -35 -5 -14 -4 -15 5 -7 7 7 11 22 8 35 -2
13 -5 16 -6 7z"/>
<path d="M4370 230 c0 -11 4 -20 9 -20 5 0 7 9 4 20 -3 11 -7 20 -9 20 -2 0
-4 -9 -4 -20z"/>
<path d="M4403 230 c0 -9 7 -17 13 -17 7 0 12 8 11 17 0 9 -7 17 -13 17 -7 0
-12 -8 -11 -17z"/>
<path d="M4498 238 c10 -13 10 -17 0 -21 -8 -4 -7 -6 5 -6 9 -1 17 3 17 8 0 5
-8 15 -17 22 -16 13 -17 12 -5 -3z"/>
<path d="M4570 230 c0 -11 2 -20 4 -20 2 0 6 9 9 20 3 11 1 20 -4 20 -5 0 -9
-9 -9 -20z"/>
<path d="M4602 230 c0 -14 2 -19 5 -12 2 6 2 18 0 25 -3 6 -5 1 -5 -13z"/>
<path d="M4774 230 c1 -8 11 -16 24 -18 18 -3 22 1 21 20 -1 17 -3 18 -6 6 -5
-21 -30 -24 -36 -5 -2 7 -3 6 -3 -3z"/>
<path d="M4832 230 c0 -14 2 -19 5 -12 2 6 2 18 0 25 -3 6 -5 1 -5 -13z"/>
<path d="M4867 243 c-16 -15 -5 -29 23 -31 24 -2 30 2 30 18 0 11 -4 20 -10
20 -5 0 -10 -7 -10 -15 0 -8 -5 -15 -11 -15 -6 0 -9 7 -5 15 5 15 -5 20 -17 8z"/>
<path d="M1231 224 c0 -11 3 -14 6 -6 3 7 2 16 -1 19 -3 4 -6 -2 -5 -13z"/>
<path d="M1330 228 c0 -12 7 -18 23 -17 15 0 17 2 7 6 -8 3 -18 11 -22 17 -5
7 -8 4 -8 -6z"/>
<path d="M3191 224 c0 -11 3 -14 6 -6 3 7 2 16 -1 19 -3 4 -6 -2 -5 -13z"/>
<path d="M4101 224 c0 -11 3 -14 6 -6 3 7 2 16 -1 19 -3 4 -6 -2 -5 -13z"/>
<path d="M4140 231 c0 -6 4 -12 8 -15 5 -3 9 1 9 9 0 8 -4 15 -9 15 -4 0 -8
-4 -8 -9z"/>
<path d="M260 130 c0 -28 4 -39 11 -34 7 4 36 7 66 6 40 0 52 3 44 11 -16 16
-14 27 5 27 8 0 13 -4 10 -9 -9 -14 4 -39 17 -37 7 1 18 6 26 10 9 6 12 5 8
-2 -5 -6 1 -8 14 -5 12 4 25 0 31 -8 8 -11 9 -10 4 4 -4 12 -2 16 6 11 7 -4
22 -8 35 -9 18 0 23 5 23 23 0 13 4 21 9 18 5 -3 7 -16 3 -28 -3 -14 -2 -19 6
-14 7 4 12 19 12 33 0 24 -2 25 -50 21 -28 -1 -50 -1 -50 2 0 3 -9 6 -20 7
-11 1 -20 -1 -20 -5 0 -4 -30 -6 -67 -5 -54 2 -71 -1 -81 -15 -11 -14 -14 -15
-22 -2 -5 8 -7 17 -4 21 2 4 0 10 -6 14 -6 4 -10 -10 -10 -35z m217 -12 c-3
-8 -6 -5 -6 6 -1 11 2 17 5 13 3 -3 4 -12 1 -19z m53 12 c0 -5 -4 -10 -10 -10
-5 0 -10 5 -10 10 0 6 5 10 10 10 6 0 10 -4 10 -10z"/>
<path d="M2972 139 c3 -29 7 -34 30 -34 14 1 24 -3 22 -7 -3 -4 -1 -8 4 -8 6
0 13 7 16 16 5 13 9 14 20 5 9 -8 16 -8 20 -2 4 5 2 13 -4 16 -6 4 -8 16 -4
28 5 17 4 19 -6 10 -8 -8 -20 -9 -36 -3 -21 8 -24 7 -24 -15 0 -14 -4 -25 -10
-25 -5 0 -10 9 -10 19 0 11 -5 23 -11 26 -7 5 -9 -5 -7 -26z"/>
<path d="M2880 88 c0 -16 -81 -17 -1341 -18 -932 0 -1346 3 -1354 10 -9 8 -15
8 -20 0 -3 -5 -41 -10 -86 -10 l-79 0 0 -35 0 -35 2830 0 2830 0 0 35 c0 31
-3 35 -27 35 -16 0 -636 0 -1380 0 -1276 0 -1353 1 -1362 18 -10 16 -10 16
-11 0z"/>
</g>
</svg>
