<?xml version="1.0" encoding="UTF-8"?>
<svg version="1.1" xmlns="http://www.w3.org/2000/svg" width="512" height="512">
<path d="M0 0 C0.96955627 0.00182281 1.93911255 0.00364563 2.93804932 0.00552368 C17.26979259 0.05087263 31.28395512 0.46954578 45.375 3.3125 C46.27686035 3.48942383 47.1787207 3.66634766 48.10791016 3.84863281 C54.58082573 5.14747811 60.98520862 6.65426195 67.375 8.3125 C68.62095947 8.63492676 68.62095947 8.63492676 69.89208984 8.96386719 C110.36050039 19.69661908 147.29181601 41.33809622 177.375 70.3125 C178.3640332 71.26068604 178.3640332 71.26068604 179.37304688 72.22802734 C188.86130305 81.37247479 197.6012044 90.66984009 205.375 101.3125 C206.23306152 102.46355017 207.09113451 103.61459177 207.94921875 104.765625 C213.98791574 112.95680857 219.3588509 121.46247349 224.375 130.3125 C224.77187012 131.00375977 225.16874023 131.69501953 225.57763672 132.40722656 C247.03109703 170.1060878 256.85596553 212.80939995 256.6875 255.9375 C256.68476578 257.39183441 256.68476578 257.39183441 256.68197632 258.87554932 C256.63662737 273.20729259 256.21795422 287.22145512 253.375 301.3125 C253.19807617 302.21436035 253.02115234 303.1162207 252.83886719 304.04541016 C251.54002189 310.51832573 250.03323805 316.92270862 248.375 323.3125 C248.16004883 324.14313965 247.94509766 324.9737793 247.72363281 325.82958984 C236.99088092 366.29800039 215.34940378 403.22931601 186.375 433.3125 C185.74287598 433.97185547 185.11075195 434.63121094 184.45947266 435.31054688 C175.31502521 444.79880305 166.01765991 453.5387044 155.375 461.3125 C154.22394983 462.17056152 153.07290823 463.02863451 151.921875 463.88671875 C143.73069143 469.92541574 135.22502651 475.2963509 126.375 480.3125 C125.68374023 480.70937012 124.99248047 481.10624023 124.28027344 481.51513672 C86.58140261 502.96860249 43.87810659 512.79344934 0.75 512.625 C-0.70483292 512.62226578 -0.70483292 512.62226578 -2.1890564 512.61947632 C-16.54056055 512.57408309 -30.50442918 512.0687347 -44.625 509.3125 C-45.52202637 509.15152832 -46.41905273 508.99055664 -47.34326172 508.82470703 C-90.94811969 500.93444853 -132.08490471 481.24485057 -165.625 452.3125 C-166.37007813 451.67828125 -167.11515625 451.0440625 -167.8828125 450.390625 C-181.38779833 438.57948485 -194.05918743 425.82889772 -204.625 411.3125 C-205.48149066 410.16255169 -206.33826433 409.01281411 -207.1953125 407.86328125 C-213.23648664 399.67160544 -218.60795056 391.164115 -223.625 382.3125 C-224.02187012 381.62124023 -224.41874023 380.92998047 -224.82763672 380.21777344 C-246.28109703 342.5189122 -256.10596553 299.81560005 -255.9375 256.6875 C-255.93476578 255.23316559 -255.93476578 255.23316559 -255.93197632 253.74945068 C-255.88662737 239.41770741 -255.46795422 225.40354488 -252.625 211.3125 C-252.44807617 210.41063965 -252.27115234 209.5087793 -252.08886719 208.57958984 C-250.79002189 202.10667427 -249.28323805 195.70229138 -247.625 189.3125 C-247.41004883 188.48186035 -247.19509766 187.6512207 -246.97363281 186.79541016 C-236.24088092 146.32699961 -214.59940378 109.39568399 -185.625 79.3125 C-184.99287598 78.65314453 -184.36075195 77.99378906 -183.70947266 77.31445312 C-174.56502521 67.82619695 -165.26765991 59.0862956 -154.625 51.3125 C-153.47394983 50.45443848 -152.32290823 49.59636549 -151.171875 48.73828125 C-142.98069143 42.69958426 -134.47502651 37.3286491 -125.625 32.3125 C-124.58811035 31.71719482 -124.58811035 31.71719482 -123.53027344 31.10986328 C-85.8314122 9.65640297 -43.12810005 -0.16846553 0 0 Z M-31.02734375 101.19921875 C-37.84244343 110.2138127 -41.73040691 121.00882284 -40.625 132.3125 C-38.89686144 143.7810559 -33.90767078 153.48675585 -24.78515625 160.81640625 C-13.76219233 168.45075558 -2.81017281 170.50731915 10.375 168.3125 C21.44941381 165.50783659 29.82385781 158.19860519 35.97265625 148.765625 C38.94095154 143.5731753 40.76495786 138.29091294 41.375 132.3125 C41.43945312 131.68085938 41.50390625 131.04921875 41.5703125 130.3984375 C42.14498793 119.86272135 38.18317865 109.28305061 31.375 101.3125 C22.5946924 92.1901025 13.24148806 87.37474965 0.5 87 C-11.60154611 87.25845011 -22.7074306 92.32857849 -31.02734375 101.19921875 Z M-34.625 203.3125 C-34.82726967 206.17395087 -34.90298605 208.93919102 -34.89242554 211.80221558 C-34.89695665 212.69131658 -34.90148776 213.58041758 -34.90615618 214.49646103 C-34.91887728 217.49362361 -34.91717487 220.49060628 -34.91552734 223.48779297 C-34.9215078 225.62935624 -34.92831222 227.77091735 -34.93588257 229.91247559 C-34.9535992 235.74302975 -34.95824033 241.57352528 -34.95951414 247.40410376 C-34.96140945 252.26513548 -34.96876275 257.12615343 -34.97585833 261.98717988 C-34.9921615 273.45256057 -34.99702553 284.91790983 -34.99560547 296.38330078 C-34.99440361 308.22464314 -35.01551001 320.06580335 -35.0470928 331.9070996 C-35.07321313 342.06084265 -35.08397455 352.21452606 -35.08269465 362.36830246 C-35.08218376 368.43826638 -35.08793703 374.50806855 -35.10905075 380.57799911 C-35.12836165 386.28581529 -35.12860664 391.99331424 -35.11401749 397.70114136 C-35.11191937 399.79901719 -35.11668953 401.89691251 -35.1287384 403.99475479 C-35.14409524 406.85315292 -35.13494625 409.71044412 -35.11947632 412.56881714 C-35.12976344 413.40402826 -35.14005057 414.23923939 -35.15064943 415.09975994 C-35.10715357 418.72273591 -34.9518153 420.86955094 -32.76958656 423.82723427 C-29.90509477 425.81108121 -28.01427369 425.81985394 -24.54296875 425.83007812 C-22.70085815 425.84899109 -22.70085815 425.84899109 -20.8215332 425.86828613 C-19.48518295 425.86112627 -18.14883795 425.85292227 -16.8125 425.84375 C-15.43774135 425.84644577 -14.06298456 425.85032889 -12.68823242 425.85534668 C-9.80987356 425.86123793 -6.93201191 425.85269176 -4.05371094 425.83398438 C-0.36795984 425.81119389 3.31662622 425.82431913 7.00233459 425.84827423 C9.84029893 425.86274299 12.67798798 425.85812154 15.51596069 425.84776306 C16.87470641 425.8450987 18.23347728 425.84835541 19.5921936 425.85768127 C21.49244699 425.86786241 23.39278824 425.84958729 25.29296875 425.83007812 C26.37344482 425.82689575 27.4539209 425.82371338 28.56713867 425.82043457 C32.22672812 425.15842467 33.16734173 424.30347086 35.375 421.3125 C35.76557886 418.27851409 35.91111795 415.60891189 35.87620544 412.57554626 C35.88173984 411.68403085 35.88727424 410.79251543 35.89297634 409.8739844 C35.90661219 406.88047017 35.89159769 403.88778545 35.87670898 400.89428711 C35.88049106 398.7508051 35.88599018 396.60732554 35.89308167 394.46385193 C35.90706714 388.63752337 35.89584505 382.81148908 35.87937045 376.9851768 C35.86554355 370.89535321 35.87197727 364.80554711 35.87550354 358.7157135 C35.87820732 348.48905684 35.86471484 338.26251744 35.84155273 328.03588867 C35.8149349 316.20131844 35.81319756 304.36694421 35.8249411 292.5323543 C35.83570804 281.16056232 35.82954078 269.78884145 35.81538582 258.41705513 C35.80961733 253.57139982 35.80971546 248.7257964 35.81445122 243.8801403 C35.81921216 238.17806275 35.80915595 232.47620073 35.78749657 226.7741642 C35.78191673 224.67749127 35.7814743 222.58079768 35.78644943 220.48412323 C35.79237419 217.62999705 35.77995135 214.77653618 35.76268005 211.92247009 C35.7686901 211.08571037 35.77470014 210.24895064 35.78089231 209.38683456 C35.86212945 205.19001258 35.86212945 205.19001258 33.9664045 201.6197415 C30.67743122 198.91805104 26.96091077 199.18333868 22.85961914 199.16723633 C21.20253685 199.15766655 21.20253685 199.15766655 19.51197815 199.14790344 C18.32337692 199.14679062 17.1347757 199.1456778 15.91015625 199.14453125 C14.68469589 199.14120285 13.45923553 199.13787445 12.19664001 199.13444519 C9.60513687 199.12938284 7.01362722 199.12703665 4.42211914 199.12719727 C0.4564339 199.12501044 -3.50897334 199.10684611 -7.47460938 199.08789062 C-9.99218655 199.08495665 -12.50976504 199.08297188 -15.02734375 199.08203125 C-16.21392075 199.07484573 -17.40049774 199.06766022 -18.62303162 199.06025696 C-19.7309053 199.06333359 -20.83877899 199.06641022 -21.98022461 199.06958008 C-22.95189072 199.06815506 -23.92355682 199.06673004 -24.92466736 199.06526184 C-28.97919541 199.43648798 -31.73814485 200.42564485 -34.625 203.3125 Z " fill="#000000" transform="translate(255.625,-0.3125)"/>
</svg>
