<?xml version="1.0" standalone="no"?>
<!DOCTYPE svg PUBLIC "-//W3C//DTD SVG 20010904//EN"
 "http://www.w3.org/TR/2001/REC-SVG-20010904/DTD/svg10.dtd">
<svg version="1.0" xmlns="http://www.w3.org/2000/svg"
 width="50.000000pt" height="50.000000pt" viewBox="0 0 50.000000 50.000000"
 preserveAspectRatio="xMidYMid meet">

<g transform="translate(0.000000,50.000000) scale(0.100000,-0.100000)"
fill="#000000" stroke="none">
<path d="M0 441 c0 -50 3 -59 20 -64 11 -3 20 -12 20 -21 0 -9 4 -16 9 -16 4
0 6 11 3 25 -4 21 -1 25 17 22 11 -2 30 -13 41 -25 12 -12 26 -22 33 -22 7 0
4 7 -6 15 -18 13 -17 14 7 17 15 2 26 7 25 12 0 5 3 12 8 15 5 3 19 20 31 37
14 21 35 35 62 42 31 7 40 7 37 -1 -2 -7 -13 -12 -24 -13 -29 -2 -40 -11 -74
-56 -21 -29 -29 -53 -29 -82 -1 -33 -6 -45 -28 -61 -21 -15 -24 -15 -13 -2 12
16 9 17 -40 16 -85 -2 -118 -17 -39 -18 77 -2 65 -21 -12 -21 -27 0 -48 -4
-48 -10 0 -5 13 -7 30 -3 32 6 43 -13 14 -24 -12 -4 -13 -8 -3 -14 9 -5 5 -11
-14 -20 -29 -13 -34 -25 -15 -31 10 -4 10 -13 0 -45 -7 -22 -12 -52 -12 -67
l0 -26 241 0 242 0 -6 39 c-3 26 -1 41 7 44 17 7 19 57 2 57 -8 0 -17 7 -20
15 -4 11 0 15 11 13 9 -2 18 3 21 10 3 10 -3 13 -20 11 -15 -2 -37 7 -58 23
l-34 27 27 6 c15 4 41 5 57 3 17 -3 30 -1 30 4 0 4 -20 8 -45 8 -60 0 -58 20
3 22 l47 1 -50 7 c-52 6 -46 16 15 23 30 3 29 4 -11 5 -45 2 -99 20 -99 35 0
4 25 4 55 1 38 -5 55 -3 55 5 0 6 -7 11 -15 11 -8 0 -15 5 -15 10 0 16 27 12
34 -5 14 -37 26 -11 26 55 l0 70 -250 0 -250 0 0 -59z m425 -61 c3 -5 1 -10
-4 -10 -6 0 -11 5 -11 10 0 6 2 10 4 10 3 0 8 -4 11 -10z m-102 -75 c-3 -9 -8
-14 -10 -11 -3 3 -2 9 2 15 9 16 15 13 8 -4z"/>
<path d="M0 300 c0 -10 158 -3 169 6 2 2 -35 4 -82 4 -53 0 -87 -4 -87 -10z"/>
<path d="M460 220 l-25 -8 27 -1 c15 -1 30 4 33 9 7 11 0 11 -35 0z"/>
</g>
</svg>
