<?xml version="1.0" standalone="no"?>
<!DOCTYPE svg PUBLIC "-//W3C//DTD SVG 20010904//EN"
 "http://www.w3.org/TR/2001/REC-SVG-20010904/DTD/svg10.dtd">
<svg version="1.0" xmlns="http://www.w3.org/2000/svg"
 width="446.000000pt" height="295.000000pt" viewBox="0 0 446.000000 295.000000"
 preserveAspectRatio="xMidYMid meet">

<g transform="translate(0.000000,295.000000) scale(0.100000,-0.100000)"
fill="#000000" stroke="none">
<path d="M0 1475 l0 -1475 410 0 c382 0 411 1 416 18 26 83 72 151 93 137 13
-8 15 -35 2 -35 -9 0 -41 -83 -41 -107 0 -20 838 -19 846 1 3 8 -2 43 -11 78
-9 34 -15 83 -14 108 1 25 -1 55 -5 68 -5 15 -3 22 6 22 9 1 7 5 -4 14 -15 11
-18 28 -18 92 1 43 5 98 9 122 9 44 -4 132 -19 132 -4 0 -11 15 -14 34 -4 21
-13 36 -25 39 -13 3 -21 18 -26 46 -7 45 -1 61 16 44 7 -7 23 -7 52 1 54 13
52 11 28 37 -12 13 -21 27 -21 31 0 5 -15 15 -34 23 -19 8 -44 29 -57 46 -22
32 -22 32 -2 48 39 32 -2 57 -43 26 -20 -15 -75 -20 -87 -8 -4 3 -1 13 7 22 8
9 16 27 18 40 2 17 12 27 30 32 31 8 60 33 51 43 -4 3 -2 6 4 6 6 0 20 15 31
34 26 43 122 90 137 66 8 -13 62 -13 70 0 4 6 10 8 15 5 11 -7 25 13 41 58 7
20 17 37 21 37 20 0 6 20 -14 21 -13 0 -31 4 -42 8 -17 6 -16 10 14 39 28 29
29 32 11 32 -12 0 -21 5 -21 10 0 22 -72 8 -146 -29 -88 -44 -75 -31 31 31 94
54 146 108 93 95 -22 -5 -22 -5 2 11 13 9 45 33 71 52 26 19 58 42 70 50 12 8
31 25 42 38 27 29 41 28 33 -4 -5 -19 -4 -24 6 -18 7 5 22 7 33 6 13 -1 30 12
51 41 27 38 30 49 29 110 -1 37 3 67 8 67 4 0 5 9 2 20 -3 11 -2 20 4 20 5 0
13 -9 16 -21 4 -11 9 -18 12 -15 9 8 -36 72 -108 156 -51 59 -58 71 -39 65
l25 -7 -23 17 c-12 9 -20 21 -17 26 4 5 -2 9 -12 9 -10 0 -25 5 -33 11 -11 8
-6 9 20 5 19 -4 46 -17 60 -30 25 -24 90 -43 90 -27 0 13 -90 71 -109 71 -9 0
-24 9 -34 20 -15 18 -15 21 -2 26 39 16 143 -24 182 -70 27 -31 53 -34 53 -7
0 11 4 22 9 26 6 3 6 18 0 38 -11 40 -11 37 4 37 6 0 24 -11 39 -24 20 -18 28
-35 30 -69 3 -43 4 -45 23 -31 19 14 19 15 1 46 -11 17 -14 28 -7 24 6 -4 11
-1 11 7 0 7 9 23 19 34 20 21 19 54 -1 80 -10 13 9 13 30 0 7 -5 12 -4 12 2 0
6 3 10 8 10 22 -4 34 3 28 16 -5 14 4 19 30 16 7 -1 15 9 18 21 7 21 8 21 20
-12 l14 -35 7 28 c4 15 4 38 1 51 -7 30 9 43 23 19 8 -14 9 -10 4 17 -6 35 -6
35 14 17 18 -16 21 -16 26 -2 4 8 4 23 1 33 -5 15 -4 15 9 -1 15 -18 16 -18
26 1 6 11 7 22 4 26 -3 3 -1 6 5 6 8 0 12 -25 12 -76 0 -64 -2 -75 -15 -70 -9
3 -15 0 -15 -10 0 -8 -4 -13 -9 -10 -10 7 -26 -63 -16 -72 3 -3 15 -1 25 6 29
18 30 16 30 -37 0 -37 -4 -50 -17 -56 -17 -6 -17 -7 0 -19 16 -12 17 -77 17
-1120 l0 -1106 900 0 900 0 0 1475 0 1475 -2230 0 -2230 0 0 -1475z m243 1320
c22 -47 21 -58 -3 -43 -16 10 -24 10 -40 0 -13 -7 -20 -8 -20 -2 0 19 29 80
38 80 4 0 16 -16 25 -35z m317 -10 c0 -25 -3 -45 -8 -45 -4 0 -6 20 -4 45 2
25 6 45 8 45 2 0 4 -20 4 -45z m80 1 c0 -35 -4 -45 -20 -49 -24 -6 -52 18 -48
42 2 9 13 20 26 26 12 5 22 13 22 17 0 5 5 8 10 8 6 0 10 -20 10 -44z m110 -1
c0 -25 -4 -45 -10 -45 -5 0 -10 20 -10 45 0 25 5 45 10 45 6 0 10 -20 10 -45z
m-424 -15 c1 -26 1 -28 -3 -7 -6 34 -33 36 -33 2 0 -14 -4 -25 -10 -25 -10 0
-14 52 -5 62 3 3 16 5 28 4 18 -1 22 -7 23 -36z m120 0 c1 -26 1 -28 -3 -7 -6
34 -33 36 -33 2 0 -14 -4 -25 -10 -25 -5 0 -10 11 -10 25 0 14 -4 25 -10 25
-5 0 -10 -11 -10 -25 0 -14 -4 -25 -10 -25 -5 0 -10 15 -10 33 0 34 0 34 48
33 47 -1 47 -1 48 -36z m68 34 c25 -10 19 -34 -9 -34 -14 0 -25 -5 -25 -11 0
-7 10 -9 25 -7 27 6 34 -6 10 -16 -35 -13 -63 21 -45 55 11 20 19 23 44 13z
m194 -6 c19 -19 14 -28 -13 -28 -14 0 -25 -4 -25 -10 0 -5 10 -10 22 -10 16 0
19 -3 11 -11 -15 -15 -53 6 -53 29 0 20 18 42 35 42 6 0 16 -5 23 -12z m100
-6 c2 -8 -3 -10 -15 -7 -11 4 -9 1 5 -6 12 -7 22 -18 22 -24 0 -16 -25 -26
-45 -19 -23 9 -18 23 8 18 l22 -5 -22 12 c-23 12 -29 29 -16 43 10 10 36 3 41
-12z m80 6 c19 -19 14 -28 -13 -28 -14 0 -25 -4 -25 -10 0 -5 10 -10 23 -10
17 0 19 -2 8 -9 -20 -13 -51 5 -51 27 0 20 18 42 35 42 6 0 16 -5 23 -12z m49
-6 c-8 -9 -17 -26 -20 -37 -3 -12 -5 -6 -6 15 -1 30 3 36 20 37 19 2 20 0 6
-15z m1166 -509 c-7 -2 -19 -2 -25 0 -7 3 -2 5 12 5 14 0 19 -2 13 -5z m-179
-22 c10 -11 16 -25 14 -32 -2 -7 -14 1 -27 19 -24 35 -15 44 13 13z m96 -368
c0 -40 -30 -115 -57 -145 -15 -17 -17 -17 -29 0 -16 20 -18 98 -4 107 6 3 10
14 10 23 0 17 43 49 68 51 7 1 12 -13 12 -36z m802 -295 c-9 -9 -15 -9 -24 1
-11 10 -10 11 5 6 9 -4 17 -3 17 3 0 5 -7 12 -15 16 -8 3 -15 10 -15 16 0 6
10 2 22 -10 17 -16 19 -23 10 -32z m37 36 c4 3 7 -3 7 -13 0 -10 -6 -18 -13
-18 -8 0 -13 11 -12 26 0 14 3 20 6 13 2 -6 8 -10 12 -8z m500 -6 c1 20 31 14
31 -7 0 -23 -16 -36 -25 -21 -5 8 -11 8 -20 0 -8 -7 -19 -9 -25 -5 -16 10 -12
33 8 44 13 7 19 6 24 -7 4 -9 7 -11 7 -4z m48 -15 c-3 -10 -5 -4 -5 12 0 17 2
24 5 18 2 -7 2 -21 0 -30z m124 14 c-10 -9 -11 -8 -5 6 3 10 9 15 12 12 3 -3
0 -11 -7 -18z m-592 -5 c7 -7 11 -16 8 -19 -3 -3 -13 2 -22 11 -21 21 -32 20
-38 -1 -3 -13 -5 -12 -6 5 -1 19 3 23 22 20 12 -2 28 -9 36 -16z m78 2 c8 -20
-8 -36 -26 -25 -15 10 -8 41 9 41 6 0 13 -7 17 -16z m43 12 c0 -2 3 -13 6 -23
5 -16 4 -16 -7 2 -12 19 -12 19 -20 0 -7 -19 -8 -18 -8 3 -1 13 5 22 14 22 8
0 15 -2 15 -4z m70 -17 c0 -11 -4 -17 -10 -14 -5 3 -10 1 -10 -5 0 -6 -5 -8
-12 -4 -8 5 -6 11 6 20 13 9 14 13 4 17 -8 4 -7 6 5 6 11 1 17 -6 17 -20z
m109 -2 c0 -21 -1 -21 -9 -2 l-9 20 -1 -20 c-2 -17 -3 -17 -7 -2 -5 21 -23 23
-23 2 0 -8 -4 -15 -10 -15 -5 0 -10 7 -10 15 0 21 -18 19 -23 -2 -4 -15 -5
-14 -6 3 -1 18 5 21 49 22 45 1 50 -1 49 -21z m45 17 c21 -8 20 -30 -1 -38
-21 -8 -38 8 -30 28 7 18 9 18 31 10z m156 -4 c-11 -7 -12 -10 -2 -10 8 0 12
-5 10 -11 -6 -19 -21 -14 -24 9 -3 16 1 22 14 22 14 0 15 -2 2 -10z m53 4 c3
-4 2 -16 -4 -26 -13 -24 -35 -9 -26 16 7 17 19 21 30 10z m292 -324 l0 -205
-494 -3 c-389 -2 -496 0 -503 10 -13 22 -10 382 4 396 9 9 129 12 503 10 l490
-3 0 -205z m-3355 161 c14 -28 12 -74 -4 -97 -14 -19 -15 -19 -48 0 -43 25
-48 33 -48 79 l0 37 45 0 c34 0 47 -5 55 -19z m110 -16 c44 16 65 12 75 -13 5
-13 8 -12 21 6 16 23 74 32 74 12 0 -5 6 -10 14 -10 17 0 29 -41 21 -73 -6
-23 -42 -53 -52 -43 -3 3 4 13 16 23 17 15 20 24 15 51 -7 32 -35 45 -49 21
-15 -23 -50 -27 -74 -8 -16 13 -28 16 -36 9 -6 -5 -15 -7 -18 -3 -4 3 -7 -5
-7 -20 0 -14 -3 -32 -6 -40 -3 -10 2 -18 16 -22 16 -5 19 -10 11 -18 -13 -13
-15 -77 -3 -77 4 0 14 6 21 13 11 10 11 8 2 -11 -7 -13 -9 -36 -6 -53 6 -25 4
-29 -13 -29 -32 0 -54 27 -42 51 10 17 7 19 -35 19 -40 0 -47 3 -55 26 -15 39
-12 60 16 101 14 21 23 46 20 56 -2 11 -2 25 1 33 4 11 7 11 19 -1 12 -12 20
-12 54 0z m-230 -21 c0 -19 14 -39 50 -72 41 -37 50 -51 50 -79 l0 -33 -57 5
c-32 3 -67 7 -78 9 -11 2 -23 4 -27 5 -8 1 -5 45 5 71 3 8 8 33 12 55 10 62
45 92 45 39z m1486 11 c7 -18 -10 -41 -35 -48 -14 -3 -19 1 -19 22 0 14 2 29
5 34 8 13 43 7 49 -8z m-419 -37 c-3 -8 -6 -5 -6 6 -1 11 2 17 5 13 3 -3 4
-12 1 -19z m-337 -63 c10 -27 53 -75 67 -75 5 0 14 -9 21 -20 19 -31 -18 -25
-43 7 -11 14 -27 33 -37 43 -9 10 -14 21 -10 24 3 3 1 6 -5 6 -6 0 -13 9 -16
20 -7 29 12 25 23 -5z m-378 -8 c14 -26 1 -37 -43 -37 -31 0 -39 4 -39 18 0
10 4 22 10 28 15 15 61 9 72 -9z m52 -125 c5 -14 13 -21 21 -18 15 5 10 -18
-7 -41 -5 -7 -7 -22 -3 -34 10 -30 -13 -15 -25 17 -7 17 -17 24 -35 24 -28 0
-31 7 -11 35 14 20 15 59 3 71 -4 4 -7 11 -7 15 0 14 57 -47 64 -69z m446 -2
c0 -5 -4 -10 -10 -10 -5 0 -10 5 -10 10 0 6 5 10 10 10 6 0 10 -4 10 -10z
m-633 -46 c-3 -3 -12 -4 -19 -1 -8 3 -5 6 6 6 11 1 17 -2 13 -5z m-157 -7 c0
-2 -10 -12 -22 -23 l-23 -19 19 23 c18 21 26 27 26 19z m120 -21 c0 -11 -19
-15 -25 -6 -3 5 1 10 9 10 9 0 16 -2 16 -4z m74 -53 c-22 -23 -29 -27 -18 -12
11 15 26 36 34 48 8 12 16 17 18 11 2 -5 -13 -27 -34 -47z m121 25 c-4 -13 -9
-31 -11 -40 -3 -10 -6 -31 -6 -48 -1 -16 -6 -30 -12 -31 -6 0 0 -5 14 -11 14
-6 28 -11 31 -10 4 1 9 -8 12 -18 6 -24 1 -25 -19 -5 -23 22 -127 20 -150 -2
-17 -17 -17 -17 -11 7 4 14 7 28 7 33 0 4 19 7 43 7 50 0 67 13 67 51 0 49 12
89 27 89 10 0 12 -7 8 -22z m-359 -13 c-22 -17 -36 -19 -36 -7 0 14 12 22 34
22 21 -1 21 -1 2 -15z m422 -30 c-3 -3 -9 2 -12 12 -6 14 -5 15 5 6 7 -7 10
-15 7 -18z m-505 -20 c-3 -9 -8 -14 -10 -11 -3 3 -2 9 2 15 9 16 15 13 8 -4z
m567 -58 c0 -7 -12 1 -25 16 -14 15 -25 33 -25 40 0 7 12 -1 25 -16 14 -15 25
-33 25 -40z m-300 28 c-7 -9 -15 -13 -18 -10 -3 2 1 11 8 20 7 9 15 13 18 10
3 -2 -1 -11 -8 -20z m-283 -17 c-3 -8 -6 -5 -6 6 -1 11 2 17 5 13 3 -3 4 -12
1 -19z m296 -15 c-7 -2 -21 -2 -30 0 -10 3 -4 5 12 5 17 0 24 -2 18 -5z m-273
-33 c0 -5 -2 -10 -4 -10 -3 0 -8 5 -11 10 -3 6 -1 10 4 10 6 0 11 -4 11 -10z
m214 -15 c-4 -8 -13 -15 -21 -15 -13 0 -13 3 -3 15 7 8 16 15 21 15 5 0 6 -7
3 -15z m401 5 c3 -5 15 -10 26 -10 17 0 18 -3 9 -20 -6 -12 -10 -28 -9 -38 3
-35 -1 -49 -23 -73 -18 -21 -20 -21 -14 -4 4 11 12 42 19 68 10 47 10 50 -14
68 -13 10 -19 19 -12 19 6 0 15 -4 18 -10z m-434 -54 c-6 -7 -8 -15 -5 -19 3
-3 1 -15 -6 -26 -6 -12 -8 -21 -5 -21 9 0 50 25 57 35 5 6 8 6 8 -1 0 -6 -10
-19 -22 -28 l-23 -17 24 7 c16 4 21 3 17 -5 -4 -6 -16 -11 -26 -11 -14 0 -20
-7 -20 -22 -1 -31 -5 -78 -7 -78 -16 0 -33 17 -33 32 0 11 -5 16 -10 13 -6 -4
-8 -16 -4 -27 4 -13 -1 -27 -14 -41 -11 -12 -28 -38 -37 -57 -12 -22 -20 -30
-23 -21 -3 8 2 28 11 45 9 17 23 52 31 77 26 80 78 189 88 183 5 -3 5 -11 -1
-18z m813 -61 c16 -28 18 -46 12 -102 -10 -108 -17 -157 -22 -165 -3 -5 13
-29 35 -55 37 -42 40 -48 26 -63 -23 -25 -18 -32 21 -28 43 3 47 -2 63 -88 16
-85 15 -172 -1 -156 -10 10 -16 8 -29 -9 l-17 -22 -45 21 c-25 12 -50 29 -55
38 -5 9 -12 15 -15 15 -20 -3 -27 0 -27 10 0 7 -12 23 -26 36 -15 13 -23 30
-20 38 3 9 0 15 -8 15 -23 0 -44 34 -51 83 -4 26 -11 50 -15 52 -5 3 -5 19 0
35 6 20 5 30 -2 30 -6 0 -8 11 -4 26 5 18 2 30 -9 38 -12 9 -6 11 34 12 46 0
81 15 81 35 0 4 -7 14 -15 23 -19 18 -9 46 16 46 23 0 24 8 2 32 -9 10 -17 27
-18 38 -1 16 3 18 21 14 19 -5 22 -3 17 15 -4 15 -1 21 11 21 19 0 20 5 6 31
-8 14 -7 19 2 19 8 0 22 -16 32 -35z m-399 -104 c-7 -22 -25 -29 -25 -11 0 12
23 40 28 35 2 -2 1 -13 -3 -24z m1974 -123 c-1 -18 -2 -19 -6 -5 -2 9 -9 15
-14 12 -5 -4 -9 -1 -9 4 0 6 7 11 15 11 9 0 15 -9 14 -22z m18 -10 c-3 -7 -5
-2 -5 12 0 14 2 19 5 13 2 -7 2 -19 0 -25z m83 20 c0 -5 -4 -6 -10 -3 -5 3
-10 0 -10 -8 0 -7 -6 -14 -14 -14 -8 0 -12 6 -9 14 3 7 0 13 -5 13 -6 0 -13
-8 -15 -17 -4 -14 -5 -13 -6 4 -1 18 4 21 34 21 19 0 35 -4 35 -10z m-2613
-95 c-3 -10 -5 -4 -5 12 0 17 2 24 5 18 2 -7 2 -21 0 -30z m1182 23 c9 -10 9
-16 1 -21 -13 -8 -42 14 -34 26 8 13 20 11 33 -5z m1312 -223 c-9 -16 -10 -14
-11 12 0 21 3 26 11 18 8 -8 8 -16 0 -30z m29 11 c0 -14 -4 -23 -9 -20 -5 3
-7 15 -4 26 7 28 13 25 13 -6z m149 -1 c0 -25 -1 -25 -8 -8 -5 11 -7 23 -4 28
8 14 13 7 12 -20z m71 15 c26 4 30 1 29 -19 0 -22 -1 -23 -9 -4 l-9 20 -1 -20
-1 -20 -9 20 c-7 18 -8 19 -15 3 -11 -27 -25 -21 -24 10 0 15 3 22 5 16 2 -6
18 -8 34 -6z m47 -10 c-3 -8 -6 -5 -6 6 -1 11 2 17 5 13 3 -3 4 -12 1 -19z
m-159 -10 c2 -9 -2 -20 -9 -24 -8 -5 -9 -3 -4 6 5 9 2 10 -14 5 -14 -4 -21 -3
-19 5 2 7 -3 15 -9 17 -7 3 -13 -3 -13 -13 0 -9 -3 -15 -6 -11 -4 3 -4 13 -1
20 8 21 71 16 75 -5z m59 -10 c-3 -7 -5 -2 -5 12 0 14 2 19 5 13 2 -7 2 -19 0
-25z m-150 0 c-3 -8 -6 -5 -6 6 -1 11 2 17 5 13 3 -3 4 -12 1 -19z m-19 -265
c-2 -17 -10 -29 -20 -31 -14 -3 -18 3 -18 27 0 25 4 31 21 31 16 0 20 -5 17
-27z m129 0 c1 -16 -1 -22 -4 -14 -5 11 -7 11 -14 0 -7 -11 -9 -9 -9 7 0 41
25 47 27 7z m20 -20 c-3 -10 -5 -2 -5 17 0 19 2 27 5 18 2 -10 2 -26 0 -35z
m90 15 c-3 -7 -5 -2 -5 12 0 14 2 19 5 13 2 -7 2 -19 0 -25z m-220 -20 c-3 -7
-5 -2 -5 12 0 14 2 19 5 13 2 -7 2 -19 0 -25z m49 -5 c-3 -3 -13 -2 -23 1 -17
7 -17 8 2 22 18 13 20 13 23 -1 2 -9 1 -19 -2 -22z m101 5 c-3 -7 -5 -2 -5 12
0 14 2 19 5 13 2 -7 2 -19 0 -25z m27 17 c-4 -8 -8 -15 -10 -15 -2 0 -4 7 -4
15 0 8 4 15 10 15 5 0 7 -7 4 -15z m23 -17 c-3 -7 -5 -2 -5 12 0 14 2 19 5 13
2 -7 2 -19 0 -25z"/>
<path d="M210 2796 c0 -9 5 -16 10 -16 6 0 10 4 10 9 0 6 -4 13 -10 16 -5 3
-10 -1 -10 -9z"/>
<path d="M590 2770 c0 -11 7 -20 15 -20 8 0 15 9 15 20 0 11 -7 20 -15 20 -8
0 -15 -9 -15 -20z"/>
<path d="M488 2783 c6 -2 18 -2 25 0 6 3 1 5 -13 5 -14 0 -19 -2 -12 -5z"/>
<path d="M675 2790 c-3 -5 1 -10 10 -10 9 0 13 5 10 10 -3 6 -8 10 -10 10 -2
0 -7 -4 -10 -10z"/>
<path d="M858 2783 c7 -3 16 -2 19 1 4 3 -2 6 -13 5 -11 0 -14 -3 -6 -6z"/>
<path d="M3320 1615 c0 -8 5 -15 10 -15 6 0 10 7 10 15 0 8 -4 15 -10 15 -5 0
-10 -7 -10 -15z"/>
<path d="M3371 1614 c0 -11 3 -14 6 -6 3 7 2 16 -1 19 -3 4 -6 -2 -5 -13z"/>
<path d="M600 1320 c0 -5 11 -10 25 -10 14 0 25 5 25 10 0 6 -11 10 -25 10
-14 0 -25 -4 -25 -10z"/>
<path d="M2800 30 c0 -5 5 -10 10 -10 6 0 10 5 10 10 0 6 -4 10 -10 10 -5 0
-10 -4 -10 -10z"/>
<path d="M2520 2340 c0 -5 -3 -9 -7 -8 -22 7 -51 -31 -60 -77 -14 -66 -13 -84
4 -78 10 4 13 0 11 -13 -2 -15 2 -18 21 -16 13 1 30 -3 38 -10 12 -10 14 -7 8
24 -4 22 -3 38 4 43 6 3 9 11 6 16 -4 5 3 9 15 9 13 0 19 4 14 12 -5 8 0 9 14
6 24 -7 32 16 10 25 -8 3 -6 6 5 6 19 1 21 9 7 31 -9 13 -11 13 -20 0 -9 -13
-12 -13 -21 2 -13 22 -49 43 -49 28z"/>
<path d="M2322 1400 c-34 -21 -39 -46 -8 -44 10 1 16 -6 16 -17 0 -32 16 -21
29 19 7 20 15 43 17 50 8 18 -17 15 -54 -8z"/>
<path d="M2125 1381 c-3 -5 -13 -7 -23 -5 -20 6 -97 -19 -98 -32 -3 -26 -30
-74 -41 -74 -7 0 -13 -7 -13 -15 0 -8 -9 -23 -20 -32 -11 -10 -20 -24 -20 -33
0 -9 9 -33 20 -55 31 -61 27 -120 -15 -189 -19 -32 -35 -64 -35 -70 0 -22 99
-150 136 -176 51 -36 242 -224 264 -260 22 -35 29 -40 61 -40 20 0 51 -3 68
-6 28 -6 31 -4 31 19 0 38 -10 57 -31 57 -16 0 -17 3 -7 19 7 11 22 25 33 31
27 14 36 96 10 86 -8 -3 -15 -1 -15 4 0 5 -8 11 -19 15 -18 5 -144 182 -157
220 -3 11 19 -18 51 -65 62 -93 86 -122 93 -116 8 9 -121 211 -143 224 -14 8
-36 90 -26 97 4 2 32 13 63 25 30 11 65 31 78 45 20 21 22 28 12 50 -6 14 -9
31 -6 39 7 19 -24 66 -50 76 -17 7 -18 9 -3 9 9 1 17 9 17 19 0 23 -86 107
-125 123 -41 16 -83 20 -90 10z m86 -88 c13 -16 12 -17 -3 -4 -10 7 -18 15
-18 17 0 8 8 3 21 -13z m-33 -87 c3 -11 -1 -17 -9 -14 -7 2 -13 12 -15 22 -3
23 20 15 24 -8z m182 -51 c0 -8 -7 -15 -15 -15 -8 0 -15 7 -15 15 0 8 7 15 15
15 8 0 15 -7 15 -15z m-147 -32 c15 -3 27 -9 27 -14 0 -5 5 -9 11 -9 5 0 7 5
4 10 -10 16 5 12 32 -10 14 -11 33 -20 43 -20 30 0 31 -13 3 -32 -30 -19 -78
-24 -88 -8 -9 14 -26 13 -22 -2 1 -6 -6 -14 -16 -16 -14 -3 -18 1 -15 15 2 12
-9 30 -26 45 -32 28 -31 66 2 53 9 -3 29 -9 45 -12z"/>
<path d="M1768 1213 c6 -2 18 -2 25 0 6 3 1 5 -13 5 -14 0 -19 -2 -12 -5z"/>
<path d="M1725 1167 l-20 -20 25 13 c32 16 33 17 23 23 -4 2 -17 -5 -28 -16z"/>
<path d="M2461 1140 c-2 -37 20 -261 30 -312 9 -45 9 -61 -1 -73 -10 -12 -10
-15 4 -15 21 0 21 31 -4 232 -20 155 -28 201 -29 168z"/>
<path d="M1712 1047 c-22 -24 -23 -26 -8 -62 19 -44 21 -85 4 -85 -6 0 -1 -11
11 -24 31 -33 48 -24 55 29 5 29 13 45 24 48 16 4 16 5 0 6 -13 1 -18 9 -18
29 0 15 -10 40 -23 55 l-22 28 -23 -24z"/>
<path d="M2580 760 c0 -5 5 -10 10 -10 6 0 10 5 10 10 0 6 -4 10 -10 10 -5 0
-10 -4 -10 -10z"/>
<path d="M1932 680 c-20 -17 -21 -22 -13 -77 6 -32 15 -80 22 -108 8 -32 12
-131 12 -272 l0 -223 288 0 c225 0 289 3 289 13 0 6 -9 41 -20 77 -11 36 -20
77 -20 92 0 28 0 28 -88 48 -37 9 -52 16 -48 25 2 7 -2 16 -10 19 -8 3 -14 12
-14 21 0 17 -35 21 -45 5 -12 -19 -22 -10 -23 22 0 21 -9 38 -23 49 -18 13
-24 28 -25 66 -1 26 -3 51 -3 54 -1 6 -47 29 -58 29 -3 0 -2 -7 1 -16 4 -10
-4 -7 -24 9 -19 16 -37 23 -50 20 -17 -5 -20 -1 -20 28 0 40 -54 128 -64 104
-8 -22 -26 -18 -26 4 0 28 -12 32 -38 11z m288 -485 c16 -36 33 -65 37 -65 13
0 33 -51 33 -82 0 -15 -4 -28 -10 -28 -5 0 -7 7 -4 15 4 8 -13 47 -37 87 -44
72 -54 75 -47 11 4 -35 4 -35 -10 -15 -17 27 -29 28 -34 5 -2 -10 -6 -13 -10
-8 -3 6 2 28 13 49 10 22 19 52 19 68 0 46 18 32 50 -37z m159 -159 c9 -11 8
-15 -5 -20 -19 -7 -47 11 -38 25 8 13 30 11 43 -5z"/>
</g>
</svg>
